<svg xmlns="http://www.w3.org/2000/svg" version="1.1" xmlns:xlink="http://www.w3.org/1999/xlink" width="1000" height="1000"><style>
    #light-icon {
      display: inline;
    }
    #dark-icon {
      display: none;
    }

    @media (prefers-color-scheme: dark) {
      #light-icon {
        display: none;
      }
      #dark-icon {
        display: inline;
      }
    }
  </style><g id="light-icon"><svg xmlns="http://www.w3.org/2000/svg" version="1.1" xmlns:xlink="http://www.w3.org/1999/xlink" width="1000" height="1000"><g clip-path="url(#SvgjsClipPath1037)"><rect width="1000" height="1000" fill="#000000"></rect><g transform="matrix(4.022988505747127,0,0,4.022988505747127,150,339.08045977011494)"><svg xmlns="http://www.w3.org/2000/svg" width="174" height="80" viewBox="0 0 174 80" fill="none"><g clip-path="url(#clip0_214_6)">
<path d="M57.056 74.912C56.672 75.04 56.32 74.944 56 74.624C55.744 74.368 55.52 74.048 55.328 73.664C55.2 73.28 55.072 72.864 54.944 72.416C54.816 71.968 54.752 71.52 54.752 71.072C54.752 70.752 54.752 70.432 54.752 70.112C54.752 69.792 54.688 69.504 54.56 69.248C54.496 68.992 54.432 68.736 54.368 68.48C54.368 68.288 54.368 68.096 54.368 67.904C54.304 67.2 54.048 66.528 53.6 65.888C53.536 65.888 53.504 65.888 53.504 65.888C53.504 65.824 53.504 65.792 53.504 65.792C52.992 65.088 52.576 64.352 52.256 63.584C52 62.816 51.808 62.016 51.68 61.184L50.816 56C50.752 55.616 50.688 55.264 50.624 54.944C50.56 54.56 50.464 54.176 50.336 53.792C50.272 53.28 50.176 52.8 50.048 52.352C49.92 51.904 49.792 51.456 49.664 51.008L49.088 48.896V48.608C49.024 48.16 48.928 47.712 48.8 47.264C48.672 46.816 48.576 46.368 48.512 45.92C48.448 45.408 48.352 44.928 48.224 44.48C48.16 43.968 48.064 43.488 47.936 43.04C47.936 42.784 47.84 42.56 47.648 42.368C47.52 42.112 47.36 41.856 47.168 41.6C47.168 41.536 47.104 41.44 46.976 41.312C46.208 40.8 45.344 40.608 44.384 40.736C44.128 40.736 43.936 40.768 43.808 40.832C43.168 40.96 42.528 41.152 41.888 41.408C41.248 41.664 40.608 41.952 39.968 42.272C39.712 42.4 39.552 42.496 39.488 42.56C39.168 42.816 38.816 43.04 38.432 43.232C38.048 43.36 37.664 43.488 37.28 43.616C36.32 44 35.36 44.448 34.4 44.96C33.504 45.472 32.608 45.984 31.712 46.496L31.136 46.976C30.816 47.232 30.464 47.52 30.08 47.84C29.696 48.096 29.312 48.32 28.928 48.512C28.352 48.896 28.064 49.408 28.064 50.048C27.936 50.944 28.064 51.808 28.448 52.64C28.768 53.472 28.992 54.432 29.12 55.52C29.12 55.904 29.152 56.192 29.216 56.384C29.344 56.576 29.408 56.8 29.408 57.056C29.472 57.248 29.536 57.44 29.6 57.632L29.888 59.456C30.08 60.736 29.888 61.952 29.312 63.104C29.248 63.168 29.152 63.328 29.024 63.584C28.448 64.544 28.064 65.6 27.872 66.752C27.808 67.072 27.712 67.392 27.584 67.712C27.456 67.968 27.264 68.256 27.008 68.576C26.752 68.896 26.368 69.088 25.856 69.152C25.344 69.216 24.896 68.992 24.512 68.48C24.256 68.032 24.064 67.456 23.936 66.752C23.808 66.112 23.68 65.6 23.552 65.216C23.424 64.704 23.2 64.32 22.88 64.064C22.368 63.36 21.888 62.464 21.44 61.376C21.184 60.672 20.992 59.968 20.864 59.264C20.736 58.56 20.608 57.856 20.48 57.152C20.288 56.192 20.096 55.232 19.904 54.272C19.712 53.312 19.488 52.352 19.232 51.392C19.04 50.56 18.816 49.76 18.56 48.992C18.368 48.16 18.176 47.328 17.984 46.496L16.256 39.392C16.192 38.688 16 38.016 15.68 37.376C15.552 36.864 15.392 36.352 15.2 35.84C15.008 35.264 14.848 34.72 14.72 34.208C14.656 34.016 14.592 33.824 14.528 33.632C14.464 33.376 14.4 33.152 14.336 32.96C14.272 32.64 14.176 32.32 14.048 32C13.984 31.68 13.856 31.36 13.664 31.04L13.376 29.984C13.248 29.472 13.12 28.96 12.992 28.448C12.864 27.936 12.736 27.456 12.608 27.008L12.512 26.624C12.512 26.24 12.48 25.856 12.416 25.472C12.352 25.088 12.288 24.672 12.224 24.224C12.224 24.16 12.192 24.128 12.128 24.128C12.128 24.064 12.128 24 12.128 23.936C12.064 23.04 12 22.144 11.936 21.248C11.872 20.288 11.84 19.36 11.84 18.464C11.776 17.888 11.776 17.536 11.84 17.408C11.904 17.28 12.064 16.992 12.32 16.544C12.512 16.224 12.736 15.872 12.992 15.488C12.992 15.36 13.056 15.296 13.184 15.296C13.44 15.232 13.664 15.136 13.856 15.008C14.048 14.816 14.24 14.656 14.432 14.528C15.136 14.08 16 13.856 17.024 13.856C17.216 13.856 17.344 13.888 17.408 13.952C17.6 14.016 17.76 14.08 17.888 14.144C18.08 14.208 18.272 14.304 18.464 14.432C18.848 14.56 19.168 14.784 19.424 15.104C19.744 15.424 20.032 15.744 20.288 16.064C20.736 17.024 20.992 17.92 21.056 18.752C21.184 19.52 21.376 20.288 21.632 21.056L21.92 22.4C22.048 23.04 22.208 23.68 22.4 24.32C22.592 24.96 22.752 25.6 22.88 26.24C23.072 27.136 23.232 28.064 23.36 29.024C23.552 29.92 23.744 30.816 23.936 31.712L24.224 33.44C24.224 33.504 24.224 33.6 24.224 33.728C24.288 33.792 24.32 33.856 24.32 33.92C24.448 34.24 24.64 34.4 24.896 34.4C25.536 34.464 26.176 34.528 26.816 34.592C27.456 34.656 28.096 34.624 28.736 34.496C29.824 34.368 30.88 34.208 31.904 34.016C32.928 33.824 33.952 33.632 34.976 33.44C36.32 33.184 37.632 32.928 38.912 32.672C40.256 32.352 41.6 32.032 42.944 31.712L44.864 31.232C45.184 31.104 45.344 30.88 45.344 30.56C45.28 30.368 45.248 30.176 45.248 29.984C45.248 29.792 45.216 29.6 45.152 29.408C44.832 28.512 44.64 27.68 44.576 26.912C44.512 26.592 44.448 26.272 44.384 25.952C44.32 25.568 44.256 25.216 44.192 24.896C44 23.808 43.808 22.72 43.616 21.632C43.488 20.48 43.36 19.36 43.232 18.272C43.168 17.76 43.104 17.28 43.04 16.832C43.04 16.32 42.976 15.84 42.848 15.392C42.784 14.688 42.72 13.984 42.656 13.28C42.656 12.512 42.656 11.808 42.656 11.168C42.656 11.04 42.656 10.912 42.656 10.784C42.72 10.656 42.784 10.528 42.848 10.4C42.912 10.144 42.976 9.92 43.04 9.72799C43.104 9.472 43.168 9.216 43.232 8.96C43.36 8.576 43.488 8.256 43.616 8C43.808 7.68 44 7.392 44.192 7.136C44.512 6.944 44.768 6.688 44.96 6.368C45.28 6.048 45.568 5.856 45.824 5.792L46.688 5.504C46.88 5.376 47.072 5.344 47.264 5.408C47.52 5.408 47.744 5.44 47.936 5.504C48.128 5.504 48.416 5.568 48.8 5.696C48.992 5.76 49.184 5.856 49.376 5.984C49.568 6.112 49.728 6.272 49.856 6.464C49.984 6.72 50.144 6.976 50.336 7.232C50.592 7.424 50.752 7.68 50.816 8C50.944 8.192 51.104 8.288 51.296 8.288C51.488 8.352 51.648 8.54399 51.776 8.86399C51.776 8.928 51.776 8.992 51.776 9.056C51.84 9.12 51.872 9.216 51.872 9.344C52 9.856 52.128 10.4 52.256 10.976C52.384 11.488 52.48 12 52.544 12.512C52.544 12.704 52.544 12.896 52.544 13.088C52.608 13.28 52.608 13.504 52.544 13.76V14.528C52.608 15.04 52.672 15.584 52.736 16.16C52.8 16.672 52.864 17.184 52.928 17.696C52.992 17.76 53.024 17.92 53.024 18.176C53.216 18.432 53.344 18.752 53.408 19.136C53.472 19.52 53.536 19.872 53.6 20.192C53.664 20.512 53.696 20.864 53.696 21.248C53.76 21.568 53.856 21.888 53.984 22.208C54.048 22.336 54.08 22.528 54.08 22.784C54.08 23.04 54.08 23.296 54.08 23.552C54.144 23.744 54.176 23.968 54.176 24.224C54.176 24.48 54.208 24.64 54.272 24.704C54.336 24.768 54.4 24.864 54.464 24.992C54.592 25.056 54.624 25.152 54.56 25.28C54.56 25.408 54.528 25.536 54.464 25.664C54.464 25.792 54.464 25.92 54.464 26.048V26.528C54.592 26.848 54.688 27.2 54.752 27.584C54.816 27.968 54.88 28.32 54.944 28.64C54.944 29.024 55.072 29.248 55.328 29.312L55.616 29.6C55.744 29.728 55.808 29.952 55.808 30.272C55.68 30.4 55.616 30.528 55.616 30.656C55.552 30.784 55.552 30.944 55.616 31.136C55.808 31.328 55.872 31.52 55.808 31.712C55.68 31.904 55.68 32.064 55.808 32.192C55.936 32.384 56 32.672 56 33.056V32.96C56.064 33.024 56.16 33.056 56.288 33.056C56.608 33.184 56.704 33.408 56.576 33.728C56.576 33.856 56.512 33.984 56.384 34.112C56.192 34.304 56.128 34.464 56.192 34.592C56.384 35.488 56.576 36.384 56.768 37.28C56.96 38.176 57.12 39.072 57.248 39.968L57.536 42.272C57.664 42.784 57.76 43.296 57.824 43.808C57.888 44.32 57.984 44.832 58.112 45.344C58.112 45.664 58.176 46.08 58.304 46.592C58.304 46.72 58.432 46.784 58.688 46.784C58.688 46.72 58.72 46.688 58.784 46.688C58.848 46.688 58.88 46.72 58.88 46.784C58.944 46.848 59.04 47.008 59.168 47.264L59.456 48.512C59.52 48.64 59.552 48.8 59.552 48.992C59.552 49.12 59.584 49.248 59.648 49.376C59.712 49.76 59.584 50.08 59.264 50.336C59.072 50.4 58.976 50.528 58.976 50.72C58.976 50.784 58.976 50.816 58.976 50.816C59.04 50.816 59.072 50.848 59.072 50.912C59.136 50.912 59.168 50.88 59.168 50.816H59.264C59.392 50.752 59.52 50.752 59.648 50.816C59.776 50.816 59.84 50.88 59.84 51.008C59.904 51.264 59.968 51.552 60.032 51.872C60.096 52.192 60.096 52.384 60.032 52.448C60.032 52.448 60 52.48 59.936 52.544C59.936 52.544 59.904 52.544 59.84 52.544C59.584 52.544 59.456 52.832 59.456 53.408C59.52 54.048 59.712 54.656 60.032 55.232L60.608 56.096C61.12 56.992 61.376 57.984 61.376 59.072C61.376 59.2 61.312 59.328 61.184 59.456C60.992 59.648 60.896 59.872 60.896 60.128C60.896 60.512 60.928 60.832 60.992 61.088C60.992 61.536 60.896 61.856 60.704 62.048C60.512 62.304 60.416 62.624 60.416 63.008C60.352 63.584 60.16 64.16 59.84 64.736C59.264 65.888 58.976 67.168 58.976 68.576C58.912 68.832 58.88 69.088 58.88 69.344C58.88 69.6 58.88 69.888 58.88 70.208C58.816 70.464 58.784 70.88 58.784 71.456V72.704C58.72 72.96 58.656 73.216 58.592 73.472C58.528 73.728 58.432 73.984 58.304 74.24C58.112 74.496 57.856 74.688 57.536 74.816C57.472 74.816 57.408 74.816 57.344 74.816C57.28 74.88 57.184 74.912 57.056 74.912Z" fill="white"></path>
<path d="M78.428 37.108C76.82 37.108 75.488 36.796 74.432 36.172C73.4 35.548 72.548 34.648 71.876 33.472C71.228 32.296 70.64 30.868 70.112 29.188L66.08 16.264C65.696 15.064 65.72 14.02 66.152 13.132C66.608 12.22 67.412 11.596 68.564 11.26C69.62 10.948 70.58 11.02 71.444 11.476C72.308 11.908 72.896 12.652 73.208 13.708L77.132 26.164C77.54 27.508 78.056 28.408 78.68 28.864C79.328 29.296 80.024 29.392 80.768 29.152C81.536 28.936 82.028 28.504 82.244 27.856C82.46 27.184 82.4 26.176 82.064 24.832C81.512 22.432 81.14 20.548 80.948 19.18C80.756 17.812 80.66 16.732 80.66 15.94C80.66 14.596 81.02 13.444 81.74 12.484C82.484 11.5 83.624 11.008 85.16 11.008C86.672 11.008 87.764 11.5 88.436 12.484C89.132 13.444 89.48 14.596 89.48 15.94C89.48 16.732 89.372 17.548 89.156 18.388C88.94 19.228 88.688 20.092 88.4 20.98L85.196 30.664C84.764 31.96 84.284 33.1 83.756 34.084C83.252 35.044 82.58 35.788 81.74 36.316C80.924 36.844 79.82 37.108 78.428 37.108ZM95.2085 37.072C94.1045 37.072 93.2045 36.736 92.5085 36.064C91.8125 35.392 91.4645 34.54 91.4645 33.508V14.464C91.4645 13.408 91.8005 12.52 92.4725 11.8C93.1685 11.08 94.0805 10.72 95.2085 10.72C96.4085 10.72 97.3445 11.08 98.0165 11.8C98.7125 12.496 99.0605 13.36 99.0605 14.392V33.508C99.0605 34.54 98.6885 35.392 97.9445 36.064C97.2245 36.736 96.3125 37.072 95.2085 37.072ZM109.155 36.964C108.051 36.916 107.019 36.76 106.059 36.496C105.123 36.232 104.295 35.788 103.575 35.164C102.855 34.516 102.291 33.628 101.883 32.5C101.499 31.372 101.307 29.932 101.307 28.18C101.307 26.476 101.535 25 101.991 23.752C102.471 22.504 103.035 21.508 103.683 20.764C104.331 20.02 104.919 19.564 105.447 19.396L105.267 18.712H104.655C103.551 18.712 102.675 18.364 102.027 17.668C101.403 16.948 101.079 15.988 101.055 14.788C101.031 13.588 101.343 12.628 101.991 11.908C102.663 11.164 103.551 10.792 104.655 10.792H114.555C117.147 10.792 119.019 11.416 120.171 12.664C121.323 13.888 121.899 15.484 121.899 17.452C121.899 19.036 121.527 20.356 120.783 21.412C120.063 22.468 118.971 23.104 117.507 23.32V23.86C119.091 23.932 120.375 24.484 121.359 25.516C122.367 26.524 122.871 28.024 122.871 30.016C122.871 32.176 122.247 33.892 120.999 35.164C119.751 36.412 117.699 37.024 114.843 37L109.155 36.964ZM108.183 20.8C108.183 21.328 108.279 21.676 108.471 21.844C108.663 22.012 109.023 22.096 109.551 22.096H112.863C113.775 22.096 114.471 21.964 114.951 21.7C115.431 21.412 115.671 20.86 115.671 20.044C115.671 19.204 115.431 18.652 114.951 18.388C114.471 18.124 113.775 17.992 112.863 17.992H109.551C109.023 17.992 108.663 18.064 108.471 18.208C108.279 18.352 108.183 18.7 108.183 19.252V20.8ZM108.183 28.036C108.183 28.564 108.279 28.924 108.471 29.116C108.687 29.308 109.071 29.404 109.623 29.404H113.331C114.267 29.404 114.987 29.236 115.491 28.9C115.995 28.564 116.247 27.964 116.247 27.1C116.247 26.236 115.995 25.648 115.491 25.336C114.987 25 114.267 24.832 113.331 24.832H109.623C109.071 24.832 108.687 24.916 108.471 25.084C108.279 25.252 108.183 25.6 108.183 26.128V28.036ZM133.331 36.928C132.155 36.928 131.027 36.82 129.947 36.604C128.891 36.388 127.955 35.98 127.139 35.38C126.347 34.756 125.711 33.868 125.231 32.716C124.775 31.54 124.547 30.004 124.547 28.108C124.547 26.404 124.775 24.94 125.231 23.716C125.687 22.492 126.227 21.52 126.851 20.8C127.499 20.08 128.087 19.636 128.615 19.468L128.435 18.784H127.823C126.719 18.784 125.843 18.436 125.195 17.74C124.571 17.02 124.247 16.048 124.223 14.824C124.199 13.624 124.511 12.664 125.159 11.944C125.831 11.224 126.719 10.864 127.823 10.864H140.747C143.315 10.864 144.599 12.064 144.599 14.464C144.599 15.544 144.287 16.408 143.663 17.056C143.039 17.704 142.067 18.028 140.747 18.028H133.295C132.407 18.028 131.963 18.544 131.963 19.576V22.276C133.163 22.012 134.411 21.7 135.707 21.34C137.027 20.98 138.275 20.8 139.451 20.8C140.579 20.8 141.419 21.052 141.971 21.556C142.547 22.036 142.835 22.696 142.835 23.536C142.835 24.4 142.547 25.084 141.971 25.588C141.419 26.068 140.579 26.32 139.451 26.344C138.275 26.368 137.027 26.2 135.707 25.84C134.387 25.48 133.127 25.168 131.927 24.904V29.62C131.927 30.076 132.047 30.4 132.287 30.592C132.551 30.76 132.959 30.688 133.511 30.376C134.711 29.68 135.887 29.128 137.039 28.72C138.191 28.288 139.319 28.072 140.423 28.072C141.983 28.072 143.159 28.48 143.951 29.296C144.767 30.112 145.175 31.18 145.175 32.5C145.175 33.916 144.743 35.008 143.879 35.776C143.039 36.544 141.671 36.928 139.775 36.928H133.331Z" fill="white"></path>
<path d="M68.904 52.808C67.8373 52.808 66.9627 52.4987 66.28 51.88C65.6187 51.2613 65.288 50.408 65.288 49.32C65.288 48.2533 65.5867 47.4 66.184 46.76C66.8027 46.0987 67.7093 45.768 68.904 45.768H82.696C83.8907 45.768 84.7867 46.0987 85.384 46.76C86.0027 47.4 86.312 48.2533 86.312 49.32C86.312 50.408 85.9707 51.2613 85.288 51.88C84.6267 52.4987 83.7627 52.808 82.696 52.808C81.9707 52.808 81.384 52.7333 80.936 52.584C80.5093 52.4133 80.1573 52.2213 79.88 52.008C79.6027 51.7733 79.336 51.5813 79.08 51.432C78.824 51.2613 78.504 51.176 78.12 51.176L77.832 51.752C77.9173 51.944 78.0667 52.2213 78.28 52.584C78.4933 52.9253 78.696 53.4267 78.888 54.088C79.08 54.728 79.176 55.6027 79.176 56.712V65.96C79.176 66.8347 78.8453 67.56 78.184 68.136C77.544 68.712 76.7547 69 75.816 69C74.856 69 74.0453 68.712 73.384 68.136C72.744 67.56 72.424 66.8347 72.424 65.96V56.712C72.424 55.6027 72.52 54.728 72.712 54.088C72.904 53.4267 73.1067 52.9253 73.32 52.584C73.5547 52.2213 73.7147 51.944 73.8 51.752L73.48 51.176C73.096 51.176 72.776 51.2613 72.52 51.432C72.264 51.5813 71.9973 51.7733 71.72 52.008C71.4427 52.2213 71.0907 52.4133 70.664 52.584C70.2373 52.7333 69.6507 52.808 68.904 52.808ZM95.4258 68.936C94.3804 68.936 93.3778 68.84 92.4178 68.648C91.4791 68.456 90.6471 68.0933 89.9218 67.56C89.2178 67.0053 88.6524 66.216 88.2258 65.192C87.8204 64.1467 87.6178 62.7813 87.6178 61.096C87.6178 59.5813 87.8204 58.28 88.2258 57.192C88.6311 56.104 89.1111 55.24 89.6658 54.6C90.2418 53.96 90.7644 53.5653 91.2338 53.416L91.0738 52.808H90.5298C89.5484 52.808 88.7698 52.4987 88.1938 51.88C87.6391 51.24 87.3511 50.376 87.3298 49.288C87.3084 48.2213 87.5858 47.368 88.1618 46.728C88.7591 46.088 89.5484 45.768 90.5298 45.768H102.018C104.3 45.768 105.442 46.8347 105.442 48.968C105.442 49.928 105.164 50.696 104.61 51.272C104.055 51.848 103.191 52.136 102.018 52.136H95.3938C94.6044 52.136 94.2098 52.5947 94.2098 53.512V55.912C95.2764 55.6773 96.3858 55.4 97.5378 55.08C98.7111 54.76 99.8204 54.6 100.866 54.6C101.868 54.6 102.615 54.824 103.106 55.272C103.618 55.6987 103.874 56.2853 103.874 57.032C103.874 57.8 103.618 58.408 103.106 58.856C102.615 59.2827 101.868 59.5067 100.866 59.528C99.8204 59.5493 98.7111 59.4 97.5378 59.08C96.3644 58.76 95.2444 58.4827 94.1778 58.248V62.44C94.1778 62.8453 94.2844 63.1333 94.4978 63.304C94.7324 63.4533 95.0951 63.3893 95.5858 63.112C96.6524 62.4933 97.6978 62.0027 98.7218 61.64C99.7458 61.256 100.748 61.064 101.73 61.064C103.116 61.064 104.162 61.4267 104.866 62.152C105.591 62.8773 105.954 63.8267 105.954 65C105.954 66.2587 105.57 67.2293 104.802 67.912C104.055 68.5947 102.839 68.936 101.154 68.936H95.4258ZM117.313 69.064C115.223 69.064 113.335 68.6373 111.649 67.784C109.985 66.9093 108.673 65.6187 107.713 63.912C106.753 62.2053 106.273 60.104 106.273 57.608C106.273 55.112 106.753 52.9573 107.713 51.144C108.695 49.3307 110.028 47.944 111.713 46.984C113.42 46.0027 115.361 45.512 117.537 45.512C120.055 45.512 121.985 45.864 123.329 46.568C124.673 47.272 125.345 48.3173 125.345 49.704C125.345 50.7707 125.057 51.656 124.481 52.36C123.905 53.0427 123.116 53.384 122.113 53.384C121.26 53.384 120.428 53.2773 119.617 53.064C118.828 52.8293 117.9 52.712 116.833 52.712C115.468 52.712 114.391 53.1067 113.601 53.896C112.812 54.6853 112.417 55.72 112.417 57C112.417 58.2587 112.812 59.3147 113.601 60.168C114.391 61 115.468 61.416 116.833 61.416C117.559 61.416 118.22 61.3627 118.817 61.256C119.436 61.128 120.033 61 120.609 60.872C121.207 60.744 121.847 60.68 122.529 60.68C123.66 60.68 124.492 61.0533 125.025 61.8C125.559 62.5253 125.825 63.432 125.825 64.52C125.825 65.608 125.431 66.4933 124.641 67.176C123.852 67.8373 122.807 68.3173 121.505 68.616C120.225 68.9147 118.828 69.064 117.313 69.064ZM130.885 68.904C129.903 68.904 129.093 68.6053 128.453 68.008C127.813 67.4107 127.493 66.6533 127.493 65.736V48.808C127.493 47.8693 127.802 47.0907 128.421 46.472C129.039 45.832 129.85 45.512 130.853 45.512C131.919 45.512 132.751 45.832 133.349 46.472C133.946 47.0907 134.245 47.848 134.245 48.744V54.664H140.197V48.808C140.197 47.8693 140.506 47.0907 141.125 46.472C141.743 45.832 142.575 45.512 143.621 45.512C144.666 45.512 145.487 45.832 146.085 46.472C146.682 47.0907 146.981 47.848 146.981 48.744V65.736C146.981 66.6533 146.661 67.4107 146.021 68.008C145.402 68.6053 144.623 68.904 143.685 68.904C142.661 68.904 141.818 68.6053 141.157 68.008C140.517 67.4107 140.197 66.6533 140.197 65.736V59.368H134.245V65.736C134.245 66.6533 133.925 67.4107 133.285 68.008C132.666 68.6053 131.866 68.904 130.885 68.904Z" fill="white"></path>
</g><defs>
<clipPath id="clip0_214_6">
<rect width="174" height="80" fill="white"></rect>
</clipPath>
<clipPath id="SvgjsClipPath1037"><rect width="1000" height="1000" x="0" y="0" rx="350" ry="350"></rect></clipPath></defs></svg></g></g></svg></g><g id="dark-icon"><svg xmlns="http://www.w3.org/2000/svg" version="1.1" xmlns:xlink="http://www.w3.org/1999/xlink" width="1000" height="1000"><g clip-path="url(#SvgjsClipPath1038)"><rect width="1000" height="1000" fill="#000000"></rect><g transform="matrix(4.022988505747127,0,0,4.022988505747127,150,339.08045977011494)"><svg xmlns="http://www.w3.org/2000/svg" width="174" height="80" viewBox="0 0 174 80" fill="none"><g clip-path="url(#clip0_214_6)">
<path d="M57.056 74.912C56.672 75.04 56.32 74.944 56 74.624C55.744 74.368 55.52 74.048 55.328 73.664C55.2 73.28 55.072 72.864 54.944 72.416C54.816 71.968 54.752 71.52 54.752 71.072C54.752 70.752 54.752 70.432 54.752 70.112C54.752 69.792 54.688 69.504 54.56 69.248C54.496 68.992 54.432 68.736 54.368 68.48C54.368 68.288 54.368 68.096 54.368 67.904C54.304 67.2 54.048 66.528 53.6 65.888C53.536 65.888 53.504 65.888 53.504 65.888C53.504 65.824 53.504 65.792 53.504 65.792C52.992 65.088 52.576 64.352 52.256 63.584C52 62.816 51.808 62.016 51.68 61.184L50.816 56C50.752 55.616 50.688 55.264 50.624 54.944C50.56 54.56 50.464 54.176 50.336 53.792C50.272 53.28 50.176 52.8 50.048 52.352C49.92 51.904 49.792 51.456 49.664 51.008L49.088 48.896V48.608C49.024 48.16 48.928 47.712 48.8 47.264C48.672 46.816 48.576 46.368 48.512 45.92C48.448 45.408 48.352 44.928 48.224 44.48C48.16 43.968 48.064 43.488 47.936 43.04C47.936 42.784 47.84 42.56 47.648 42.368C47.52 42.112 47.36 41.856 47.168 41.6C47.168 41.536 47.104 41.44 46.976 41.312C46.208 40.8 45.344 40.608 44.384 40.736C44.128 40.736 43.936 40.768 43.808 40.832C43.168 40.96 42.528 41.152 41.888 41.408C41.248 41.664 40.608 41.952 39.968 42.272C39.712 42.4 39.552 42.496 39.488 42.56C39.168 42.816 38.816 43.04 38.432 43.232C38.048 43.36 37.664 43.488 37.28 43.616C36.32 44 35.36 44.448 34.4 44.96C33.504 45.472 32.608 45.984 31.712 46.496L31.136 46.976C30.816 47.232 30.464 47.52 30.08 47.84C29.696 48.096 29.312 48.32 28.928 48.512C28.352 48.896 28.064 49.408 28.064 50.048C27.936 50.944 28.064 51.808 28.448 52.64C28.768 53.472 28.992 54.432 29.12 55.52C29.12 55.904 29.152 56.192 29.216 56.384C29.344 56.576 29.408 56.8 29.408 57.056C29.472 57.248 29.536 57.44 29.6 57.632L29.888 59.456C30.08 60.736 29.888 61.952 29.312 63.104C29.248 63.168 29.152 63.328 29.024 63.584C28.448 64.544 28.064 65.6 27.872 66.752C27.808 67.072 27.712 67.392 27.584 67.712C27.456 67.968 27.264 68.256 27.008 68.576C26.752 68.896 26.368 69.088 25.856 69.152C25.344 69.216 24.896 68.992 24.512 68.48C24.256 68.032 24.064 67.456 23.936 66.752C23.808 66.112 23.68 65.6 23.552 65.216C23.424 64.704 23.2 64.32 22.88 64.064C22.368 63.36 21.888 62.464 21.44 61.376C21.184 60.672 20.992 59.968 20.864 59.264C20.736 58.56 20.608 57.856 20.48 57.152C20.288 56.192 20.096 55.232 19.904 54.272C19.712 53.312 19.488 52.352 19.232 51.392C19.04 50.56 18.816 49.76 18.56 48.992C18.368 48.16 18.176 47.328 17.984 46.496L16.256 39.392C16.192 38.688 16 38.016 15.68 37.376C15.552 36.864 15.392 36.352 15.2 35.84C15.008 35.264 14.848 34.72 14.72 34.208C14.656 34.016 14.592 33.824 14.528 33.632C14.464 33.376 14.4 33.152 14.336 32.96C14.272 32.64 14.176 32.32 14.048 32C13.984 31.68 13.856 31.36 13.664 31.04L13.376 29.984C13.248 29.472 13.12 28.96 12.992 28.448C12.864 27.936 12.736 27.456 12.608 27.008L12.512 26.624C12.512 26.24 12.48 25.856 12.416 25.472C12.352 25.088 12.288 24.672 12.224 24.224C12.224 24.16 12.192 24.128 12.128 24.128C12.128 24.064 12.128 24 12.128 23.936C12.064 23.04 12 22.144 11.936 21.248C11.872 20.288 11.84 19.36 11.84 18.464C11.776 17.888 11.776 17.536 11.84 17.408C11.904 17.28 12.064 16.992 12.32 16.544C12.512 16.224 12.736 15.872 12.992 15.488C12.992 15.36 13.056 15.296 13.184 15.296C13.44 15.232 13.664 15.136 13.856 15.008C14.048 14.816 14.24 14.656 14.432 14.528C15.136 14.08 16 13.856 17.024 13.856C17.216 13.856 17.344 13.888 17.408 13.952C17.6 14.016 17.76 14.08 17.888 14.144C18.08 14.208 18.272 14.304 18.464 14.432C18.848 14.56 19.168 14.784 19.424 15.104C19.744 15.424 20.032 15.744 20.288 16.064C20.736 17.024 20.992 17.92 21.056 18.752C21.184 19.52 21.376 20.288 21.632 21.056L21.92 22.4C22.048 23.04 22.208 23.68 22.4 24.32C22.592 24.96 22.752 25.6 22.88 26.24C23.072 27.136 23.232 28.064 23.36 29.024C23.552 29.92 23.744 30.816 23.936 31.712L24.224 33.44C24.224 33.504 24.224 33.6 24.224 33.728C24.288 33.792 24.32 33.856 24.32 33.92C24.448 34.24 24.64 34.4 24.896 34.4C25.536 34.464 26.176 34.528 26.816 34.592C27.456 34.656 28.096 34.624 28.736 34.496C29.824 34.368 30.88 34.208 31.904 34.016C32.928 33.824 33.952 33.632 34.976 33.44C36.32 33.184 37.632 32.928 38.912 32.672C40.256 32.352 41.6 32.032 42.944 31.712L44.864 31.232C45.184 31.104 45.344 30.88 45.344 30.56C45.28 30.368 45.248 30.176 45.248 29.984C45.248 29.792 45.216 29.6 45.152 29.408C44.832 28.512 44.64 27.68 44.576 26.912C44.512 26.592 44.448 26.272 44.384 25.952C44.32 25.568 44.256 25.216 44.192 24.896C44 23.808 43.808 22.72 43.616 21.632C43.488 20.48 43.36 19.36 43.232 18.272C43.168 17.76 43.104 17.28 43.04 16.832C43.04 16.32 42.976 15.84 42.848 15.392C42.784 14.688 42.72 13.984 42.656 13.28C42.656 12.512 42.656 11.808 42.656 11.168C42.656 11.04 42.656 10.912 42.656 10.784C42.72 10.656 42.784 10.528 42.848 10.4C42.912 10.144 42.976 9.92 43.04 9.72799C43.104 9.472 43.168 9.216 43.232 8.96C43.36 8.576 43.488 8.256 43.616 8C43.808 7.68 44 7.392 44.192 7.136C44.512 6.944 44.768 6.688 44.96 6.368C45.28 6.048 45.568 5.856 45.824 5.792L46.688 5.504C46.88 5.376 47.072 5.344 47.264 5.408C47.52 5.408 47.744 5.44 47.936 5.504C48.128 5.504 48.416 5.568 48.8 5.696C48.992 5.76 49.184 5.856 49.376 5.984C49.568 6.112 49.728 6.272 49.856 6.464C49.984 6.72 50.144 6.976 50.336 7.232C50.592 7.424 50.752 7.68 50.816 8C50.944 8.192 51.104 8.288 51.296 8.288C51.488 8.352 51.648 8.54399 51.776 8.86399C51.776 8.928 51.776 8.992 51.776 9.056C51.84 9.12 51.872 9.216 51.872 9.344C52 9.856 52.128 10.4 52.256 10.976C52.384 11.488 52.48 12 52.544 12.512C52.544 12.704 52.544 12.896 52.544 13.088C52.608 13.28 52.608 13.504 52.544 13.76V14.528C52.608 15.04 52.672 15.584 52.736 16.16C52.8 16.672 52.864 17.184 52.928 17.696C52.992 17.76 53.024 17.92 53.024 18.176C53.216 18.432 53.344 18.752 53.408 19.136C53.472 19.52 53.536 19.872 53.6 20.192C53.664 20.512 53.696 20.864 53.696 21.248C53.76 21.568 53.856 21.888 53.984 22.208C54.048 22.336 54.08 22.528 54.08 22.784C54.08 23.04 54.08 23.296 54.08 23.552C54.144 23.744 54.176 23.968 54.176 24.224C54.176 24.48 54.208 24.64 54.272 24.704C54.336 24.768 54.4 24.864 54.464 24.992C54.592 25.056 54.624 25.152 54.56 25.28C54.56 25.408 54.528 25.536 54.464 25.664C54.464 25.792 54.464 25.92 54.464 26.048V26.528C54.592 26.848 54.688 27.2 54.752 27.584C54.816 27.968 54.88 28.32 54.944 28.64C54.944 29.024 55.072 29.248 55.328 29.312L55.616 29.6C55.744 29.728 55.808 29.952 55.808 30.272C55.68 30.4 55.616 30.528 55.616 30.656C55.552 30.784 55.552 30.944 55.616 31.136C55.808 31.328 55.872 31.52 55.808 31.712C55.68 31.904 55.68 32.064 55.808 32.192C55.936 32.384 56 32.672 56 33.056V32.96C56.064 33.024 56.16 33.056 56.288 33.056C56.608 33.184 56.704 33.408 56.576 33.728C56.576 33.856 56.512 33.984 56.384 34.112C56.192 34.304 56.128 34.464 56.192 34.592C56.384 35.488 56.576 36.384 56.768 37.28C56.96 38.176 57.12 39.072 57.248 39.968L57.536 42.272C57.664 42.784 57.76 43.296 57.824 43.808C57.888 44.32 57.984 44.832 58.112 45.344C58.112 45.664 58.176 46.08 58.304 46.592C58.304 46.72 58.432 46.784 58.688 46.784C58.688 46.72 58.72 46.688 58.784 46.688C58.848 46.688 58.88 46.72 58.88 46.784C58.944 46.848 59.04 47.008 59.168 47.264L59.456 48.512C59.52 48.64 59.552 48.8 59.552 48.992C59.552 49.12 59.584 49.248 59.648 49.376C59.712 49.76 59.584 50.08 59.264 50.336C59.072 50.4 58.976 50.528 58.976 50.72C58.976 50.784 58.976 50.816 58.976 50.816C59.04 50.816 59.072 50.848 59.072 50.912C59.136 50.912 59.168 50.88 59.168 50.816H59.264C59.392 50.752 59.52 50.752 59.648 50.816C59.776 50.816 59.84 50.88 59.84 51.008C59.904 51.264 59.968 51.552 60.032 51.872C60.096 52.192 60.096 52.384 60.032 52.448C60.032 52.448 60 52.48 59.936 52.544C59.936 52.544 59.904 52.544 59.84 52.544C59.584 52.544 59.456 52.832 59.456 53.408C59.52 54.048 59.712 54.656 60.032 55.232L60.608 56.096C61.12 56.992 61.376 57.984 61.376 59.072C61.376 59.2 61.312 59.328 61.184 59.456C60.992 59.648 60.896 59.872 60.896 60.128C60.896 60.512 60.928 60.832 60.992 61.088C60.992 61.536 60.896 61.856 60.704 62.048C60.512 62.304 60.416 62.624 60.416 63.008C60.352 63.584 60.16 64.16 59.84 64.736C59.264 65.888 58.976 67.168 58.976 68.576C58.912 68.832 58.88 69.088 58.88 69.344C58.88 69.6 58.88 69.888 58.88 70.208C58.816 70.464 58.784 70.88 58.784 71.456V72.704C58.72 72.96 58.656 73.216 58.592 73.472C58.528 73.728 58.432 73.984 58.304 74.24C58.112 74.496 57.856 74.688 57.536 74.816C57.472 74.816 57.408 74.816 57.344 74.816C57.28 74.88 57.184 74.912 57.056 74.912Z" fill="white"></path>
<path d="M78.428 37.108C76.82 37.108 75.488 36.796 74.432 36.172C73.4 35.548 72.548 34.648 71.876 33.472C71.228 32.296 70.64 30.868 70.112 29.188L66.08 16.264C65.696 15.064 65.72 14.02 66.152 13.132C66.608 12.22 67.412 11.596 68.564 11.26C69.62 10.948 70.58 11.02 71.444 11.476C72.308 11.908 72.896 12.652 73.208 13.708L77.132 26.164C77.54 27.508 78.056 28.408 78.68 28.864C79.328 29.296 80.024 29.392 80.768 29.152C81.536 28.936 82.028 28.504 82.244 27.856C82.46 27.184 82.4 26.176 82.064 24.832C81.512 22.432 81.14 20.548 80.948 19.18C80.756 17.812 80.66 16.732 80.66 15.94C80.66 14.596 81.02 13.444 81.74 12.484C82.484 11.5 83.624 11.008 85.16 11.008C86.672 11.008 87.764 11.5 88.436 12.484C89.132 13.444 89.48 14.596 89.48 15.94C89.48 16.732 89.372 17.548 89.156 18.388C88.94 19.228 88.688 20.092 88.4 20.98L85.196 30.664C84.764 31.96 84.284 33.1 83.756 34.084C83.252 35.044 82.58 35.788 81.74 36.316C80.924 36.844 79.82 37.108 78.428 37.108ZM95.2085 37.072C94.1045 37.072 93.2045 36.736 92.5085 36.064C91.8125 35.392 91.4645 34.54 91.4645 33.508V14.464C91.4645 13.408 91.8005 12.52 92.4725 11.8C93.1685 11.08 94.0805 10.72 95.2085 10.72C96.4085 10.72 97.3445 11.08 98.0165 11.8C98.7125 12.496 99.0605 13.36 99.0605 14.392V33.508C99.0605 34.54 98.6885 35.392 97.9445 36.064C97.2245 36.736 96.3125 37.072 95.2085 37.072ZM109.155 36.964C108.051 36.916 107.019 36.76 106.059 36.496C105.123 36.232 104.295 35.788 103.575 35.164C102.855 34.516 102.291 33.628 101.883 32.5C101.499 31.372 101.307 29.932 101.307 28.18C101.307 26.476 101.535 25 101.991 23.752C102.471 22.504 103.035 21.508 103.683 20.764C104.331 20.02 104.919 19.564 105.447 19.396L105.267 18.712H104.655C103.551 18.712 102.675 18.364 102.027 17.668C101.403 16.948 101.079 15.988 101.055 14.788C101.031 13.588 101.343 12.628 101.991 11.908C102.663 11.164 103.551 10.792 104.655 10.792H114.555C117.147 10.792 119.019 11.416 120.171 12.664C121.323 13.888 121.899 15.484 121.899 17.452C121.899 19.036 121.527 20.356 120.783 21.412C120.063 22.468 118.971 23.104 117.507 23.32V23.86C119.091 23.932 120.375 24.484 121.359 25.516C122.367 26.524 122.871 28.024 122.871 30.016C122.871 32.176 122.247 33.892 120.999 35.164C119.751 36.412 117.699 37.024 114.843 37L109.155 36.964ZM108.183 20.8C108.183 21.328 108.279 21.676 108.471 21.844C108.663 22.012 109.023 22.096 109.551 22.096H112.863C113.775 22.096 114.471 21.964 114.951 21.7C115.431 21.412 115.671 20.86 115.671 20.044C115.671 19.204 115.431 18.652 114.951 18.388C114.471 18.124 113.775 17.992 112.863 17.992H109.551C109.023 17.992 108.663 18.064 108.471 18.208C108.279 18.352 108.183 18.7 108.183 19.252V20.8ZM108.183 28.036C108.183 28.564 108.279 28.924 108.471 29.116C108.687 29.308 109.071 29.404 109.623 29.404H113.331C114.267 29.404 114.987 29.236 115.491 28.9C115.995 28.564 116.247 27.964 116.247 27.1C116.247 26.236 115.995 25.648 115.491 25.336C114.987 25 114.267 24.832 113.331 24.832H109.623C109.071 24.832 108.687 24.916 108.471 25.084C108.279 25.252 108.183 25.6 108.183 26.128V28.036ZM133.331 36.928C132.155 36.928 131.027 36.82 129.947 36.604C128.891 36.388 127.955 35.98 127.139 35.38C126.347 34.756 125.711 33.868 125.231 32.716C124.775 31.54 124.547 30.004 124.547 28.108C124.547 26.404 124.775 24.94 125.231 23.716C125.687 22.492 126.227 21.52 126.851 20.8C127.499 20.08 128.087 19.636 128.615 19.468L128.435 18.784H127.823C126.719 18.784 125.843 18.436 125.195 17.74C124.571 17.02 124.247 16.048 124.223 14.824C124.199 13.624 124.511 12.664 125.159 11.944C125.831 11.224 126.719 10.864 127.823 10.864H140.747C143.315 10.864 144.599 12.064 144.599 14.464C144.599 15.544 144.287 16.408 143.663 17.056C143.039 17.704 142.067 18.028 140.747 18.028H133.295C132.407 18.028 131.963 18.544 131.963 19.576V22.276C133.163 22.012 134.411 21.7 135.707 21.34C137.027 20.98 138.275 20.8 139.451 20.8C140.579 20.8 141.419 21.052 141.971 21.556C142.547 22.036 142.835 22.696 142.835 23.536C142.835 24.4 142.547 25.084 141.971 25.588C141.419 26.068 140.579 26.32 139.451 26.344C138.275 26.368 137.027 26.2 135.707 25.84C134.387 25.48 133.127 25.168 131.927 24.904V29.62C131.927 30.076 132.047 30.4 132.287 30.592C132.551 30.76 132.959 30.688 133.511 30.376C134.711 29.68 135.887 29.128 137.039 28.72C138.191 28.288 139.319 28.072 140.423 28.072C141.983 28.072 143.159 28.48 143.951 29.296C144.767 30.112 145.175 31.18 145.175 32.5C145.175 33.916 144.743 35.008 143.879 35.776C143.039 36.544 141.671 36.928 139.775 36.928H133.331Z" fill="white"></path>
<path d="M68.904 52.808C67.8373 52.808 66.9627 52.4987 66.28 51.88C65.6187 51.2613 65.288 50.408 65.288 49.32C65.288 48.2533 65.5867 47.4 66.184 46.76C66.8027 46.0987 67.7093 45.768 68.904 45.768H82.696C83.8907 45.768 84.7867 46.0987 85.384 46.76C86.0027 47.4 86.312 48.2533 86.312 49.32C86.312 50.408 85.9707 51.2613 85.288 51.88C84.6267 52.4987 83.7627 52.808 82.696 52.808C81.9707 52.808 81.384 52.7333 80.936 52.584C80.5093 52.4133 80.1573 52.2213 79.88 52.008C79.6027 51.7733 79.336 51.5813 79.08 51.432C78.824 51.2613 78.504 51.176 78.12 51.176L77.832 51.752C77.9173 51.944 78.0667 52.2213 78.28 52.584C78.4933 52.9253 78.696 53.4267 78.888 54.088C79.08 54.728 79.176 55.6027 79.176 56.712V65.96C79.176 66.8347 78.8453 67.56 78.184 68.136C77.544 68.712 76.7547 69 75.816 69C74.856 69 74.0453 68.712 73.384 68.136C72.744 67.56 72.424 66.8347 72.424 65.96V56.712C72.424 55.6027 72.52 54.728 72.712 54.088C72.904 53.4267 73.1067 52.9253 73.32 52.584C73.5547 52.2213 73.7147 51.944 73.8 51.752L73.48 51.176C73.096 51.176 72.776 51.2613 72.52 51.432C72.264 51.5813 71.9973 51.7733 71.72 52.008C71.4427 52.2213 71.0907 52.4133 70.664 52.584C70.2373 52.7333 69.6507 52.808 68.904 52.808ZM95.4258 68.936C94.3804 68.936 93.3778 68.84 92.4178 68.648C91.4791 68.456 90.6471 68.0933 89.9218 67.56C89.2178 67.0053 88.6524 66.216 88.2258 65.192C87.8204 64.1467 87.6178 62.7813 87.6178 61.096C87.6178 59.5813 87.8204 58.28 88.2258 57.192C88.6311 56.104 89.1111 55.24 89.6658 54.6C90.2418 53.96 90.7644 53.5653 91.2338 53.416L91.0738 52.808H90.5298C89.5484 52.808 88.7698 52.4987 88.1938 51.88C87.6391 51.24 87.3511 50.376 87.3298 49.288C87.3084 48.2213 87.5858 47.368 88.1618 46.728C88.7591 46.088 89.5484 45.768 90.5298 45.768H102.018C104.3 45.768 105.442 46.8347 105.442 48.968C105.442 49.928 105.164 50.696 104.61 51.272C104.055 51.848 103.191 52.136 102.018 52.136H95.3938C94.6044 52.136 94.2098 52.5947 94.2098 53.512V55.912C95.2764 55.6773 96.3858 55.4 97.5378 55.08C98.7111 54.76 99.8204 54.6 100.866 54.6C101.868 54.6 102.615 54.824 103.106 55.272C103.618 55.6987 103.874 56.2853 103.874 57.032C103.874 57.8 103.618 58.408 103.106 58.856C102.615 59.2827 101.868 59.5067 100.866 59.528C99.8204 59.5493 98.7111 59.4 97.5378 59.08C96.3644 58.76 95.2444 58.4827 94.1778 58.248V62.44C94.1778 62.8453 94.2844 63.1333 94.4978 63.304C94.7324 63.4533 95.0951 63.3893 95.5858 63.112C96.6524 62.4933 97.6978 62.0027 98.7218 61.64C99.7458 61.256 100.748 61.064 101.73 61.064C103.116 61.064 104.162 61.4267 104.866 62.152C105.591 62.8773 105.954 63.8267 105.954 65C105.954 66.2587 105.57 67.2293 104.802 67.912C104.055 68.5947 102.839 68.936 101.154 68.936H95.4258ZM117.313 69.064C115.223 69.064 113.335 68.6373 111.649 67.784C109.985 66.9093 108.673 65.6187 107.713 63.912C106.753 62.2053 106.273 60.104 106.273 57.608C106.273 55.112 106.753 52.9573 107.713 51.144C108.695 49.3307 110.028 47.944 111.713 46.984C113.42 46.0027 115.361 45.512 117.537 45.512C120.055 45.512 121.985 45.864 123.329 46.568C124.673 47.272 125.345 48.3173 125.345 49.704C125.345 50.7707 125.057 51.656 124.481 52.36C123.905 53.0427 123.116 53.384 122.113 53.384C121.26 53.384 120.428 53.2773 119.617 53.064C118.828 52.8293 117.9 52.712 116.833 52.712C115.468 52.712 114.391 53.1067 113.601 53.896C112.812 54.6853 112.417 55.72 112.417 57C112.417 58.2587 112.812 59.3147 113.601 60.168C114.391 61 115.468 61.416 116.833 61.416C117.559 61.416 118.22 61.3627 118.817 61.256C119.436 61.128 120.033 61 120.609 60.872C121.207 60.744 121.847 60.68 122.529 60.68C123.66 60.68 124.492 61.0533 125.025 61.8C125.559 62.5253 125.825 63.432 125.825 64.52C125.825 65.608 125.431 66.4933 124.641 67.176C123.852 67.8373 122.807 68.3173 121.505 68.616C120.225 68.9147 118.828 69.064 117.313 69.064ZM130.885 68.904C129.903 68.904 129.093 68.6053 128.453 68.008C127.813 67.4107 127.493 66.6533 127.493 65.736V48.808C127.493 47.8693 127.802 47.0907 128.421 46.472C129.039 45.832 129.85 45.512 130.853 45.512C131.919 45.512 132.751 45.832 133.349 46.472C133.946 47.0907 134.245 47.848 134.245 48.744V54.664H140.197V48.808C140.197 47.8693 140.506 47.0907 141.125 46.472C141.743 45.832 142.575 45.512 143.621 45.512C144.666 45.512 145.487 45.832 146.085 46.472C146.682 47.0907 146.981 47.848 146.981 48.744V65.736C146.981 66.6533 146.661 67.4107 146.021 68.008C145.402 68.6053 144.623 68.904 143.685 68.904C142.661 68.904 141.818 68.6053 141.157 68.008C140.517 67.4107 140.197 66.6533 140.197 65.736V59.368H134.245V65.736C134.245 66.6533 133.925 67.4107 133.285 68.008C132.666 68.6053 131.866 68.904 130.885 68.904Z" fill="white"></path>
</g><defs>
<clipPath id="clip0_214_6">
<rect width="174" height="80" fill="white"></rect>
</clipPath>
<clipPath id="SvgjsClipPath1038"><rect width="1000" height="1000" x="0" y="0" rx="350" ry="350"></rect></clipPath></defs></svg></g></g></svg></g></svg>