<svg viewBox="0 0 400 320" xmlns="http://www.w3.org/2000/svg">
  <defs>
    <linearGradient id="conv-grad-1" x1="0%" y1="0%" x2="100%" y2="100%">
      <stop offset="0%" style="stop-color:#3b82f6;stop-opacity:1" />
      <stop offset="100%" style="stop-color:#a78bfa;stop-opacity:1" />
    </linearGradient>
    <linearGradient id="conv-grad-2" x1="100%" y1="0%" x2="0%" y2="100%">
      <stop offset="0%" style="stop-color:#a78bfa;stop-opacity:1" />
      <stop offset="100%" style="stop-color:#3b82f6;stop-opacity:1" />
    </linearGradient>
    <filter id="conv-glow">
      <feGaussianBlur stdDeviation="1.5" result="coloredBlur"/>
      <feMerge>
        <feMergeNode in="coloredBlur"/>
        <feMergeNode in="SourceGraphic"/>
      </feMerge>
    </filter>
  </defs>
  
  <!-- Document stack - Left -->
  <rect x="40" y="50" width="75" height="85" rx="6" fill="url(#conv-grad-1)" opacity="0.8" filter="url(#conv-glow)"/>
  <rect x="52" y="62" width="51" height="8" rx="1.5" fill="#111827" opacity="0.6"/>
  <rect x="52" y="76" width="51" height="6" rx="1" fill="#111827" opacity="0.5"/>
  <rect x="52" y="86" width="51" height="6" rx="1" fill="#111827" opacity="0.5"/>
  <rect x="52" y="96" width="35" height="6" rx="1" fill="#111827" opacity="0.5"/>
  <rect x="52" y="106" width="35" height="6" rx="1" fill="#111827" opacity="0.5"/>
  
  <!-- Document stack - Center -->
  <rect x="162" y="65" width="75" height="85" rx="6" fill="url(#conv-grad-2)" opacity="0.8" filter="url(#conv-glow)"/>
  <rect x="174" y="77" width="51" height="8" rx="1.5" fill="#111827" opacity="0.6"/>
  <rect x="174" y="91" width="51" height="6" rx="1" fill="#111827" opacity="0.5"/>
  <rect x="174" y="101" width="51" height="6" rx="1" fill="#111827" opacity="0.5"/>
  <rect x="174" y="111" width="35" height="6" rx="1" fill="#111827" opacity="0.5"/>
  <rect x="174" y="121" width="35" height="6" rx="1" fill="#111827" opacity="0.5"/>
  
  <!-- Document stack - Right -->
  <rect x="284" y="80" width="75" height="85" rx="6" fill="url(#conv-grad-1)" opacity="0.8" filter="url(#conv-glow)"/>
  <rect x="296" y="92" width="51" height="8" rx="1.5" fill="#111827" opacity="0.6"/>
  <rect x="296" y="106" width="51" height="6" rx="1" fill="#111827" opacity="0.5"/>
  <rect x="296" y="116" width="51" height="6" rx="1" fill="#111827" opacity="0.5"/>
  <rect x="296" y="126" width="35" height="6" rx="1" fill="#111827" opacity="0.5"/>
  <rect x="296" y="136" width="35" height="6" rx="1" fill="#111827" opacity="0.5"/>
  
  <!-- Bottom conversion indicators -->
  <circle cx="77" cy="245" r="11" fill="url(#conv-grad-2)" opacity="0.7" filter="url(#conv-glow)"/>
  <circle cx="77" cy="245" r="6" fill="#111827" opacity="0.6"/>
  
  <circle cx="199" cy="245" r="11" fill="url(#conv-grad-1)" opacity="0.7" filter="url(#conv-glow)"/>
  <circle cx="199" cy="245" r="6" fill="#111827" opacity="0.6"/>
  
  <circle cx="321" cy="245" r="11" fill="url(#conv-grad-2)" opacity="0.7" filter="url(#conv-glow)"/>
  <circle cx="321" cy="245" r="6" fill="#111827" opacity="0.6"/>
  
  <!-- Connecting lines -->
  <line x1="77" y1="145" x2="77" y2="234" stroke="#3b82f6" stroke-width="1.5" opacity="0.3" stroke-dasharray="4,4"/>
  <line x1="199" y1="160" x2="199" y2="234" stroke="#a78bfa" stroke-width="1.5" opacity="0.3" stroke-dasharray="4,4"/>
  <line x1="321" y1="175" x2="321" y2="234" stroke="#3b82f6" stroke-width="1.5" opacity="0.3" stroke-dasharray="4,4"/>
</svg>
