<svg width="174" height="80" viewBox="0 0 174 80" fill="none" xmlns="http://www.w3.org/2000/svg">
<g clip-path="url(#clip0_214_6)">
<path d="M57.056 74.912C56.672 75.04 56.32 74.944 56 74.624C55.744 74.368 55.52 74.048 55.328 73.664C55.2 73.28 55.072 72.864 54.944 72.416C54.816 71.968 54.752 71.52 54.752 71.072C54.752 70.752 54.752 70.432 54.752 70.112C54.752 69.792 54.688 69.504 54.56 69.248C54.496 68.992 54.432 68.736 54.368 68.48C54.368 68.288 54.368 68.096 54.368 67.904C54.304 67.2 54.048 66.528 53.6 65.888C53.536 65.888 53.504 65.888 53.504 65.888C53.504 65.824 53.504 65.792 53.504 65.792C52.992 65.088 52.576 64.352 52.256 63.584C52 62.816 51.808 62.016 51.68 61.184L50.816 56C50.752 55.616 50.688 55.264 50.624 54.944C50.56 54.56 50.464 54.176 50.336 53.792C50.272 53.28 50.176 52.8 50.048 52.352C49.92 51.904 49.792 51.456 49.664 51.008L49.088 48.896V48.608C49.024 48.16 48.928 47.712 48.8 47.264C48.672 46.816 48.576 46.368 48.512 45.92C48.448 45.408 48.352 44.928 48.224 44.48C48.16 43.968 48.064 43.488 47.936 43.04C47.936 42.784 47.84 42.56 47.648 42.368C47.52 42.112 47.36 41.856 47.168 41.6C47.168 41.536 47.104 41.44 46.976 41.312C46.208 40.8 45.344 40.608 44.384 40.736C44.128 40.736 43.936 40.768 43.808 40.832C43.168 40.96 42.528 41.152 41.888 41.408C41.248 41.664 40.608 41.952 39.968 42.272C39.712 42.4 39.552 42.496 39.488 42.56C39.168 42.816 38.816 43.04 38.432 43.232C38.048 43.36 37.664 43.488 37.28 43.616C36.32 44 35.36 44.448 34.4 44.96C33.504 45.472 32.608 45.984 31.712 46.496L31.136 46.976C30.816 47.232 30.464 47.52 30.08 47.84C29.696 48.096 29.312 48.32 28.928 48.512C28.352 48.896 28.064 49.408 28.064 50.048C27.936 50.944 28.064 51.808 28.448 52.64C28.768 53.472 28.992 54.432 29.12 55.52C29.12 55.904 29.152 56.192 29.216 56.384C29.344 56.576 29.408 56.8 29.408 57.056C29.472 57.248 29.536 57.44 29.6 57.632L29.888 59.456C30.08 60.736 29.888 61.952 29.312 63.104C29.248 63.168 29.152 63.328 29.024 63.584C28.448 64.544 28.064 65.6 27.872 66.752C27.808 67.072 27.712 67.392 27.584 67.712C27.456 67.968 27.264 68.256 27.008 68.576C26.752 68.896 26.368 69.088 25.856 69.152C25.344 69.216 24.896 68.992 24.512 68.48C24.256 68.032 24.064 67.456 23.936 66.752C23.808 66.112 23.68 65.6 23.552 65.216C23.424 64.704 23.2 64.32 22.88 64.064C22.368 63.36 21.888 62.464 21.44 61.376C21.184 60.672 20.992 59.968 20.864 59.264C20.736 58.56 20.608 57.856 20.48 57.152C20.288 56.192 20.096 55.232 19.904 54.272C19.712 53.312 19.488 52.352 19.232 51.392C19.04 50.56 18.816 49.76 18.56 48.992C18.368 48.16 18.176 47.328 17.984 46.496L16.256 39.392C16.192 38.688 16 38.016 15.68 37.376C15.552 36.864 15.392 36.352 15.2 35.84C15.008 35.264 14.848 34.72 14.72 34.208C14.656 34.016 14.592 33.824 14.528 33.632C14.464 33.376 14.4 33.152 14.336 32.96C14.272 32.64 14.176 32.32 14.048 32C13.984 31.68 13.856 31.36 13.664 31.04L13.376 29.984C13.248 29.472 13.12 28.96 12.992 28.448C12.864 27.936 12.736 27.456 12.608 27.008L12.512 26.624C12.512 26.24 12.48 25.856 12.416 25.472C12.352 25.088 12.288 24.672 12.224 24.224C12.224 24.16 12.192 24.128 12.128 24.128C12.128 24.064 12.128 24 12.128 23.936C12.064 23.04 12 22.144 11.936 21.248C11.872 20.288 11.84 19.36 11.84 18.464C11.776 17.888 11.776 17.536 11.84 17.408C11.904 17.28 12.064 16.992 12.32 16.544C12.512 16.224 12.736 15.872 12.992 15.488C12.992 15.36 13.056 15.296 13.184 15.296C13.44 15.232 13.664 15.136 13.856 15.008C14.048 14.816 14.24 14.656 14.432 14.528C15.136 14.08 16 13.856 17.024 13.856C17.216 13.856 17.344 13.888 17.408 13.952C17.6 14.016 17.76 14.08 17.888 14.144C18.08 14.208 18.272 14.304 18.464 14.432C18.848 14.56 19.168 14.784 19.424 15.104C19.744 15.424 20.032 15.744 20.288 16.064C20.736 17.024 20.992 17.92 21.056 18.752C21.184 19.52 21.376 20.288 21.632 21.056L21.92 22.4C22.048 23.04 22.208 23.68 22.4 24.32C22.592 24.96 22.752 25.6 22.88 26.24C23.072 27.136 23.232 28.064 23.36 29.024C23.552 29.92 23.744 30.816 23.936 31.712L24.224 33.44C24.224 33.504 24.224 33.6 24.224 33.728C24.288 33.792 24.32 33.856 24.32 33.92C24.448 34.24 24.64 34.4 24.896 34.4C25.536 34.464 26.176 34.528 26.816 34.592C27.456 34.656 28.096 34.624 28.736 34.496C29.824 34.368 30.88 34.208 31.904 34.016C32.928 33.824 33.952 33.632 34.976 33.44C36.32 33.184 37.632 32.928 38.912 32.672C40.256 32.352 41.6 32.032 42.944 31.712L44.864 31.232C45.184 31.104 45.344 30.88 45.344 30.56C45.28 30.368 45.248 30.176 45.248 29.984C45.248 29.792 45.216 29.6 45.152 29.408C44.832 28.512 44.64 27.68 44.576 26.912C44.512 26.592 44.448 26.272 44.384 25.952C44.32 25.568 44.256 25.216 44.192 24.896C44 23.808 43.808 22.72 43.616 21.632C43.488 20.48 43.36 19.36 43.232 18.272C43.168 17.76 43.104 17.28 43.04 16.832C43.04 16.32 42.976 15.84 42.848 15.392C42.784 14.688 42.72 13.984 42.656 13.28C42.656 12.512 42.656 11.808 42.656 11.168C42.656 11.04 42.656 10.912 42.656 10.784C42.72 10.656 42.784 10.528 42.848 10.4C42.912 10.144 42.976 9.92 43.04 9.72799C43.104 9.472 43.168 9.216 43.232 8.96C43.36 8.576 43.488 8.256 43.616 8C43.808 7.68 44 7.392 44.192 7.136C44.512 6.944 44.768 6.688 44.96 6.368C45.28 6.048 45.568 5.856 45.824 5.792L46.688 5.504C46.88 5.376 47.072 5.344 47.264 5.408C47.52 5.408 47.744 5.44 47.936 5.504C48.128 5.504 48.416 5.568 48.8 5.696C48.992 5.76 49.184 5.856 49.376 5.984C49.568 6.112 49.728 6.272 49.856 6.464C49.984 6.72 50.144 6.976 50.336 7.232C50.592 7.424 50.752 7.68 50.816 8C50.944 8.192 51.104 8.288 51.296 8.288C51.488 8.352 51.648 8.54399 51.776 8.86399C51.776 8.928 51.776 8.992 51.776 9.056C51.84 9.12 51.872 9.216 51.872 9.344C52 9.856 52.128 10.4 52.256 10.976C52.384 11.488 52.48 12 52.544 12.512C52.544 12.704 52.544 12.896 52.544 13.088C52.608 13.28 52.608 13.504 52.544 13.76V14.528C52.608 15.04 52.672 15.584 52.736 16.16C52.8 16.672 52.864 17.184 52.928 17.696C52.992 17.76 53.024 17.92 53.024 18.176C53.216 18.432 53.344 18.752 53.408 19.136C53.472 19.52 53.536 19.872 53.6 20.192C53.664 20.512 53.696 20.864 53.696 21.248C53.76 21.568 53.856 21.888 53.984 22.208C54.048 22.336 54.08 22.528 54.08 22.784C54.08 23.04 54.08 23.296 54.08 23.552C54.144 23.744 54.176 23.968 54.176 24.224C54.176 24.48 54.208 24.64 54.272 24.704C54.336 24.768 54.4 24.864 54.464 24.992C54.592 25.056 54.624 25.152 54.56 25.28C54.56 25.408 54.528 25.536 54.464 25.664C54.464 25.792 54.464 25.92 54.464 26.048V26.528C54.592 26.848 54.688 27.2 54.752 27.584C54.816 27.968 54.88 28.32 54.944 28.64C54.944 29.024 55.072 29.248 55.328 29.312L55.616 29.6C55.744 29.728 55.808 29.952 55.808 30.272C55.68 30.4 55.616 30.528 55.616 30.656C55.552 30.784 55.552 30.944 55.616 31.136C55.808 31.328 55.872 31.52 55.808 31.712C55.68 31.904 55.68 32.064 55.808 32.192C55.936 32.384 56 32.672 56 33.056V32.96C56.064 33.024 56.16 33.056 56.288 33.056C56.608 33.184 56.704 33.408 56.576 33.728C56.576 33.856 56.512 33.984 56.384 34.112C56.192 34.304 56.128 34.464 56.192 34.592C56.384 35.488 56.576 36.384 56.768 37.28C56.96 38.176 57.12 39.072 57.248 39.968L57.536 42.272C57.664 42.784 57.76 43.296 57.824 43.808C57.888 44.32 57.984 44.832 58.112 45.344C58.112 45.664 58.176 46.08 58.304 46.592C58.304 46.72 58.432 46.784 58.688 46.784C58.688 46.72 58.72 46.688 58.784 46.688C58.848 46.688 58.88 46.72 58.88 46.784C58.944 46.848 59.04 47.008 59.168 47.264L59.456 48.512C59.52 48.64 59.552 48.8 59.552 48.992C59.552 49.12 59.584 49.248 59.648 49.376C59.712 49.76 59.584 50.08 59.264 50.336C59.072 50.4 58.976 50.528 58.976 50.72C58.976 50.784 58.976 50.816 58.976 50.816C59.04 50.816 59.072 50.848 59.072 50.912C59.136 50.912 59.168 50.88 59.168 50.816H59.264C59.392 50.752 59.52 50.752 59.648 50.816C59.776 50.816 59.84 50.88 59.84 51.008C59.904 51.264 59.968 51.552 60.032 51.872C60.096 52.192 60.096 52.384 60.032 52.448C60.032 52.448 60 52.48 59.936 52.544C59.936 52.544 59.904 52.544 59.84 52.544C59.584 52.544 59.456 52.832 59.456 53.408C59.52 54.048 59.712 54.656 60.032 55.232L60.608 56.096C61.12 56.992 61.376 57.984 61.376 59.072C61.376 59.2 61.312 59.328 61.184 59.456C60.992 59.648 60.896 59.872 60.896 60.128C60.896 60.512 60.928 60.832 60.992 61.088C60.992 61.536 60.896 61.856 60.704 62.048C60.512 62.304 60.416 62.624 60.416 63.008C60.352 63.584 60.16 64.16 59.84 64.736C59.264 65.888 58.976 67.168 58.976 68.576C58.912 68.832 58.88 69.088 58.88 69.344C58.88 69.6 58.88 69.888 58.88 70.208C58.816 70.464 58.784 70.88 58.784 71.456V72.704C58.72 72.96 58.656 73.216 58.592 73.472C58.528 73.728 58.432 73.984 58.304 74.24C58.112 74.496 57.856 74.688 57.536 74.816C57.472 74.816 57.408 74.816 57.344 74.816C57.28 74.88 57.184 74.912 57.056 74.912Z" fill="white"/>
<path d="M78.76 30.208L84.328 14.208H81.832V13.6H86.728V14.208H85.224L77.512 36.32H74.824L66.664 14.208H65.192V13.6H75.656V14.208H73.384L78.76 30.208ZM87.7063 13.6H97.4663V14.208H95.7063V35.392H97.4663V36H87.7063V35.392H89.4663V14.208H87.7063V13.6ZM98.9533 13.6H108.521C111.487 13.6 113.705 14.0053 115.177 14.816C116.671 15.6053 117.417 16.9493 117.417 18.848C117.417 21.7707 115.657 23.52 112.137 24.096V24.16C116.404 24.6933 118.537 26.5493 118.537 29.728C118.537 32.0533 117.663 33.6853 115.913 34.624C114.164 35.5413 111.647 36 108.361 36H98.9533V35.392H101.033V14.208H98.9533V13.6ZM107.273 24.672V35.392H108.777C109.951 35.392 110.772 34.9867 111.241 34.176C111.711 33.3653 111.945 32.1707 111.945 30.592V28.896C111.945 27.488 111.657 26.432 111.081 25.728C110.505 25.024 109.481 24.672 108.009 24.672H107.273ZM107.273 14.208V24.064H108.105C109.215 24.064 109.983 23.7333 110.409 23.072C110.857 22.3893 111.081 21.3547 111.081 19.968V18.464C111.081 16.8853 110.889 15.7867 110.505 15.168C110.121 14.528 109.385 14.208 108.297 14.208H107.273ZM120.047 13.6H136.687L137.007 19.936H136.431C135.535 17.7813 134.596 16.3093 133.615 15.52C132.634 14.7093 131.194 14.304 129.295 14.304H128.175V24.192H129.263C130.266 24.192 131.108 23.8187 131.791 23.072C132.474 22.304 132.954 21.28 133.231 20H133.711V29.472H133.167C132.783 27.872 132.26 26.7307 131.599 26.048C130.959 25.3653 130.074 25.024 128.943 25.024H128.175V35.296H129.391C131.354 35.296 133.018 34.7093 134.383 33.536C135.77 32.3627 136.719 30.8587 137.231 29.024H137.871L137.615 36H120.047V35.296H121.935V14.304H120.047V13.6Z" fill="white"/>
<path d="M85.352 43.6L85.672 51.632H85.064C84.1253 48.7947 83.2933 46.864 82.568 45.84C81.8427 44.7947 80.7973 44.272 79.432 44.272H79.048V65.328H81.768V66H70.088V65.328H72.808V44.272H72.392C71.0267 44.272 69.9707 44.816 69.224 45.904C68.4773 46.9707 67.656 48.88 66.76 51.632H66.152L66.472 43.6H85.352ZM87.5158 43.6H104.156L104.476 49.936H103.9C103.004 47.7813 102.065 46.3093 101.084 45.52C100.102 44.7093 98.6624 44.304 96.7638 44.304H95.6438V54.192H96.7318C97.7344 54.192 98.5771 53.8187 99.2598 53.072C99.9424 52.304 100.422 51.28 100.7 50H101.18V59.472H100.636C100.252 57.872 99.7291 56.7307 99.0678 56.048C98.4278 55.3653 97.5424 55.024 96.4118 55.024H95.6438V65.296H96.8598C98.8224 65.296 100.486 64.7093 101.852 63.536C103.238 62.3627 104.188 60.8587 104.7 59.024H105.34L105.084 66H87.5158V65.296H89.4038V44.304H87.5158V43.6ZM118.8 43.888C115.493 43.888 113.84 47.0773 113.84 53.456V55.984C113.84 59.0133 114.277 61.392 115.152 63.12C116.027 64.8267 117.317 65.68 119.024 65.68C121.371 65.68 123.525 63.3973 125.488 58.832H126.064L125.84 65.968H125.488C125.36 65.7333 125.243 65.5733 125.136 65.488C125.029 65.3813 124.869 65.328 124.656 65.328C124.464 65.328 123.696 65.4987 122.352 65.84C121.008 66.16 119.643 66.32 118.256 66.32C114.779 66.32 112.08 65.3813 110.16 63.504C108.261 61.6267 107.312 58.8107 107.312 55.056C107.312 51.28 108.304 48.368 110.288 46.32C112.293 44.272 114.981 43.248 118.352 43.248C119.653 43.248 120.923 43.4187 122.16 43.76C123.419 44.08 124.155 44.24 124.368 44.24C124.581 44.24 124.741 44.1973 124.848 44.112C124.955 44.0053 125.072 43.8347 125.2 43.6H125.552L125.808 50.544H125.232C124.272 48.3893 123.28 46.7467 122.256 45.616C121.253 44.464 120.101 43.888 118.8 43.888ZM128.766 43.6H138.75V44.208H136.894V54.128H143.262V44.208H141.374V43.6H151.39V44.208H149.502V65.392H151.39V66H141.374V65.392H143.262V54.96H136.894V65.392H138.75V66H128.766V65.392H130.654V44.208H128.766V43.6Z" fill="white"/>
</g>
<defs>
<clipPath id="clip0_214_6">
<rect width="174" height="80" fill="white"/>
</clipPath>
</defs>
</svg>
