<svg width="174" height="80" viewBox="0 0 174 80" fill="none" xmlns="http://www.w3.org/2000/svg">
<g clip-path="url(#clip0_214_6)">
<path d="M57.056 74.912C56.672 75.04 56.32 74.944 56 74.624C55.744 74.368 55.52 74.048 55.328 73.664C55.2 73.28 55.072 72.864 54.944 72.416C54.816 71.968 54.752 71.52 54.752 71.072C54.752 70.752 54.752 70.432 54.752 70.112C54.752 69.792 54.688 69.504 54.56 69.248C54.496 68.992 54.432 68.736 54.368 68.48C54.368 68.288 54.368 68.096 54.368 67.904C54.304 67.2 54.048 66.528 53.6 65.888C53.536 65.888 53.504 65.888 53.504 65.888C53.504 65.824 53.504 65.792 53.504 65.792C52.992 65.088 52.576 64.352 52.256 63.584C52 62.816 51.808 62.016 51.68 61.184L50.816 56C50.752 55.616 50.688 55.264 50.624 54.944C50.56 54.56 50.464 54.176 50.336 53.792C50.272 53.28 50.176 52.8 50.048 52.352C49.92 51.904 49.792 51.456 49.664 51.008L49.088 48.896V48.608C49.024 48.16 48.928 47.712 48.8 47.264C48.672 46.816 48.576 46.368 48.512 45.92C48.448 45.408 48.352 44.928 48.224 44.48C48.16 43.968 48.064 43.488 47.936 43.04C47.936 42.784 47.84 42.56 47.648 42.368C47.52 42.112 47.36 41.856 47.168 41.6C47.168 41.536 47.104 41.44 46.976 41.312C46.208 40.8 45.344 40.608 44.384 40.736C44.128 40.736 43.936 40.768 43.808 40.832C43.168 40.96 42.528 41.152 41.888 41.408C41.248 41.664 40.608 41.952 39.968 42.272C39.712 42.4 39.552 42.496 39.488 42.56C39.168 42.816 38.816 43.04 38.432 43.232C38.048 43.36 37.664 43.488 37.28 43.616C36.32 44 35.36 44.448 34.4 44.96C33.504 45.472 32.608 45.984 31.712 46.496L31.136 46.976C30.816 47.232 30.464 47.52 30.08 47.84C29.696 48.096 29.312 48.32 28.928 48.512C28.352 48.896 28.064 49.408 28.064 50.048C27.936 50.944 28.064 51.808 28.448 52.64C28.768 53.472 28.992 54.432 29.12 55.52C29.12 55.904 29.152 56.192 29.216 56.384C29.344 56.576 29.408 56.8 29.408 57.056C29.472 57.248 29.536 57.44 29.6 57.632L29.888 59.456C30.08 60.736 29.888 61.952 29.312 63.104C29.248 63.168 29.152 63.328 29.024 63.584C28.448 64.544 28.064 65.6 27.872 66.752C27.808 67.072 27.712 67.392 27.584 67.712C27.456 67.968 27.264 68.256 27.008 68.576C26.752 68.896 26.368 69.088 25.856 69.152C25.344 69.216 24.896 68.992 24.512 68.48C24.256 68.032 24.064 67.456 23.936 66.752C23.808 66.112 23.68 65.6 23.552 65.216C23.424 64.704 23.2 64.32 22.88 64.064C22.368 63.36 21.888 62.464 21.44 61.376C21.184 60.672 20.992 59.968 20.864 59.264C20.736 58.56 20.608 57.856 20.48 57.152C20.288 56.192 20.096 55.232 19.904 54.272C19.712 53.312 19.488 52.352 19.232 51.392C19.04 50.56 18.816 49.76 18.56 48.992C18.368 48.16 18.176 47.328 17.984 46.496L16.256 39.392C16.192 38.688 16 38.016 15.68 37.376C15.552 36.864 15.392 36.352 15.2 35.84C15.008 35.264 14.848 34.72 14.72 34.208C14.656 34.016 14.592 33.824 14.528 33.632C14.464 33.376 14.4 33.152 14.336 32.96C14.272 32.64 14.176 32.32 14.048 32C13.984 31.68 13.856 31.36 13.664 31.04L13.376 29.984C13.248 29.472 13.12 28.96 12.992 28.448C12.864 27.936 12.736 27.456 12.608 27.008L12.512 26.624C12.512 26.24 12.48 25.856 12.416 25.472C12.352 25.088 12.288 24.672 12.224 24.224C12.224 24.16 12.192 24.128 12.128 24.128C12.128 24.064 12.128 24 12.128 23.936C12.064 23.04 12 22.144 11.936 21.248C11.872 20.288 11.84 19.36 11.84 18.464C11.776 17.888 11.776 17.536 11.84 17.408C11.904 17.28 12.064 16.992 12.32 16.544C12.512 16.224 12.736 15.872 12.992 15.488C12.992 15.36 13.056 15.296 13.184 15.296C13.44 15.232 13.664 15.136 13.856 15.008C14.048 14.816 14.24 14.656 14.432 14.528C15.136 14.08 16 13.856 17.024 13.856C17.216 13.856 17.344 13.888 17.408 13.952C17.6 14.016 17.76 14.08 17.888 14.144C18.08 14.208 18.272 14.304 18.464 14.432C18.848 14.56 19.168 14.784 19.424 15.104C19.744 15.424 20.032 15.744 20.288 16.064C20.736 17.024 20.992 17.92 21.056 18.752C21.184 19.52 21.376 20.288 21.632 21.056L21.92 22.4C22.048 23.04 22.208 23.68 22.4 24.32C22.592 24.96 22.752 25.6 22.88 26.24C23.072 27.136 23.232 28.064 23.36 29.024C23.552 29.92 23.744 30.816 23.936 31.712L24.224 33.44C24.224 33.504 24.224 33.6 24.224 33.728C24.288 33.792 24.32 33.856 24.32 33.92C24.448 34.24 24.64 34.4 24.896 34.4C25.536 34.464 26.176 34.528 26.816 34.592C27.456 34.656 28.096 34.624 28.736 34.496C29.824 34.368 30.88 34.208 31.904 34.016C32.928 33.824 33.952 33.632 34.976 33.44C36.32 33.184 37.632 32.928 38.912 32.672C40.256 32.352 41.6 32.032 42.944 31.712L44.864 31.232C45.184 31.104 45.344 30.88 45.344 30.56C45.28 30.368 45.248 30.176 45.248 29.984C45.248 29.792 45.216 29.6 45.152 29.408C44.832 28.512 44.64 27.68 44.576 26.912C44.512 26.592 44.448 26.272 44.384 25.952C44.32 25.568 44.256 25.216 44.192 24.896C44 23.808 43.808 22.72 43.616 21.632C43.488 20.48 43.36 19.36 43.232 18.272C43.168 17.76 43.104 17.28 43.04 16.832C43.04 16.32 42.976 15.84 42.848 15.392C42.784 14.688 42.72 13.984 42.656 13.28C42.656 12.512 42.656 11.808 42.656 11.168C42.656 11.04 42.656 10.912 42.656 10.784C42.72 10.656 42.784 10.528 42.848 10.4C42.912 10.144 42.976 9.92 43.04 9.72799C43.104 9.472 43.168 9.216 43.232 8.96C43.36 8.576 43.488 8.256 43.616 8C43.808 7.68 44 7.392 44.192 7.136C44.512 6.944 44.768 6.688 44.96 6.368C45.28 6.048 45.568 5.856 45.824 5.792L46.688 5.504C46.88 5.376 47.072 5.344 47.264 5.408C47.52 5.408 47.744 5.44 47.936 5.504C48.128 5.504 48.416 5.568 48.8 5.696C48.992 5.76 49.184 5.856 49.376 5.984C49.568 6.112 49.728 6.272 49.856 6.464C49.984 6.72 50.144 6.976 50.336 7.232C50.592 7.424 50.752 7.68 50.816 8C50.944 8.192 51.104 8.288 51.296 8.288C51.488 8.352 51.648 8.54399 51.776 8.86399C51.776 8.928 51.776 8.992 51.776 9.056C51.84 9.12 51.872 9.216 51.872 9.344C52 9.856 52.128 10.4 52.256 10.976C52.384 11.488 52.48 12 52.544 12.512C52.544 12.704 52.544 12.896 52.544 13.088C52.608 13.28 52.608 13.504 52.544 13.76V14.528C52.608 15.04 52.672 15.584 52.736 16.16C52.8 16.672 52.864 17.184 52.928 17.696C52.992 17.76 53.024 17.92 53.024 18.176C53.216 18.432 53.344 18.752 53.408 19.136C53.472 19.52 53.536 19.872 53.6 20.192C53.664 20.512 53.696 20.864 53.696 21.248C53.76 21.568 53.856 21.888 53.984 22.208C54.048 22.336 54.08 22.528 54.08 22.784C54.08 23.04 54.08 23.296 54.08 23.552C54.144 23.744 54.176 23.968 54.176 24.224C54.176 24.48 54.208 24.64 54.272 24.704C54.336 24.768 54.4 24.864 54.464 24.992C54.592 25.056 54.624 25.152 54.56 25.28C54.56 25.408 54.528 25.536 54.464 25.664C54.464 25.792 54.464 25.92 54.464 26.048V26.528C54.592 26.848 54.688 27.2 54.752 27.584C54.816 27.968 54.88 28.32 54.944 28.64C54.944 29.024 55.072 29.248 55.328 29.312L55.616 29.6C55.744 29.728 55.808 29.952 55.808 30.272C55.68 30.4 55.616 30.528 55.616 30.656C55.552 30.784 55.552 30.944 55.616 31.136C55.808 31.328 55.872 31.52 55.808 31.712C55.68 31.904 55.68 32.064 55.808 32.192C55.936 32.384 56 32.672 56 33.056V32.96C56.064 33.024 56.16 33.056 56.288 33.056C56.608 33.184 56.704 33.408 56.576 33.728C56.576 33.856 56.512 33.984 56.384 34.112C56.192 34.304 56.128 34.464 56.192 34.592C56.384 35.488 56.576 36.384 56.768 37.28C56.96 38.176 57.12 39.072 57.248 39.968L57.536 42.272C57.664 42.784 57.76 43.296 57.824 43.808C57.888 44.32 57.984 44.832 58.112 45.344C58.112 45.664 58.176 46.08 58.304 46.592C58.304 46.72 58.432 46.784 58.688 46.784C58.688 46.72 58.72 46.688 58.784 46.688C58.848 46.688 58.88 46.72 58.88 46.784C58.944 46.848 59.04 47.008 59.168 47.264L59.456 48.512C59.52 48.64 59.552 48.8 59.552 48.992C59.552 49.12 59.584 49.248 59.648 49.376C59.712 49.76 59.584 50.08 59.264 50.336C59.072 50.4 58.976 50.528 58.976 50.72C58.976 50.784 58.976 50.816 58.976 50.816C59.04 50.816 59.072 50.848 59.072 50.912C59.136 50.912 59.168 50.88 59.168 50.816H59.264C59.392 50.752 59.52 50.752 59.648 50.816C59.776 50.816 59.84 50.88 59.84 51.008C59.904 51.264 59.968 51.552 60.032 51.872C60.096 52.192 60.096 52.384 60.032 52.448C60.032 52.448 60 52.48 59.936 52.544C59.936 52.544 59.904 52.544 59.84 52.544C59.584 52.544 59.456 52.832 59.456 53.408C59.52 54.048 59.712 54.656 60.032 55.232L60.608 56.096C61.12 56.992 61.376 57.984 61.376 59.072C61.376 59.2 61.312 59.328 61.184 59.456C60.992 59.648 60.896 59.872 60.896 60.128C60.896 60.512 60.928 60.832 60.992 61.088C60.992 61.536 60.896 61.856 60.704 62.048C60.512 62.304 60.416 62.624 60.416 63.008C60.352 63.584 60.16 64.16 59.84 64.736C59.264 65.888 58.976 67.168 58.976 68.576C58.912 68.832 58.88 69.088 58.88 69.344C58.88 69.6 58.88 69.888 58.88 70.208C58.816 70.464 58.784 70.88 58.784 71.456V72.704C58.72 72.96 58.656 73.216 58.592 73.472C58.528 73.728 58.432 73.984 58.304 74.24C58.112 74.496 57.856 74.688 57.536 74.816C57.472 74.816 57.408 74.816 57.344 74.816C57.28 74.88 57.184 74.912 57.056 74.912Z" fill="url(#paint0_linear_214_6)"/>
<mask id="path-2-inside-1_214_6" fill="white">
<path d="M78.428 37.108C76.82 37.108 75.488 36.796 74.432 36.172C73.4 35.548 72.548 34.648 71.876 33.472C71.228 32.296 70.64 30.868 70.112 29.188L66.08 16.264C65.696 15.064 65.72 14.02 66.152 13.132C66.608 12.22 67.412 11.596 68.564 11.26C69.62 10.948 70.58 11.02 71.444 11.476C72.308 11.908 72.896 12.652 73.208 13.708L77.132 26.164C77.54 27.508 78.056 28.408 78.68 28.864C79.328 29.296 80.024 29.392 80.768 29.152C81.536 28.936 82.028 28.504 82.244 27.856C82.46 27.184 82.4 26.176 82.064 24.832C81.512 22.432 81.14 20.548 80.948 19.18C80.756 17.812 80.66 16.732 80.66 15.94C80.66 14.596 81.02 13.444 81.74 12.484C82.484 11.5 83.624 11.008 85.16 11.008C86.672 11.008 87.764 11.5 88.436 12.484C89.132 13.444 89.48 14.596 89.48 15.94C89.48 16.732 89.372 17.548 89.156 18.388C88.94 19.228 88.688 20.092 88.4 20.98L85.196 30.664C84.764 31.96 84.284 33.1 83.756 34.084C83.252 35.044 82.58 35.788 81.74 36.316C80.924 36.844 79.82 37.108 78.428 37.108ZM95.2085 37.072C94.1045 37.072 93.2045 36.736 92.5085 36.064C91.8125 35.392 91.4645 34.54 91.4645 33.508V14.464C91.4645 13.408 91.8005 12.52 92.4725 11.8C93.1685 11.08 94.0805 10.72 95.2085 10.72C96.4085 10.72 97.3445 11.08 98.0165 11.8C98.7125 12.496 99.0605 13.36 99.0605 14.392V33.508C99.0605 34.54 98.6885 35.392 97.9445 36.064C97.2245 36.736 96.3125 37.072 95.2085 37.072ZM109.155 36.964C108.051 36.916 107.019 36.76 106.059 36.496C105.123 36.232 104.295 35.788 103.575 35.164C102.855 34.516 102.291 33.628 101.883 32.5C101.499 31.372 101.307 29.932 101.307 28.18C101.307 26.476 101.535 25 101.991 23.752C102.471 22.504 103.035 21.508 103.683 20.764C104.331 20.02 104.919 19.564 105.447 19.396L105.267 18.712H104.655C103.551 18.712 102.675 18.364 102.027 17.668C101.403 16.948 101.079 15.988 101.055 14.788C101.031 13.588 101.343 12.628 101.991 11.908C102.663 11.164 103.551 10.792 104.655 10.792H114.555C117.147 10.792 119.019 11.416 120.171 12.664C121.323 13.888 121.899 15.484 121.899 17.452C121.899 19.036 121.527 20.356 120.783 21.412C120.063 22.468 118.971 23.104 117.507 23.32V23.86C119.091 23.932 120.375 24.484 121.359 25.516C122.367 26.524 122.871 28.024 122.871 30.016C122.871 32.176 122.247 33.892 120.999 35.164C119.751 36.412 117.699 37.024 114.843 37L109.155 36.964ZM108.183 20.8C108.183 21.328 108.279 21.676 108.471 21.844C108.663 22.012 109.023 22.096 109.551 22.096H112.863C113.775 22.096 114.471 21.964 114.951 21.7C115.431 21.412 115.671 20.86 115.671 20.044C115.671 19.204 115.431 18.652 114.951 18.388C114.471 18.124 113.775 17.992 112.863 17.992H109.551C109.023 17.992 108.663 18.064 108.471 18.208C108.279 18.352 108.183 18.7 108.183 19.252V20.8ZM108.183 28.036C108.183 28.564 108.279 28.924 108.471 29.116C108.687 29.308 109.071 29.404 109.623 29.404H113.331C114.267 29.404 114.987 29.236 115.491 28.9C115.995 28.564 116.247 27.964 116.247 27.1C116.247 26.236 115.995 25.648 115.491 25.336C114.987 25 114.267 24.832 113.331 24.832H109.623C109.071 24.832 108.687 24.916 108.471 25.084C108.279 25.252 108.183 25.6 108.183 26.128V28.036ZM133.331 36.928C132.155 36.928 131.027 36.82 129.947 36.604C128.891 36.388 127.955 35.98 127.139 35.38C126.347 34.756 125.711 33.868 125.231 32.716C124.775 31.54 124.547 30.004 124.547 28.108C124.547 26.404 124.775 24.94 125.231 23.716C125.687 22.492 126.227 21.52 126.851 20.8C127.499 20.08 128.087 19.636 128.615 19.468L128.435 18.784H127.823C126.719 18.784 125.843 18.436 125.195 17.74C124.571 17.02 124.247 16.048 124.223 14.824C124.199 13.624 124.511 12.664 125.159 11.944C125.831 11.224 126.719 10.864 127.823 10.864H140.747C143.315 10.864 144.599 12.064 144.599 14.464C144.599 15.544 144.287 16.408 143.663 17.056C143.039 17.704 142.067 18.028 140.747 18.028H133.295C132.407 18.028 131.963 18.544 131.963 19.576V22.276C133.163 22.012 134.411 21.7 135.707 21.34C137.027 20.98 138.275 20.8 139.451 20.8C140.579 20.8 141.419 21.052 141.971 21.556C142.547 22.036 142.835 22.696 142.835 23.536C142.835 24.4 142.547 25.084 141.971 25.588C141.419 26.068 140.579 26.32 139.451 26.344C138.275 26.368 137.027 26.2 135.707 25.84C134.387 25.48 133.127 25.168 131.927 24.904V29.62C131.927 30.076 132.047 30.4 132.287 30.592C132.551 30.76 132.959 30.688 133.511 30.376C134.711 29.68 135.887 29.128 137.039 28.72C138.191 28.288 139.319 28.072 140.423 28.072C141.983 28.072 143.159 28.48 143.951 29.296C144.767 30.112 145.175 31.18 145.175 32.5C145.175 33.916 144.743 35.008 143.879 35.776C143.039 36.544 141.671 36.928 139.775 36.928H133.331Z"/>
</mask>
<path d="M78.428 37.108C76.82 37.108 75.488 36.796 74.432 36.172C73.4 35.548 72.548 34.648 71.876 33.472C71.228 32.296 70.64 30.868 70.112 29.188L66.08 16.264C65.696 15.064 65.72 14.02 66.152 13.132C66.608 12.22 67.412 11.596 68.564 11.26C69.62 10.948 70.58 11.02 71.444 11.476C72.308 11.908 72.896 12.652 73.208 13.708L77.132 26.164C77.54 27.508 78.056 28.408 78.68 28.864C79.328 29.296 80.024 29.392 80.768 29.152C81.536 28.936 82.028 28.504 82.244 27.856C82.46 27.184 82.4 26.176 82.064 24.832C81.512 22.432 81.14 20.548 80.948 19.18C80.756 17.812 80.66 16.732 80.66 15.94C80.66 14.596 81.02 13.444 81.74 12.484C82.484 11.5 83.624 11.008 85.16 11.008C86.672 11.008 87.764 11.5 88.436 12.484C89.132 13.444 89.48 14.596 89.48 15.94C89.48 16.732 89.372 17.548 89.156 18.388C88.94 19.228 88.688 20.092 88.4 20.98L85.196 30.664C84.764 31.96 84.284 33.1 83.756 34.084C83.252 35.044 82.58 35.788 81.74 36.316C80.924 36.844 79.82 37.108 78.428 37.108ZM95.2085 37.072C94.1045 37.072 93.2045 36.736 92.5085 36.064C91.8125 35.392 91.4645 34.54 91.4645 33.508V14.464C91.4645 13.408 91.8005 12.52 92.4725 11.8C93.1685 11.08 94.0805 10.72 95.2085 10.72C96.4085 10.72 97.3445 11.08 98.0165 11.8C98.7125 12.496 99.0605 13.36 99.0605 14.392V33.508C99.0605 34.54 98.6885 35.392 97.9445 36.064C97.2245 36.736 96.3125 37.072 95.2085 37.072ZM109.155 36.964C108.051 36.916 107.019 36.76 106.059 36.496C105.123 36.232 104.295 35.788 103.575 35.164C102.855 34.516 102.291 33.628 101.883 32.5C101.499 31.372 101.307 29.932 101.307 28.18C101.307 26.476 101.535 25 101.991 23.752C102.471 22.504 103.035 21.508 103.683 20.764C104.331 20.02 104.919 19.564 105.447 19.396L105.267 18.712H104.655C103.551 18.712 102.675 18.364 102.027 17.668C101.403 16.948 101.079 15.988 101.055 14.788C101.031 13.588 101.343 12.628 101.991 11.908C102.663 11.164 103.551 10.792 104.655 10.792H114.555C117.147 10.792 119.019 11.416 120.171 12.664C121.323 13.888 121.899 15.484 121.899 17.452C121.899 19.036 121.527 20.356 120.783 21.412C120.063 22.468 118.971 23.104 117.507 23.32V23.86C119.091 23.932 120.375 24.484 121.359 25.516C122.367 26.524 122.871 28.024 122.871 30.016C122.871 32.176 122.247 33.892 120.999 35.164C119.751 36.412 117.699 37.024 114.843 37L109.155 36.964ZM108.183 20.8C108.183 21.328 108.279 21.676 108.471 21.844C108.663 22.012 109.023 22.096 109.551 22.096H112.863C113.775 22.096 114.471 21.964 114.951 21.7C115.431 21.412 115.671 20.86 115.671 20.044C115.671 19.204 115.431 18.652 114.951 18.388C114.471 18.124 113.775 17.992 112.863 17.992H109.551C109.023 17.992 108.663 18.064 108.471 18.208C108.279 18.352 108.183 18.7 108.183 19.252V20.8ZM108.183 28.036C108.183 28.564 108.279 28.924 108.471 29.116C108.687 29.308 109.071 29.404 109.623 29.404H113.331C114.267 29.404 114.987 29.236 115.491 28.9C115.995 28.564 116.247 27.964 116.247 27.1C116.247 26.236 115.995 25.648 115.491 25.336C114.987 25 114.267 24.832 113.331 24.832H109.623C109.071 24.832 108.687 24.916 108.471 25.084C108.279 25.252 108.183 25.6 108.183 26.128V28.036ZM133.331 36.928C132.155 36.928 131.027 36.82 129.947 36.604C128.891 36.388 127.955 35.98 127.139 35.38C126.347 34.756 125.711 33.868 125.231 32.716C124.775 31.54 124.547 30.004 124.547 28.108C124.547 26.404 124.775 24.94 125.231 23.716C125.687 22.492 126.227 21.52 126.851 20.8C127.499 20.08 128.087 19.636 128.615 19.468L128.435 18.784H127.823C126.719 18.784 125.843 18.436 125.195 17.74C124.571 17.02 124.247 16.048 124.223 14.824C124.199 13.624 124.511 12.664 125.159 11.944C125.831 11.224 126.719 10.864 127.823 10.864H140.747C143.315 10.864 144.599 12.064 144.599 14.464C144.599 15.544 144.287 16.408 143.663 17.056C143.039 17.704 142.067 18.028 140.747 18.028H133.295C132.407 18.028 131.963 18.544 131.963 19.576V22.276C133.163 22.012 134.411 21.7 135.707 21.34C137.027 20.98 138.275 20.8 139.451 20.8C140.579 20.8 141.419 21.052 141.971 21.556C142.547 22.036 142.835 22.696 142.835 23.536C142.835 24.4 142.547 25.084 141.971 25.588C141.419 26.068 140.579 26.32 139.451 26.344C138.275 26.368 137.027 26.2 135.707 25.84C134.387 25.48 133.127 25.168 131.927 24.904V29.62C131.927 30.076 132.047 30.4 132.287 30.592C132.551 30.76 132.959 30.688 133.511 30.376C134.711 29.68 135.887 29.128 137.039 28.72C138.191 28.288 139.319 28.072 140.423 28.072C141.983 28.072 143.159 28.48 143.951 29.296C144.767 30.112 145.175 31.18 145.175 32.5C145.175 33.916 144.743 35.008 143.879 35.776C143.039 36.544 141.671 36.928 139.775 36.928H133.331Z" fill="white"/>
<path d="M74.432 36.172L73.9146 37.0278L73.9233 37.0329L74.432 36.172ZM71.876 33.472L71.0002 33.9546L71.0039 33.9614L71.0078 33.9681L71.876 33.472ZM70.112 29.188L69.1574 29.4858L69.158 29.4878L70.112 29.188ZM66.08 16.264L67.0346 15.9662L67.0324 15.9592L66.08 16.264ZM66.152 13.132L65.2575 12.6848L65.2528 12.6945L66.152 13.132ZM68.564 11.26L68.844 12.22L68.8473 12.219L68.564 11.26ZM71.444 11.476L70.9772 12.3604L70.987 12.3655L70.9968 12.3704L71.444 11.476ZM73.208 13.708L72.249 13.9913L72.2515 13.9999L72.2542 14.0085L73.208 13.708ZM77.132 26.164L78.0889 25.8735L78.0858 25.8635L77.132 26.164ZM78.68 28.864L78.09 29.6714L78.1074 29.6841L78.1253 29.696L78.68 28.864ZM80.768 29.152L80.4973 28.1894L80.479 28.1945L80.461 28.2003L80.768 29.152ZM82.244 27.856L83.1927 28.1722L83.196 28.162L82.244 27.856ZM82.064 24.832L81.0894 25.0561L81.0916 25.0654L81.0939 25.0745L82.064 24.832ZM80.948 19.18L79.9577 19.319V19.319L80.948 19.18ZM81.74 12.484L80.9423 11.8809L80.94 11.884L81.74 12.484ZM88.436 12.484L87.6102 13.048L87.6181 13.0596L87.6264 13.071L88.436 12.484ZM89.156 18.388L88.1875 18.139V18.139L89.156 18.388ZM88.4 20.98L89.3494 21.2941L89.3512 21.2885L88.4 20.98ZM85.196 30.664L86.1447 30.9802L86.1454 30.9781L85.196 30.664ZM83.756 34.084L82.8748 33.6112L82.8706 33.6192L83.756 34.084ZM81.74 36.316L81.2078 35.4693L81.1968 35.4764L81.74 36.316ZM78.428 37.108V36.108C76.9447 36.108 75.8019 35.8199 74.9407 35.3111L74.432 36.172L73.9233 37.0329C75.1742 37.7721 76.6953 38.108 78.428 38.108V37.108ZM74.432 36.172L74.9494 35.3163C74.0803 34.7907 73.3424 34.0226 72.7442 32.9759L71.876 33.472L71.0078 33.9681C71.7536 35.2734 72.7197 36.3053 73.9146 37.0277L74.432 36.172ZM71.876 33.472L72.7518 32.9894C72.144 31.8863 71.5798 30.5232 71.066 28.8882L70.112 29.188L69.158 29.4878C69.7002 31.2128 70.312 32.7057 71.0002 33.9546L71.876 33.472ZM70.112 29.188L71.0666 28.8902L67.0346 15.9662L66.08 16.264L65.1254 16.5618L69.1574 29.4858L70.112 29.188ZM66.08 16.264L67.0324 15.9592C66.7043 14.9338 66.7604 14.1672 67.0512 13.5695L66.152 13.132L65.2528 12.6945C64.6796 13.8728 64.6877 15.1942 65.1276 16.5688L66.08 16.264ZM66.152 13.132L67.0464 13.5792C67.3558 12.9605 67.9077 12.4931 68.844 12.22L68.564 11.26L68.284 10.3C66.9163 10.6989 65.8602 11.4795 65.2576 12.6848L66.152 13.132ZM68.564 11.26L68.8473 12.219C69.6877 11.9707 70.374 12.042 70.9772 12.3604L71.444 11.476L71.9108 10.5916C70.786 9.998 69.5523 9.92527 68.2807 10.301L68.564 11.26ZM71.444 11.476L70.9968 12.3704C71.5771 12.6606 72.0034 13.1603 72.249 13.9913L73.208 13.708L74.167 13.4247C73.7886 12.1437 73.0389 11.1554 71.8912 10.5816L71.444 11.476ZM73.208 13.708L72.2542 14.0085L76.1782 26.4645L77.132 26.164L78.0858 25.8635L74.1618 13.4075L73.208 13.708ZM77.132 26.164L76.1751 26.4545C76.601 27.8574 77.1972 29.019 78.09 29.6714L78.68 28.864L79.27 28.0566C78.9148 27.797 78.479 27.1586 78.0889 25.8735L77.132 26.164ZM78.68 28.864L78.1253 29.696C79.0284 30.2981 80.0418 30.437 81.075 30.1037L80.768 29.152L80.461 28.2003C80.0062 28.347 79.6276 28.2939 79.2347 28.032L78.68 28.864ZM80.768 29.152L81.0387 30.1147C82.064 29.8263 82.853 29.1912 83.1927 28.1722L82.244 27.856L81.2953 27.5398C81.203 27.8168 81.008 28.0457 80.4973 28.1894L80.768 29.152ZM82.244 27.856L83.196 28.162C83.5019 27.2103 83.3793 25.9701 83.0341 24.5895L82.064 24.832L81.0939 25.0745C81.4207 26.3819 81.4181 27.1577 81.292 27.55L82.244 27.856ZM82.064 24.832L83.0386 24.6079C82.4889 22.2179 82.1243 20.3666 81.9383 19.041L80.948 19.18L79.9577 19.319C80.1557 20.7294 80.5351 22.6461 81.0894 25.0561L82.064 24.832ZM80.948 19.18L81.9383 19.041C81.7488 17.6906 81.66 16.6636 81.66 15.94H80.66H79.66C79.66 16.8004 79.7632 17.9334 79.9577 19.319L80.948 19.18ZM80.66 15.94H81.66C81.66 14.7851 81.9653 13.8503 82.54 13.084L81.74 12.484L80.94 11.884C80.0747 13.0377 79.66 14.4069 79.66 15.94H80.66ZM81.74 12.484L82.5377 13.0871C83.0466 12.414 83.8522 12.008 85.16 12.008V11.008V10.008C83.3958 10.008 81.9214 10.586 80.9423 11.8809L81.74 12.484ZM85.16 11.008V12.008C86.4414 12.008 87.1745 12.41 87.6102 13.048L88.436 12.484L89.2618 11.92C88.3535 10.59 86.9026 10.008 85.16 10.008V11.008ZM88.436 12.484L87.6264 13.071C88.1825 13.838 88.48 14.7775 88.48 15.94H89.48H90.48C90.48 14.4145 90.0815 13.05 89.2456 11.897L88.436 12.484ZM89.48 15.94H88.48C88.48 16.6404 88.3846 17.3727 88.1875 18.139L89.156 18.388L90.1245 18.637C90.3594 17.7233 90.48 16.8235 90.48 15.94H89.48ZM89.156 18.388L88.1875 18.139C87.977 18.9575 87.7309 19.8017 87.4488 20.6715L88.4 20.98L89.3512 21.2885C89.6451 20.3823 89.903 19.4985 90.1245 18.637L89.156 18.388ZM88.4 20.98L87.4506 20.6659L84.2466 30.3499L85.196 30.664L86.1454 30.9781L89.3494 21.2941L88.4 20.98ZM85.196 30.664L84.2473 30.3478C83.8295 31.6012 83.3708 32.687 82.8748 33.6112L83.756 34.084L84.6372 34.5568C85.1973 33.513 85.6985 32.3188 86.1447 30.9802L85.196 30.664ZM83.756 34.084L82.8706 33.6192C82.4408 34.4379 81.8848 35.0438 81.2078 35.4694L81.74 36.316L82.2722 37.1626C83.2752 36.5322 84.0632 35.6501 84.6414 34.5488L83.756 34.084ZM81.74 36.316L81.1968 35.4764C80.5983 35.8636 79.7066 36.108 78.428 36.108V37.108V38.108C79.9334 38.108 81.2497 37.8244 82.2833 37.1556L81.74 36.316ZM92.5085 36.064L93.2031 35.3446V35.3446L92.5085 36.064ZM92.4725 11.8L91.7535 11.105L91.7474 11.1113L91.7414 11.1177L92.4725 11.8ZM98.0165 11.8L97.2854 12.4823L97.2972 12.4949L97.3094 12.5071L98.0165 11.8ZM97.9445 36.064L97.2742 35.3219L97.2682 35.3274L97.2622 35.3329L97.9445 36.064ZM95.2085 37.072V36.072C94.3241 36.072 93.686 35.8109 93.2031 35.3446L92.5085 36.064L91.8139 36.7834C92.723 37.6611 93.8849 38.072 95.2085 38.072V37.072ZM92.5085 36.064L93.2031 35.3446C92.7163 34.8746 92.4645 34.2889 92.4645 33.508H91.4645H90.4645C90.4645 34.7911 90.9087 35.9094 91.8139 36.7834L92.5085 36.064ZM91.4645 33.508H92.4645V14.464H91.4645H90.4645V33.508H91.4645ZM91.4645 14.464H92.4645C92.4645 13.6413 92.7176 13.003 93.2036 12.4823L92.4725 11.8L91.7414 11.1177C90.8834 12.037 90.4645 13.1747 90.4645 14.464H91.4645ZM92.4725 11.8L93.1915 12.495C93.6744 11.9954 94.314 11.72 95.2085 11.72V10.72V9.72C93.847 9.72 92.6625 10.1646 91.7535 11.105L92.4725 11.8ZM95.2085 10.72V11.72C96.1965 11.72 96.8429 12.0081 97.2854 12.4823L98.0165 11.8L98.7476 11.1177C97.8461 10.1518 96.6205 9.72 95.2085 9.72V10.72ZM98.0165 11.8L97.3094 12.5071C97.808 13.0057 98.0605 13.6109 98.0605 14.392H99.0605H100.061C100.061 13.1091 99.617 11.9863 98.7236 11.0929L98.0165 11.8ZM99.0605 14.392H98.0605V33.508H99.0605H100.061V14.392H99.0605ZM99.0605 33.508H98.0605C98.0605 34.2666 97.8014 34.8457 97.2742 35.3219L97.9445 36.064L98.6148 36.8061C99.5756 35.9383 100.061 34.8134 100.061 33.508H99.0605ZM97.9445 36.064L97.2622 35.3329C96.7502 35.8108 96.0923 36.072 95.2085 36.072V37.072V38.072C96.5327 38.072 97.6988 37.6612 98.6268 36.7951L97.9445 36.064ZM109.155 36.964L109.111 37.9631L109.13 37.9639L109.148 37.964L109.155 36.964ZM106.059 36.496L105.787 37.4585L105.793 37.4602L106.059 36.496ZM103.575 35.164L102.906 35.9073L102.913 35.9136L102.92 35.9197L103.575 35.164ZM101.883 32.5L100.936 32.8223L100.939 32.8312L100.942 32.8401L101.883 32.5ZM101.991 23.752L101.057 23.393L101.054 23.4009L101.051 23.4088L101.991 23.752ZM103.683 20.764L102.928 20.1072V20.1072L103.683 20.764ZM105.447 19.396L105.75 20.3489L106.656 20.0607L106.414 19.1415L105.447 19.396ZM105.267 18.712L106.234 18.4575L106.037 17.712H105.267V18.712ZM102.027 17.668L101.271 18.3229L101.283 18.3364L101.295 18.3494L102.027 17.668ZM101.055 14.788L102.054 14.768V14.768L101.055 14.788ZM101.991 11.908L101.248 11.2377L101.247 11.239L101.991 11.908ZM120.171 12.664L119.436 13.3423L119.442 13.3494L120.171 12.664ZM120.783 21.412L119.965 20.836L119.961 20.8423L119.956 20.8487L120.783 21.412ZM117.507 23.32L117.361 22.3307L116.507 22.4567V23.32H117.507ZM117.507 23.86H116.507V24.8156L117.461 24.859L117.507 23.86ZM121.359 25.516L120.635 26.2061L120.643 26.2147L120.651 26.2231L121.359 25.516ZM120.999 35.164L121.706 35.8711L121.712 35.8643L120.999 35.164ZM114.843 37L114.851 36L114.849 36L114.843 37ZM114.951 21.7L115.432 22.5762L115.449 22.5672L115.465 22.5575L114.951 21.7ZM114.951 18.388L114.469 19.2642V19.2642L114.951 18.388ZM108.471 29.116L107.763 29.8231L107.784 29.8439L107.806 29.8634L108.471 29.116ZM115.491 25.336L114.936 26.168L114.95 26.1774L114.964 26.1863L115.491 25.336ZM108.471 25.084L107.857 24.2946L107.834 24.3124L107.812 24.3314L108.471 25.084ZM109.155 36.964L109.198 35.9649C108.161 35.9199 107.204 35.7739 106.324 35.5318L106.059 36.496L105.793 37.4602C106.833 37.7461 107.94 37.9121 109.111 37.9631L109.155 36.964ZM106.059 36.496L106.33 35.5336C105.532 35.3086 104.836 34.934 104.229 34.4083L103.575 35.164L102.92 35.9197C103.753 36.642 104.713 37.1554 105.787 37.4585L106.059 36.496ZM103.575 35.164L104.244 34.4207C103.672 33.9059 103.188 33.1695 102.823 32.1599L101.883 32.5L100.942 32.8401C101.393 34.0865 102.038 35.1261 102.906 35.9073L103.575 35.164ZM101.883 32.5L102.829 32.1777C102.493 31.19 102.307 29.869 102.307 28.18H101.307H100.307C100.307 29.995 100.504 31.554 100.936 32.8223L101.883 32.5ZM101.307 28.18H102.307C102.307 26.5616 102.524 25.2071 102.93 24.0952L101.991 23.752L101.051 23.4088C100.546 24.7929 100.307 26.3904 100.307 28.18H101.307ZM101.991 23.752L102.924 24.111C103.376 22.9358 103.887 22.0516 104.437 21.4208L103.683 20.764L102.928 20.1072C102.182 20.9644 101.565 22.0722 101.057 23.393L101.991 23.752ZM103.683 20.764L104.437 21.4208C105.046 20.7216 105.485 20.4331 105.75 20.3489L105.447 19.396L105.143 18.4431C104.352 18.6949 103.616 19.3184 102.928 20.1072L103.683 20.764ZM105.447 19.396L106.414 19.1415L106.234 18.4575L105.267 18.712L104.299 18.9665L104.479 19.6505L105.447 19.396ZM105.267 18.712V17.712H104.655V18.712V19.712H105.267V18.712ZM104.655 18.712V17.712C103.779 17.712 103.186 17.4462 102.758 16.9866L102.027 17.668L101.295 18.3494C102.163 19.2818 103.322 19.712 104.655 19.712V18.712ZM102.027 17.668L102.782 17.0131C102.348 16.5116 102.075 15.7966 102.054 14.768L101.055 14.788L100.055 14.808C100.082 16.1794 100.457 17.3844 101.271 18.3229L102.027 17.668ZM101.055 14.788L102.054 14.768C102.034 13.7582 102.294 13.0657 102.734 12.577L101.991 11.908L101.247 11.239C100.391 12.1903 100.027 13.4178 100.055 14.808L101.055 14.788ZM101.991 11.908L102.733 12.5783C103.195 12.0668 103.801 11.792 104.655 11.792V10.792V9.792C103.3 9.792 102.13 10.2612 101.248 11.2377L101.991 11.908ZM104.655 10.792V11.792H114.555V10.792V9.792H104.655V10.792ZM114.555 10.792V11.792C117.013 11.792 118.553 12.3864 119.436 13.3423L120.171 12.664L120.905 11.9857C119.484 10.4456 117.28 9.792 114.555 9.792V10.792ZM120.171 12.664L119.442 13.3494C120.39 14.3566 120.899 15.6922 120.899 17.452H121.899H122.899C122.899 15.2758 122.255 13.4194 120.899 11.9786L120.171 12.664ZM121.899 17.452H120.899C120.899 18.8771 120.566 19.9836 119.965 20.836L120.783 21.412L121.6 21.988C122.487 20.7284 122.899 19.1949 122.899 17.452H121.899ZM120.783 21.412L119.956 20.8487C119.419 21.6368 118.596 22.1484 117.361 22.3307L117.507 23.32L117.653 24.3093C119.345 24.0596 120.706 23.2992 121.609 21.9753L120.783 21.412ZM117.507 23.32H116.507V23.86H117.507H118.507V23.32H117.507ZM117.507 23.86L117.461 24.859C118.819 24.9207 119.849 25.3822 120.635 26.2061L121.359 25.516L122.082 24.8259C120.9 23.5858 119.362 22.9433 117.552 22.861L117.507 23.86ZM121.359 25.516L120.651 26.2231C121.408 26.9795 121.871 28.1822 121.871 30.016H122.871H123.871C123.871 27.8658 123.325 26.0685 122.066 24.8089L121.359 25.516ZM122.871 30.016H121.871C121.871 31.9732 121.312 33.4169 120.285 34.4637L120.999 35.164L121.712 35.8643C123.181 34.3671 123.871 32.3788 123.871 30.016H122.871ZM120.999 35.164L120.291 34.4569C119.322 35.4265 117.598 36.0231 114.851 36L114.843 37L114.834 38C117.799 38.0249 120.179 37.3975 121.706 35.8711L120.999 35.164ZM114.843 37L114.849 36L109.161 35.964L109.155 36.964L109.148 37.964L114.836 38L114.843 37ZM108.183 20.8H107.183C107.183 21.1164 107.21 21.4324 107.291 21.7229C107.37 22.0105 107.52 22.3406 107.812 22.5966L108.471 21.844L109.129 21.0914C109.23 21.1794 109.235 21.2515 109.219 21.1911C109.203 21.1336 109.183 21.0116 109.183 20.8H108.183ZM108.471 21.844L107.812 22.5966C108.301 23.0247 108.997 23.096 109.551 23.096V22.096V21.096C109.333 21.096 109.193 21.0781 109.112 21.0592C109.025 21.0388 109.059 21.0298 109.129 21.0914L108.471 21.844ZM109.551 22.096V23.096H112.863V22.096V21.096H109.551V22.096ZM112.863 22.096V23.096C113.844 23.096 114.737 22.9586 115.432 22.5762L114.951 21.7L114.469 20.8238C114.204 20.9694 113.705 21.096 112.863 21.096V22.096ZM114.951 21.7L115.465 22.5575C116.371 22.0138 116.671 21.0357 116.671 20.044H115.671H114.671C114.671 20.6843 114.49 20.8102 114.436 20.8425L114.951 21.7ZM115.671 20.044H116.671C116.671 19.0507 116.382 18.0341 115.432 17.5118L114.951 18.388L114.469 19.2642C114.495 19.2789 114.532 19.3044 114.573 19.3987C114.622 19.5096 114.671 19.7106 114.671 20.044H115.671ZM114.951 18.388L115.432 17.5118C114.737 17.1294 113.844 16.992 112.863 16.992V17.992V18.992C113.705 18.992 114.204 19.1186 114.469 19.2642L114.951 18.388ZM112.863 17.992V16.992H109.551V17.992V18.992H112.863V17.992ZM109.551 17.992V16.992C109.247 16.992 108.954 17.0122 108.688 17.0654C108.432 17.1167 108.132 17.2116 107.871 17.408L108.471 18.208L109.071 19.008C109.001 19.0604 108.977 19.0473 109.081 19.0266C109.175 19.0078 109.326 18.992 109.551 18.992V17.992ZM108.471 18.208L107.871 17.408C107.528 17.665 107.369 18.0262 107.291 18.3111C107.21 18.6046 107.183 18.9282 107.183 19.252H108.183H109.183C109.183 19.1421 109.187 19.0529 109.195 18.9823C109.203 18.9109 109.212 18.8664 109.219 18.8429C109.225 18.8186 109.225 18.8291 109.208 18.8594C109.189 18.8916 109.147 18.9507 109.071 19.008L108.471 18.208ZM108.183 19.252H107.183V20.8H108.183H109.183V19.252H108.183ZM108.183 28.036H107.183C107.183 28.6088 107.271 29.3306 107.763 29.8231L108.471 29.116L109.178 28.4089C109.244 28.4752 109.24 28.5149 109.221 28.4443C109.202 28.3752 109.183 28.246 109.183 28.036H108.183ZM108.471 29.116L107.806 29.8634C108.312 30.3126 109.02 30.404 109.623 30.404V29.404V28.404C109.399 28.404 109.252 28.384 109.163 28.3619C109.073 28.3392 109.086 28.3252 109.135 28.3686L108.471 29.116ZM109.623 29.404V30.404H113.331V29.404V28.404H109.623V29.404ZM113.331 29.404V30.404C114.364 30.404 115.31 30.2222 116.045 29.732L115.491 28.9L114.936 28.0679C114.663 28.2498 114.169 28.404 113.331 28.404V29.404ZM115.491 28.9L116.045 29.732C116.935 29.1389 117.247 28.1443 117.247 27.1H116.247H115.247C115.247 27.7837 115.054 27.9891 114.936 28.0679L115.491 28.9ZM116.247 27.1H117.247C117.247 26.0618 116.937 25.0552 116.017 24.4857L115.491 25.336L114.964 26.1863C115.052 26.2408 115.247 26.4102 115.247 27.1H116.247ZM115.491 25.336L116.045 24.504C115.31 24.0138 114.364 23.832 113.331 23.832V24.832V25.832C114.169 25.832 114.663 25.9862 114.936 26.168L115.491 25.336ZM113.331 24.832V23.832H109.623V24.832V25.832H113.331V24.832ZM109.623 24.832V23.832C109.037 23.832 108.355 23.9074 107.857 24.2946L108.471 25.084L109.085 25.8734C109.035 25.9119 109.029 25.8949 109.134 25.8719C109.234 25.85 109.392 25.832 109.623 25.832V24.832ZM108.471 25.084L107.812 24.3314C107.52 24.5874 107.37 24.9175 107.291 25.2051C107.21 25.4956 107.183 25.8116 107.183 26.128H108.183H109.183C109.183 25.9164 109.203 25.7944 109.219 25.7369C109.235 25.6765 109.23 25.7486 109.129 25.8366L108.471 25.084ZM108.183 26.128H107.183V28.036H108.183H109.183V26.128H108.183ZM129.947 36.604L129.746 37.5837L129.75 37.5846L129.947 36.604ZM127.139 35.38L126.52 36.1655L126.533 36.1758L126.546 36.1856L127.139 35.38ZM125.231 32.716L124.298 33.0775L124.303 33.0891L124.307 33.1006L125.231 32.716ZM125.231 23.716L126.168 24.0651V24.0651L125.231 23.716ZM126.851 20.8L126.107 20.131L126.101 20.138L126.095 20.1451L126.851 20.8ZM128.615 19.468L128.918 20.4209L129.824 20.1327L129.582 19.2135L128.615 19.468ZM128.435 18.784L129.402 18.5295L129.205 17.784H128.435V18.784ZM125.195 17.74L124.439 18.3949L124.451 18.4084L124.463 18.4214L125.195 17.74ZM124.223 14.824L125.222 14.8044L125.222 14.804L124.223 14.824ZM125.159 11.944L124.427 11.2617L124.421 11.2683L124.415 11.275L125.159 11.944ZM131.963 22.276H130.963V23.5199L132.177 23.2526L131.963 22.276ZM135.707 21.34L135.443 20.3752L135.439 20.3765L135.707 21.34ZM141.971 21.556L141.296 22.2945L141.313 22.3097L141.33 22.3242L141.971 21.556ZM141.971 25.588L142.627 26.3426L142.629 26.3406L141.971 25.588ZM139.451 26.344L139.471 27.3438L139.472 27.3438L139.451 26.344ZM135.707 25.84L135.443 26.8048V26.8048L135.707 25.84ZM131.927 24.904L132.141 23.9274L130.927 23.6601V24.904H131.927ZM132.287 30.592L131.662 31.3729L131.704 31.4066L131.75 31.4357L132.287 30.592ZM133.511 30.376L134.003 31.2466L134.012 31.241L133.511 30.376ZM137.039 28.72L137.372 29.6626L137.381 29.6596L137.39 29.6563L137.039 28.72ZM143.951 29.296L143.233 29.9925L143.238 29.9978L143.243 30.0031L143.951 29.296ZM143.879 35.776L143.214 35.0285L143.204 35.038L143.879 35.776ZM133.331 36.928V35.928C132.216 35.928 131.154 35.8257 130.143 35.6234L129.947 36.604L129.75 37.5846C130.899 37.8143 132.093 37.928 133.331 37.928V36.928ZM129.947 36.604L130.147 35.6243C129.223 35.4354 128.423 35.0832 127.731 34.5743L127.139 35.38L126.546 36.1856C127.486 36.8768 128.558 37.3406 129.746 37.5837L129.947 36.604ZM127.139 35.38L127.757 34.5945C127.128 34.0983 126.583 33.363 126.154 32.3314L125.231 32.716L124.307 33.1006C124.838 34.373 125.565 35.4137 126.52 36.1655L127.139 35.38ZM125.231 32.716L126.163 32.3545C125.768 31.3365 125.547 29.9364 125.547 28.108H124.547H123.547C123.547 30.0716 123.781 31.7435 124.298 33.0775L125.231 32.716ZM124.547 28.108H125.547C125.547 26.4888 125.764 25.1492 126.168 24.0651L125.231 23.716L124.293 23.3669C123.785 24.7308 123.547 26.3192 123.547 28.108H124.547ZM125.231 23.716L126.168 24.0651C126.596 22.9144 127.084 22.058 127.606 21.4549L126.851 20.8L126.095 20.1451C125.369 20.982 124.777 22.0696 124.293 23.3669L125.231 23.716ZM126.851 20.8L127.594 21.469C128.2 20.7951 128.643 20.5084 128.918 20.4209L128.615 19.468L128.311 18.5151C127.53 18.7636 126.797 19.3649 126.107 20.131L126.851 20.8ZM128.615 19.468L129.582 19.2135L129.402 18.5295L128.435 18.784L127.467 19.0385L127.647 19.7225L128.615 19.468ZM128.435 18.784V17.784H127.823V18.784V19.784H128.435V18.784ZM127.823 18.784V17.784C126.947 17.784 126.354 17.5182 125.926 17.0586L125.195 17.74L124.463 18.4214C125.331 19.3538 126.49 19.784 127.823 19.784V18.784ZM125.195 17.74L125.95 17.0851C125.519 16.5871 125.243 15.8625 125.222 14.8044L124.223 14.824L123.223 14.8436C123.25 16.2335 123.622 17.4529 124.439 18.3949L125.195 17.74ZM124.223 14.824L125.222 14.804C125.202 13.7942 125.462 13.1017 125.902 12.613L125.159 11.944L124.415 11.275C123.559 12.2263 123.195 13.4538 123.223 14.844L124.223 14.824ZM125.159 11.944L125.89 12.6263C126.349 12.1345 126.959 11.864 127.823 11.864V10.864V9.864C126.478 9.864 125.312 10.3135 124.427 11.2617L125.159 11.944ZM127.823 10.864V11.864H140.747V10.864V9.864H127.823V10.864ZM140.747 10.864V11.864C141.893 11.864 142.566 12.1331 142.953 12.4946C143.327 12.8442 143.599 13.4361 143.599 14.464H144.599H145.599C145.599 13.0919 145.228 11.8838 144.318 11.0334C143.421 10.1949 142.168 9.864 140.747 9.864V10.864ZM144.599 14.464H143.599C143.599 15.3405 143.352 15.937 142.942 16.3624L143.663 17.056L144.383 17.7496C145.221 16.879 145.599 15.7475 145.599 14.464H144.599ZM143.663 17.056L142.942 16.3624C142.58 16.7387 141.922 17.028 140.747 17.028V18.028V19.028C142.211 19.028 143.497 18.6693 144.383 17.7496L143.663 17.056ZM140.747 18.028V17.028H133.295V18.028V19.028H140.747V18.028ZM133.295 18.028V17.028C132.654 17.028 132.004 17.2211 131.538 17.7628C131.096 18.2756 130.963 18.9396 130.963 19.576H131.963H132.963C132.963 19.1804 133.051 19.0704 133.054 19.0672C133.055 19.0659 133.055 19.0661 133.055 19.066C133.055 19.0657 133.06 19.0622 133.073 19.0572C133.1 19.0467 133.167 19.028 133.295 19.028V18.028ZM131.963 19.576H130.963V22.276H131.963H132.963V19.576H131.963ZM131.963 22.276L132.177 23.2526C133.397 22.9844 134.662 22.6679 135.974 22.3035L135.707 21.34L135.439 20.3765C134.159 20.7321 132.928 21.0396 131.748 21.2994L131.963 22.276ZM135.707 21.34L135.97 22.3048C137.218 21.9644 138.377 21.8 139.451 21.8V20.8V19.8C138.173 19.8 136.836 19.9956 135.443 20.3752L135.707 21.34ZM139.451 20.8V21.8C140.453 21.8 141.003 22.0267 141.296 22.2945L141.971 21.556L142.645 20.8175C141.834 20.0773 140.704 19.8 139.451 19.8V20.8ZM141.971 21.556L141.33 22.3242C141.649 22.5899 141.835 22.9525 141.835 23.536H142.835H143.835C143.835 22.4394 143.444 21.4821 142.611 20.7878L141.971 21.556ZM142.835 23.536H141.835C141.835 24.1531 141.642 24.547 141.312 24.8354L141.971 25.588L142.629 26.3406C143.451 25.621 143.835 24.6469 143.835 23.536H142.835ZM141.971 25.588L141.314 24.8334C141.012 25.096 140.444 25.3226 139.429 25.3442L139.451 26.344L139.472 27.3438C140.713 27.3174 141.825 27.04 142.627 26.3426L141.971 25.588ZM139.451 26.344L139.43 25.3442C138.364 25.366 137.212 25.2141 135.97 24.8752L135.707 25.84L135.443 26.8048C136.841 27.1859 138.185 27.37 139.471 27.3438L139.451 26.344ZM135.707 25.84L135.97 24.8752C134.635 24.5114 133.359 24.1953 132.141 23.9274L131.927 24.904L131.712 25.8806C132.894 26.1407 134.138 26.4486 135.443 26.8048L135.707 25.84ZM131.927 24.904H130.927V29.62H131.927H132.927V24.904H131.927ZM131.927 29.62H130.927C130.927 30.2285 131.087 30.9133 131.662 31.3729L132.287 30.592L132.911 29.8111C132.928 29.8244 132.941 29.8389 132.949 29.8511C132.957 29.8627 132.958 29.8668 132.954 29.8577C132.946 29.8361 132.927 29.7652 132.927 29.62H131.927ZM132.287 30.592L131.75 31.4357C132.153 31.6925 132.596 31.7138 132.964 31.6488C133.323 31.5855 133.675 31.432 134.003 31.2466L133.511 30.376L133.018 29.5054C132.911 29.5662 132.823 29.6083 132.752 29.6365C132.681 29.665 132.637 29.6757 132.617 29.6792C132.577 29.6862 132.684 29.6595 132.823 29.7483L132.287 30.592ZM133.511 30.376L134.012 31.241C135.166 30.572 136.286 30.0475 137.372 29.6626L137.039 28.72L136.705 27.7774C135.487 28.2085 134.255 28.788 133.009 29.511L133.511 30.376ZM137.039 28.72L137.39 29.6563C138.442 29.2616 139.451 29.072 140.423 29.072V28.072V27.072C139.186 27.072 137.939 27.3144 136.687 27.7837L137.039 28.72ZM140.423 28.072V29.072C141.815 29.072 142.691 29.4339 143.233 29.9925L143.951 29.296L144.668 28.5995C143.626 27.5261 142.15 27.072 140.423 27.072V28.072ZM143.951 29.296L143.243 30.0031C143.844 30.6042 144.175 31.4038 144.175 32.5H145.175H146.175C146.175 30.9562 145.689 29.6198 144.658 28.5889L143.951 29.296ZM145.175 32.5H144.175C144.175 33.7 143.818 34.4922 143.214 35.0286L143.879 35.776L144.543 36.5234C145.667 35.5238 146.175 34.132 146.175 32.5H145.175ZM143.879 35.776L143.204 35.038C142.637 35.5559 141.576 35.928 139.775 35.928V36.928V37.928C141.765 37.928 143.44 37.5321 144.553 36.514L143.879 35.776ZM139.775 36.928V35.928H133.331V36.928V37.928H139.775V36.928Z" fill="#9B8AFA" mask="url(#path-2-inside-1_214_6)"/>
<mask id="path-4-outside-2_214_6" maskUnits="userSpaceOnUse" x="64" y="44" width="84" height="27" fill="black">
<rect fill="white" x="64" y="44" width="84" height="27"/>
<path d="M68.904 52.808C67.8373 52.808 66.9627 52.4987 66.28 51.88C65.6187 51.2613 65.288 50.408 65.288 49.32C65.288 48.2533 65.5867 47.4 66.184 46.76C66.8027 46.0987 67.7093 45.768 68.904 45.768H82.696C83.8907 45.768 84.7867 46.0987 85.384 46.76C86.0027 47.4 86.312 48.2533 86.312 49.32C86.312 50.408 85.9707 51.2613 85.288 51.88C84.6267 52.4987 83.7627 52.808 82.696 52.808C81.9707 52.808 81.384 52.7333 80.936 52.584C80.5093 52.4133 80.1573 52.2213 79.88 52.008C79.6027 51.7733 79.336 51.5813 79.08 51.432C78.824 51.2613 78.504 51.176 78.12 51.176L77.832 51.752C77.9173 51.944 78.0667 52.2213 78.28 52.584C78.4933 52.9253 78.696 53.4267 78.888 54.088C79.08 54.728 79.176 55.6027 79.176 56.712V65.96C79.176 66.8347 78.8453 67.56 78.184 68.136C77.544 68.712 76.7547 69 75.816 69C74.856 69 74.0453 68.712 73.384 68.136C72.744 67.56 72.424 66.8347 72.424 65.96V56.712C72.424 55.6027 72.52 54.728 72.712 54.088C72.904 53.4267 73.1067 52.9253 73.32 52.584C73.5547 52.2213 73.7147 51.944 73.8 51.752L73.48 51.176C73.096 51.176 72.776 51.2613 72.52 51.432C72.264 51.5813 71.9973 51.7733 71.72 52.008C71.4427 52.2213 71.0907 52.4133 70.664 52.584C70.2373 52.7333 69.6507 52.808 68.904 52.808ZM95.4258 68.936C94.3804 68.936 93.3778 68.84 92.4178 68.648C91.4791 68.456 90.6471 68.0933 89.9218 67.56C89.2178 67.0053 88.6524 66.216 88.2258 65.192C87.8204 64.1467 87.6178 62.7813 87.6178 61.096C87.6178 59.5813 87.8204 58.28 88.2258 57.192C88.6311 56.104 89.1111 55.24 89.6658 54.6C90.2418 53.96 90.7644 53.5653 91.2338 53.416L91.0738 52.808H90.5298C89.5484 52.808 88.7698 52.4987 88.1938 51.88C87.6391 51.24 87.3511 50.376 87.3298 49.288C87.3084 48.2213 87.5858 47.368 88.1618 46.728C88.7591 46.088 89.5484 45.768 90.5298 45.768H102.018C104.3 45.768 105.442 46.8347 105.442 48.968C105.442 49.928 105.164 50.696 104.61 51.272C104.055 51.848 103.191 52.136 102.018 52.136H95.3938C94.6044 52.136 94.2098 52.5947 94.2098 53.512V55.912C95.2764 55.6773 96.3858 55.4 97.5378 55.08C98.7111 54.76 99.8204 54.6 100.866 54.6C101.868 54.6 102.615 54.824 103.106 55.272C103.618 55.6987 103.874 56.2853 103.874 57.032C103.874 57.8 103.618 58.408 103.106 58.856C102.615 59.2827 101.868 59.5067 100.866 59.528C99.8204 59.5493 98.7111 59.4 97.5378 59.08C96.3644 58.76 95.2444 58.4827 94.1778 58.248V62.44C94.1778 62.8453 94.2844 63.1333 94.4978 63.304C94.7324 63.4533 95.0951 63.3893 95.5858 63.112C96.6524 62.4933 97.6978 62.0027 98.7218 61.64C99.7458 61.256 100.748 61.064 101.73 61.064C103.116 61.064 104.162 61.4267 104.866 62.152C105.591 62.8773 105.954 63.8267 105.954 65C105.954 66.2587 105.57 67.2293 104.802 67.912C104.055 68.5947 102.839 68.936 101.154 68.936H95.4258ZM117.313 69.064C115.223 69.064 113.335 68.6373 111.649 67.784C109.985 66.9093 108.673 65.6187 107.713 63.912C106.753 62.2053 106.273 60.104 106.273 57.608C106.273 55.112 106.753 52.9573 107.713 51.144C108.695 49.3307 110.028 47.944 111.713 46.984C113.42 46.0027 115.361 45.512 117.537 45.512C120.055 45.512 121.985 45.864 123.329 46.568C124.673 47.272 125.345 48.3173 125.345 49.704C125.345 50.7707 125.057 51.656 124.481 52.36C123.905 53.0427 123.116 53.384 122.113 53.384C121.26 53.384 120.428 53.2773 119.617 53.064C118.828 52.8293 117.9 52.712 116.833 52.712C115.468 52.712 114.391 53.1067 113.601 53.896C112.812 54.6853 112.417 55.72 112.417 57C112.417 58.2587 112.812 59.3147 113.601 60.168C114.391 61 115.468 61.416 116.833 61.416C117.559 61.416 118.22 61.3627 118.817 61.256C119.436 61.128 120.033 61 120.609 60.872C121.207 60.744 121.847 60.68 122.529 60.68C123.66 60.68 124.492 61.0533 125.025 61.8C125.559 62.5253 125.825 63.432 125.825 64.52C125.825 65.608 125.431 66.4933 124.641 67.176C123.852 67.8373 122.807 68.3173 121.505 68.616C120.225 68.9147 118.828 69.064 117.313 69.064ZM130.885 68.904C129.903 68.904 129.093 68.6053 128.453 68.008C127.813 67.4107 127.493 66.6533 127.493 65.736V48.808C127.493 47.8693 127.802 47.0907 128.421 46.472C129.039 45.832 129.85 45.512 130.853 45.512C131.919 45.512 132.751 45.832 133.349 46.472C133.946 47.0907 134.245 47.848 134.245 48.744V54.664H140.197V48.808C140.197 47.8693 140.506 47.0907 141.125 46.472C141.743 45.832 142.575 45.512 143.621 45.512C144.666 45.512 145.487 45.832 146.085 46.472C146.682 47.0907 146.981 47.848 146.981 48.744V65.736C146.981 66.6533 146.661 67.4107 146.021 68.008C145.402 68.6053 144.623 68.904 143.685 68.904C142.661 68.904 141.818 68.6053 141.157 68.008C140.517 67.4107 140.197 66.6533 140.197 65.736V59.368H134.245V65.736C134.245 66.6533 133.925 67.4107 133.285 68.008C132.666 68.6053 131.866 68.904 130.885 68.904Z"/>
</mask>
<path d="M68.904 52.808C67.8373 52.808 66.9627 52.4987 66.28 51.88C65.6187 51.2613 65.288 50.408 65.288 49.32C65.288 48.2533 65.5867 47.4 66.184 46.76C66.8027 46.0987 67.7093 45.768 68.904 45.768H82.696C83.8907 45.768 84.7867 46.0987 85.384 46.76C86.0027 47.4 86.312 48.2533 86.312 49.32C86.312 50.408 85.9707 51.2613 85.288 51.88C84.6267 52.4987 83.7627 52.808 82.696 52.808C81.9707 52.808 81.384 52.7333 80.936 52.584C80.5093 52.4133 80.1573 52.2213 79.88 52.008C79.6027 51.7733 79.336 51.5813 79.08 51.432C78.824 51.2613 78.504 51.176 78.12 51.176L77.832 51.752C77.9173 51.944 78.0667 52.2213 78.28 52.584C78.4933 52.9253 78.696 53.4267 78.888 54.088C79.08 54.728 79.176 55.6027 79.176 56.712V65.96C79.176 66.8347 78.8453 67.56 78.184 68.136C77.544 68.712 76.7547 69 75.816 69C74.856 69 74.0453 68.712 73.384 68.136C72.744 67.56 72.424 66.8347 72.424 65.96V56.712C72.424 55.6027 72.52 54.728 72.712 54.088C72.904 53.4267 73.1067 52.9253 73.32 52.584C73.5547 52.2213 73.7147 51.944 73.8 51.752L73.48 51.176C73.096 51.176 72.776 51.2613 72.52 51.432C72.264 51.5813 71.9973 51.7733 71.72 52.008C71.4427 52.2213 71.0907 52.4133 70.664 52.584C70.2373 52.7333 69.6507 52.808 68.904 52.808ZM95.4258 68.936C94.3804 68.936 93.3778 68.84 92.4178 68.648C91.4791 68.456 90.6471 68.0933 89.9218 67.56C89.2178 67.0053 88.6524 66.216 88.2258 65.192C87.8204 64.1467 87.6178 62.7813 87.6178 61.096C87.6178 59.5813 87.8204 58.28 88.2258 57.192C88.6311 56.104 89.1111 55.24 89.6658 54.6C90.2418 53.96 90.7644 53.5653 91.2338 53.416L91.0738 52.808H90.5298C89.5484 52.808 88.7698 52.4987 88.1938 51.88C87.6391 51.24 87.3511 50.376 87.3298 49.288C87.3084 48.2213 87.5858 47.368 88.1618 46.728C88.7591 46.088 89.5484 45.768 90.5298 45.768H102.018C104.3 45.768 105.442 46.8347 105.442 48.968C105.442 49.928 105.164 50.696 104.61 51.272C104.055 51.848 103.191 52.136 102.018 52.136H95.3938C94.6044 52.136 94.2098 52.5947 94.2098 53.512V55.912C95.2764 55.6773 96.3858 55.4 97.5378 55.08C98.7111 54.76 99.8204 54.6 100.866 54.6C101.868 54.6 102.615 54.824 103.106 55.272C103.618 55.6987 103.874 56.2853 103.874 57.032C103.874 57.8 103.618 58.408 103.106 58.856C102.615 59.2827 101.868 59.5067 100.866 59.528C99.8204 59.5493 98.7111 59.4 97.5378 59.08C96.3644 58.76 95.2444 58.4827 94.1778 58.248V62.44C94.1778 62.8453 94.2844 63.1333 94.4978 63.304C94.7324 63.4533 95.0951 63.3893 95.5858 63.112C96.6524 62.4933 97.6978 62.0027 98.7218 61.64C99.7458 61.256 100.748 61.064 101.73 61.064C103.116 61.064 104.162 61.4267 104.866 62.152C105.591 62.8773 105.954 63.8267 105.954 65C105.954 66.2587 105.57 67.2293 104.802 67.912C104.055 68.5947 102.839 68.936 101.154 68.936H95.4258ZM117.313 69.064C115.223 69.064 113.335 68.6373 111.649 67.784C109.985 66.9093 108.673 65.6187 107.713 63.912C106.753 62.2053 106.273 60.104 106.273 57.608C106.273 55.112 106.753 52.9573 107.713 51.144C108.695 49.3307 110.028 47.944 111.713 46.984C113.42 46.0027 115.361 45.512 117.537 45.512C120.055 45.512 121.985 45.864 123.329 46.568C124.673 47.272 125.345 48.3173 125.345 49.704C125.345 50.7707 125.057 51.656 124.481 52.36C123.905 53.0427 123.116 53.384 122.113 53.384C121.26 53.384 120.428 53.2773 119.617 53.064C118.828 52.8293 117.9 52.712 116.833 52.712C115.468 52.712 114.391 53.1067 113.601 53.896C112.812 54.6853 112.417 55.72 112.417 57C112.417 58.2587 112.812 59.3147 113.601 60.168C114.391 61 115.468 61.416 116.833 61.416C117.559 61.416 118.22 61.3627 118.817 61.256C119.436 61.128 120.033 61 120.609 60.872C121.207 60.744 121.847 60.68 122.529 60.68C123.66 60.68 124.492 61.0533 125.025 61.8C125.559 62.5253 125.825 63.432 125.825 64.52C125.825 65.608 125.431 66.4933 124.641 67.176C123.852 67.8373 122.807 68.3173 121.505 68.616C120.225 68.9147 118.828 69.064 117.313 69.064ZM130.885 68.904C129.903 68.904 129.093 68.6053 128.453 68.008C127.813 67.4107 127.493 66.6533 127.493 65.736V48.808C127.493 47.8693 127.802 47.0907 128.421 46.472C129.039 45.832 129.85 45.512 130.853 45.512C131.919 45.512 132.751 45.832 133.349 46.472C133.946 47.0907 134.245 47.848 134.245 48.744V54.664H140.197V48.808C140.197 47.8693 140.506 47.0907 141.125 46.472C141.743 45.832 142.575 45.512 143.621 45.512C144.666 45.512 145.487 45.832 146.085 46.472C146.682 47.0907 146.981 47.848 146.981 48.744V65.736C146.981 66.6533 146.661 67.4107 146.021 68.008C145.402 68.6053 144.623 68.904 143.685 68.904C142.661 68.904 141.818 68.6053 141.157 68.008C140.517 67.4107 140.197 66.6533 140.197 65.736V59.368H134.245V65.736C134.245 66.6533 133.925 67.4107 133.285 68.008C132.666 68.6053 131.866 68.904 130.885 68.904Z" fill="white"/>
<path d="M66.28 51.88L65.5968 52.6103L65.6026 52.6157L65.6085 52.621L66.28 51.88ZM66.184 46.76L65.4537 46.0768L65.4529 46.0777L66.184 46.76ZM85.384 46.76L84.6419 47.4303L84.6532 47.4428L84.665 47.455L85.384 46.76ZM85.288 51.88L84.6165 51.139L84.6106 51.1443L84.6048 51.1497L85.288 51.88ZM80.936 52.584L80.5646 53.5125L80.5919 53.5234L80.6198 53.5327L80.936 52.584ZM79.88 52.008L79.2341 52.7714L79.2518 52.7864L79.2703 52.8006L79.88 52.008ZM79.08 51.432L78.5253 52.264L78.5502 52.2807L78.5761 52.2958L79.08 51.432ZM78.12 51.176V50.176H77.502L77.2256 50.7288L78.12 51.176ZM77.832 51.752L76.9376 51.3048L76.7265 51.7269L76.9182 52.1581L77.832 51.752ZM78.28 52.584L77.4181 53.091L77.4249 53.1026L77.432 53.114L78.28 52.584ZM78.888 54.088L77.9276 54.3668L77.9302 54.3753L78.888 54.088ZM78.184 68.136L77.5272 67.3819L77.5211 67.3873L77.515 67.3927L78.184 68.136ZM73.384 68.136L72.715 68.8793L72.7211 68.8847L72.7272 68.8901L73.384 68.136ZM72.712 54.088L73.6699 54.3754L73.6723 54.3668L72.712 54.088ZM73.32 52.584L72.4804 52.0407L72.4762 52.0473L72.472 52.054L73.32 52.584ZM73.8 51.752L74.7138 52.1581L74.9164 51.7024L74.6742 51.2664L73.8 51.752ZM73.48 51.176L74.3542 50.6904L74.0684 50.176H73.48V51.176ZM72.52 51.432L73.0239 52.2958L73.0498 52.2807L73.0747 52.264L72.52 51.432ZM71.72 52.008L72.3297 52.8006L72.3482 52.7864L72.3659 52.7714L71.72 52.008ZM70.664 52.584L70.9943 53.5279L71.015 53.5206L71.0354 53.5125L70.664 52.584ZM68.904 52.808V51.808C68.0438 51.808 67.4215 51.5649 66.9515 51.139L66.28 51.88L65.6085 52.621C66.5038 53.4324 67.6309 53.808 68.904 53.808V52.808ZM66.28 51.88L66.9632 51.1497C66.5441 50.7577 66.288 50.1915 66.288 49.32H65.288H64.288C64.288 50.6245 64.6932 51.7649 65.5968 52.6103L66.28 51.88ZM65.288 49.32H66.288C66.288 48.4483 66.5266 47.8585 66.9151 47.4423L66.184 46.76L65.4529 46.0777C64.6467 46.9415 64.288 48.0584 64.288 49.32H65.288ZM66.184 46.76L66.9143 47.4432C67.2887 47.0429 67.8935 46.768 68.904 46.768V45.768V44.768C67.5251 44.768 66.3166 45.1545 65.4537 46.0768L66.184 46.76ZM68.904 45.768V46.768H82.696V45.768V44.768H68.904V45.768ZM82.696 45.768V46.768C83.7088 46.768 84.2927 47.0436 84.6419 47.4303L85.384 46.76L86.1261 46.0897C85.2807 45.1537 84.0726 44.768 82.696 44.768V45.768ZM85.384 46.76L84.665 47.455C85.0686 47.8726 85.312 48.4579 85.312 49.32H86.312H87.312C87.312 48.0488 86.9367 46.9274 86.103 46.065L85.384 46.76ZM86.312 49.32H85.312C85.312 50.1815 85.0519 50.7444 84.6165 51.139L85.288 51.88L85.9595 52.621C86.8894 51.7783 87.312 50.6345 87.312 49.32H86.312ZM85.288 51.88L84.6048 51.1497C84.1611 51.5648 83.5571 51.808 82.696 51.808V52.808V53.808C83.9683 53.808 85.0922 53.4325 85.9712 52.6103L85.288 51.88ZM82.696 52.808V51.808C82.027 51.808 81.559 51.7376 81.2522 51.6353L80.936 52.584L80.6198 53.5327C81.209 53.7291 81.9144 53.808 82.696 53.808V52.808ZM80.936 52.584L81.3074 51.6555C80.941 51.509 80.6756 51.3583 80.4897 51.2154L79.88 52.008L79.2703 52.8006C79.6391 53.0843 80.0777 53.3177 80.5646 53.5125L80.936 52.584ZM79.88 52.008L80.5259 51.2446C80.2138 50.9805 79.8998 50.7525 79.5839 50.5682L79.08 51.432L78.5761 52.2958C78.7722 52.4102 78.9916 52.5662 79.2341 52.7714L79.88 52.008ZM79.08 51.432L79.6347 50.5999C79.1779 50.2954 78.6523 50.176 78.12 50.176V51.176V52.176C78.3557 52.176 78.4701 52.2273 78.5253 52.264L79.08 51.432ZM78.12 51.176L77.2256 50.7288L76.9376 51.3048L77.832 51.752L78.7264 52.1992L79.0144 51.6232L78.12 51.176ZM77.832 51.752L76.9182 52.1581C77.0275 52.404 77.2005 52.7212 77.4181 53.091L78.28 52.584L79.1419 52.077C78.9328 51.7215 78.8072 51.484 78.7458 51.3459L77.832 51.752ZM78.28 52.584L77.432 53.114C77.5739 53.3411 77.7459 53.7408 77.9277 54.3668L78.888 54.088L79.8483 53.8092C79.6461 53.1126 79.4127 52.5096 79.128 52.054L78.28 52.584ZM78.888 54.088L77.9302 54.3753C78.0819 54.881 78.176 55.6448 78.176 56.712H79.176H80.176C80.176 55.5605 80.0781 54.575 79.8458 53.8007L78.888 54.088ZM79.176 56.712H78.176V65.96H79.176H80.176V56.712H79.176ZM79.176 65.96H78.176C78.176 66.5446 77.9712 66.9953 77.5272 67.3819L78.184 68.136L78.8408 68.8901C79.7195 68.1248 80.176 67.1247 80.176 65.96H79.176ZM78.184 68.136L77.515 67.3927C77.0759 67.788 76.5318 68 75.816 68V69V70C76.9776 70 78.0122 69.636 78.853 68.8793L78.184 68.136ZM75.816 69V68C75.0728 68 74.5023 67.7839 74.0408 67.3819L73.384 68.136L72.7272 68.8901C73.5884 69.6401 74.6392 70 75.816 70V69ZM73.384 68.136L74.053 67.3927C73.6275 67.0098 73.424 66.5563 73.424 65.96H72.424H71.424C71.424 67.113 71.8605 68.1102 72.715 68.8793L73.384 68.136ZM72.424 65.96H73.424V56.712H72.424H71.424V65.96H72.424ZM72.424 56.712H73.424C73.424 55.6448 73.5181 54.881 73.6698 54.3753L72.712 54.088L71.7542 53.8007C71.5219 54.575 71.424 55.5605 71.424 56.712H72.424ZM72.712 54.088L73.6723 54.3668C73.8541 53.7408 74.0261 53.3411 74.168 53.114L73.32 52.584L72.472 52.054C72.1873 52.5096 71.9539 53.1126 71.7517 53.8092L72.712 54.088ZM73.32 52.584L74.1596 53.1273C74.3995 52.7564 74.5952 52.425 74.7138 52.1581L73.8 51.752L72.8862 51.3459C72.8341 51.463 72.7098 51.6862 72.4804 52.0407L73.32 52.584ZM73.8 51.752L74.6742 51.2664L74.3542 50.6904L73.48 51.176L72.6058 51.6616L72.9258 52.2376L73.8 51.752ZM73.48 51.176V50.176C72.9477 50.176 72.4221 50.2954 71.9653 50.5999L72.52 51.432L73.0747 52.264C73.1299 52.2273 73.2443 52.176 73.48 52.176V51.176ZM72.52 51.432L72.0161 50.5682C71.7002 50.7525 71.3862 50.9805 71.0741 51.2446L71.72 52.008L72.3659 52.7714C72.6084 52.5662 72.8278 52.4102 73.0239 52.2958L72.52 51.432ZM71.72 52.008L71.1103 51.2154C70.9244 51.3583 70.659 51.509 70.2926 51.6555L70.664 52.584L71.0354 53.5125C71.5223 53.3177 71.9609 53.0843 72.3297 52.8006L71.72 52.008ZM70.664 52.584L70.3337 51.6401C70.0599 51.736 69.6016 51.808 68.904 51.808V52.808V53.808C69.6998 53.808 70.4148 53.7307 70.9943 53.5279L70.664 52.584ZM92.4178 68.648L92.2174 69.6277L92.2216 69.6286L92.4178 68.648ZM89.9217 67.56L89.3029 68.3455L89.316 68.3558L89.3294 68.3657L89.9217 67.56ZM88.2257 65.192L87.2934 65.5535L87.2979 65.5651L87.3027 65.5766L88.2257 65.192ZM88.2257 57.192L89.1628 57.5411V57.5411L88.2257 57.192ZM89.6658 54.6L88.9225 53.931L88.9162 53.938L88.9101 53.9451L89.6658 54.6ZM91.2337 53.416L91.537 54.3689L92.4427 54.0807L92.2008 53.1615L91.2337 53.416ZM91.0737 52.808L92.0408 52.5535L91.8446 51.808H91.0737V52.808ZM88.1938 51.88L87.4381 52.5349L87.4497 52.5484L87.4619 52.5614L88.1938 51.88ZM87.3298 49.288L88.3296 49.2684L88.3295 49.268L87.3298 49.288ZM88.1618 46.728L87.4307 46.0457L87.4245 46.0523L87.4185 46.059L88.1618 46.728ZM94.2098 55.912H93.2098V57.1559L94.4246 56.8886L94.2098 55.912ZM97.5378 55.08L97.2746 54.1152L97.2701 54.1165L97.5378 55.08ZM103.106 55.272L102.431 56.0105L102.448 56.0257L102.466 56.0402L103.106 55.272ZM103.106 58.856L103.762 59.6106L103.764 59.6086L103.106 58.856ZM100.866 59.528L100.886 60.5278L100.887 60.5278L100.866 59.528ZM97.5378 59.08L97.2746 60.0448H97.2746L97.5378 59.08ZM94.1777 58.248L94.3926 57.2714L93.1777 57.0041V58.248H94.1777ZM94.4977 63.304L93.8731 64.0849L93.9153 64.1186L93.9609 64.1477L94.4977 63.304ZM95.5858 63.112L96.0778 63.9826L96.0875 63.977L95.5858 63.112ZM98.7217 61.64L99.0556 62.5826L99.0643 62.5796L99.0729 62.5763L98.7217 61.64ZM104.866 62.152L104.148 62.8485L104.153 62.8538L104.159 62.8591L104.866 62.152ZM104.802 67.912L104.137 67.1645L104.127 67.174L104.802 67.912ZM95.4258 68.936V67.936C94.4419 67.936 93.5051 67.8457 92.6139 67.6674L92.4178 68.648L92.2216 69.6286C93.2504 69.8343 94.319 69.936 95.4258 69.936V68.936ZM92.4178 68.648L92.6181 67.6683C91.8119 67.5034 91.1155 67.1966 90.5141 66.7543L89.9217 67.56L89.3294 68.3657C90.1786 68.9901 91.1462 69.4086 92.2174 69.6277L92.4178 68.648ZM89.9217 67.56L90.5406 66.7745C89.9988 66.3476 89.5253 65.711 89.1488 64.8074L88.2257 65.192L87.3027 65.5766C87.7795 66.721 88.4367 67.663 89.3029 68.3455L89.9217 67.56ZM88.2257 65.192L89.1581 64.8305C88.8141 63.9432 88.6178 62.7138 88.6178 61.096H87.6178H86.6178C86.6178 62.8489 86.8268 64.3501 87.2934 65.5535L88.2257 65.192ZM87.6178 61.096H88.6178C88.6178 59.6661 88.8096 58.4892 89.1628 57.5411L88.2257 57.192L87.2887 56.8429C86.8312 58.0708 86.6178 59.4965 86.6178 61.096H87.6178ZM88.2257 57.192L89.1628 57.5411C89.5409 56.5264 89.9681 55.778 90.4214 55.2549L89.6658 54.6L88.9101 53.9451C88.254 54.702 87.7213 55.6816 87.2887 56.8429L88.2257 57.192ZM89.6658 54.6L90.409 55.269C90.9435 54.6751 91.3207 54.4377 91.537 54.3689L91.2337 53.416L90.9305 52.4631C90.2081 52.6929 89.54 53.2449 88.9225 53.931L89.6658 54.6ZM91.2337 53.416L92.2008 53.1615L92.0408 52.5535L91.0737 52.808L90.1067 53.0625L90.2667 53.6705L91.2337 53.416ZM91.0737 52.808V51.808H90.5298V52.808V53.808H91.0737V52.808ZM90.5298 52.808V51.808C89.7772 51.808 89.2816 51.5809 88.9256 51.1986L88.1938 51.88L87.4619 52.5614C88.2579 53.4165 89.3197 53.808 90.5298 53.808V52.808ZM88.1938 51.88L88.9494 51.2251C88.5872 50.8071 88.3476 50.1905 88.3296 49.2684L87.3298 49.288L86.3299 49.3076C86.3545 50.5615 86.691 51.6729 87.4381 52.5349L88.1938 51.88ZM87.3298 49.288L88.3295 49.268C88.312 48.3916 88.5372 47.8057 88.905 47.397L88.1618 46.728L87.4185 46.059C86.6343 46.9303 86.3048 48.0511 86.33 49.308L87.3298 49.288ZM88.1618 46.728L88.8928 47.4103C89.2771 46.9985 89.7886 46.768 90.5298 46.768V45.768V44.768C89.3083 44.768 88.241 45.1775 87.4307 46.0457L88.1618 46.728ZM90.5298 45.768V46.768H102.018V45.768V44.768H90.5298V45.768ZM102.018 45.768V46.768C103.021 46.768 103.587 47.0038 103.903 47.2986C104.206 47.5815 104.442 48.0735 104.442 48.968H105.442H106.442C106.442 47.7292 106.107 46.6212 105.269 45.8374C104.443 45.0655 103.297 44.768 102.018 44.768V45.768ZM105.442 48.968H104.442C104.442 49.7245 104.23 50.225 103.889 50.5784L104.61 51.272L105.33 51.9656C106.099 51.167 106.442 50.1315 106.442 48.968H105.442ZM104.61 51.272L103.889 50.5784C103.596 50.8827 103.047 51.136 102.018 51.136V52.136V53.136C103.336 53.136 104.514 52.8133 105.33 51.9656L104.61 51.272ZM102.018 52.136V51.136H95.3937V52.136V53.136H102.018V52.136ZM95.3937 52.136V51.136C94.8024 51.136 94.1891 51.3148 93.7477 51.8278C93.3311 52.312 93.2098 52.9329 93.2098 53.512H94.2098H95.2098C95.2098 53.1738 95.2857 53.1067 95.2638 53.1322C95.2499 53.1484 95.2345 53.1555 95.237 53.1545C95.2455 53.1512 95.291 53.136 95.3937 53.136V52.136ZM94.2098 53.512H93.2098V55.912H94.2098H95.2098V53.512H94.2098ZM94.2098 55.912L94.4246 56.8886C95.5106 56.6497 96.6375 56.3679 97.8054 56.0435L97.5378 55.08L97.2701 54.1165C96.134 54.4321 95.0423 54.7049 93.9949 54.9354L94.2098 55.912ZM97.5378 55.08L97.8009 56.0448C98.9021 55.7444 99.9224 55.6 100.866 55.6V54.6V53.6C99.7184 53.6 98.5201 53.7756 97.2746 54.1152L97.5378 55.08ZM100.866 54.6V55.6C101.742 55.6 102.2 55.7987 102.431 56.0105L103.106 55.272L103.78 54.5335C103.031 53.8493 101.994 53.6 100.866 53.6V54.6ZM103.106 55.272L102.466 56.0402C102.72 56.2526 102.874 56.5419 102.874 57.032H103.874H104.874C104.874 56.0288 104.515 55.1448 103.746 54.5038L103.106 55.272ZM103.874 57.032H102.874C102.874 57.5531 102.713 57.871 102.447 58.1034L103.106 58.856L103.764 59.6086C104.523 58.945 104.874 58.0469 104.874 57.032H103.874ZM103.106 58.856L102.45 58.1014C102.209 58.3106 101.734 58.5093 100.844 58.5282L100.866 59.528L100.887 60.5278C102.003 60.504 103.021 60.2547 103.762 59.6106L103.106 58.856ZM100.866 59.528L100.845 58.5282C99.9098 58.5473 98.8965 58.4141 97.8009 58.1152L97.5378 59.08L97.2746 60.0448C98.5256 60.3859 99.731 60.5514 100.886 60.5278L100.866 59.528ZM97.5378 59.08L97.8009 58.1152C96.6133 57.7914 95.4772 57.51 94.3926 57.2714L94.1777 58.248L93.9629 59.2246C95.0117 59.4554 96.1155 59.7286 97.2746 60.0448L97.5378 59.08ZM94.1777 58.248H93.1777V62.44H94.1777H95.1777V58.248H94.1777ZM94.1777 62.44H93.1777C93.1777 62.9979 93.3253 63.6467 93.8731 64.0849L94.4977 63.304L95.1224 62.5231C95.1457 62.5417 95.1644 62.5625 95.1779 62.5818C95.191 62.6006 95.1955 62.6128 95.1955 62.6127C95.1953 62.6121 95.1906 62.5992 95.1861 62.5699C95.1816 62.5406 95.1777 62.4981 95.1777 62.44H94.1777ZM94.4977 63.304L93.9609 64.1477C94.3499 64.3952 94.7735 64.4138 95.1195 64.3528C95.4555 64.2935 95.7804 64.1507 96.0778 63.9826L95.5858 63.112L95.0937 62.2414C95.0016 62.2935 94.9275 62.3287 94.8704 62.3515C94.8125 62.3747 94.7808 62.3817 94.772 62.3832C94.7633 62.3847 94.789 62.3789 94.8392 62.3861C94.8932 62.3938 94.9635 62.4151 95.0346 62.4603L94.4977 63.304ZM95.5858 63.112L96.0875 63.977C97.1077 63.3853 98.097 62.9221 99.0556 62.5826L98.7217 61.64L98.3879 60.6974C97.2985 61.0832 96.1971 61.6014 95.084 62.247L95.5858 63.112ZM98.7217 61.64L99.0729 62.5763C99.9974 62.2296 100.881 62.064 101.73 62.064V61.064V60.064C100.616 60.064 99.4941 60.2824 98.3706 60.7037L98.7217 61.64ZM101.73 61.064V62.064C102.949 62.064 103.694 62.3805 104.148 62.8485L104.866 62.152L105.583 61.4555C104.63 60.4728 103.284 60.064 101.73 60.064V61.064ZM104.866 62.152L104.159 62.8591C104.669 63.3695 104.954 64.0504 104.954 65H105.954H106.954C106.954 63.6029 106.513 62.3852 105.573 61.4449L104.866 62.152ZM105.954 65H104.954C104.954 66.0427 104.645 66.7135 104.137 67.1646L104.802 67.912L105.466 68.6594C106.495 67.7452 106.954 66.4747 106.954 65H105.954ZM104.802 67.912L104.127 67.174C103.654 67.6066 102.745 67.936 101.154 67.936V68.936V69.936C102.934 69.936 104.456 69.5828 105.477 68.65L104.802 67.912ZM101.154 68.936V67.936H95.4258V68.936V69.936H101.154V68.936ZM111.649 67.784L111.184 68.6692L111.191 68.6727L111.198 68.6762L111.649 67.784ZM107.713 63.912L108.585 63.4217V63.4217L107.713 63.912ZM107.713 51.144L106.834 50.668L106.829 50.6761L107.713 51.144ZM111.713 46.984L112.208 47.8529L112.212 47.8509L111.713 46.984ZM123.329 46.568L122.865 47.4538V47.4538L123.329 46.568ZM124.481 52.36L125.246 53.0049L125.25 52.9991L125.255 52.9932L124.481 52.36ZM119.617 53.064L119.332 54.0225L119.347 54.027L119.363 54.0311L119.617 53.064ZM113.601 53.896L112.894 53.1889V53.1889L113.601 53.896ZM113.601 60.168L112.867 60.8471L112.876 60.8563L113.601 60.168ZM118.817 61.256L118.993 62.2404L119.006 62.238L119.02 62.2353L118.817 61.256ZM120.609 60.872L120.4 59.8942L120.392 59.8958L120.609 60.872ZM125.025 61.8L124.211 62.3813L124.22 62.3924L125.025 61.8ZM124.641 67.176L125.283 67.9425L125.289 67.9375L125.295 67.9324L124.641 67.176ZM121.505 68.616L121.282 67.6413L121.278 67.6422L121.505 68.616ZM117.313 69.064V68.064C115.363 68.064 113.632 67.667 112.101 66.8918L111.649 67.784L111.198 68.6762C113.037 69.6077 115.083 70.064 117.313 70.064V69.064ZM111.649 67.784L112.115 66.8988C110.629 66.1177 109.454 64.9677 108.585 63.4217L107.713 63.912L106.842 64.4023C107.892 66.2696 109.342 67.7009 111.184 68.6692L111.649 67.784ZM107.713 63.912L108.585 63.4217C107.729 61.9004 107.273 59.9785 107.273 57.608H106.273H105.273C105.273 60.2295 105.777 62.5102 106.842 64.4023L107.713 63.912ZM106.273 57.608H107.273C107.273 55.2402 107.728 53.2531 108.597 51.6119L107.713 51.144L106.829 50.6761C105.778 52.6616 105.273 54.9838 105.273 57.608H106.273ZM107.713 51.144L108.593 51.6199C109.491 49.9601 110.696 48.7145 112.208 47.8529L111.713 46.984L111.218 46.1151C109.36 47.1735 107.898 48.7012 106.834 50.668L107.713 51.144ZM111.713 46.984L112.212 47.8509C113.751 46.9657 115.517 46.512 117.537 46.512V45.512V44.512C115.205 44.512 113.089 45.0396 111.215 46.1171L111.713 46.984ZM117.537 45.512V46.512C119.987 46.512 121.729 46.8588 122.865 47.4538L123.329 46.568L123.793 45.6822C122.241 44.8692 120.122 44.512 117.537 44.512V45.512ZM123.329 46.568L122.865 47.4538C123.417 47.7431 123.776 48.0728 124 48.4208C124.221 48.7638 124.345 49.1795 124.345 49.704H125.345H126.345C126.345 48.8419 126.134 48.0415 125.682 47.3392C125.234 46.6418 124.585 46.0969 123.793 45.6822L123.329 46.568ZM125.345 49.704H124.345C124.345 50.5816 124.113 51.2313 123.707 51.7268L124.481 52.36L125.255 52.9932C126.002 52.0807 126.345 50.9598 126.345 49.704H125.345ZM124.481 52.36L123.717 51.7151C123.356 52.1433 122.862 52.384 122.113 52.384V53.384V54.384C123.37 54.384 124.455 53.942 125.246 53.0049L124.481 52.36ZM122.113 53.384V52.384C121.344 52.384 120.598 52.288 119.872 52.0969L119.617 53.064L119.363 54.0311C120.258 54.2667 121.176 54.384 122.113 54.384V53.384ZM119.617 53.064L119.902 52.1055C118.998 51.8366 117.97 51.712 116.833 51.712V52.712V53.712C117.83 53.712 118.658 53.8221 119.332 54.0225L119.617 53.064ZM116.833 52.712V51.712C115.266 51.712 113.911 52.1718 112.894 53.1889L113.601 53.896L114.308 54.6031C114.87 54.0416 115.67 53.712 116.833 53.712V52.712ZM113.601 53.896L112.894 53.1889C111.889 54.1936 111.417 55.497 111.417 57H112.417H113.417C113.417 55.943 113.734 55.177 114.308 54.6031L113.601 53.896ZM112.417 57H111.417C111.417 58.4877 111.892 59.7929 112.867 60.847L113.601 60.168L114.335 59.489C113.732 58.8365 113.417 58.0296 113.417 57H112.417ZM113.601 60.168L112.876 60.8563C113.89 61.9249 115.25 62.416 116.833 62.416V61.416V60.416C115.686 60.416 114.892 60.0751 114.327 59.4797L113.601 60.168ZM116.833 61.416V62.416C117.607 62.416 118.328 62.3592 118.993 62.2404L118.817 61.256L118.641 60.2716C118.112 60.3661 117.511 60.416 116.833 60.416V61.416ZM118.817 61.256L119.02 62.2353C119.643 62.1063 120.245 61.9773 120.826 61.8482L120.609 60.872L120.392 59.8958C119.821 60.0227 119.229 60.1497 118.615 60.2767L118.817 61.256ZM120.609 60.872L120.819 61.8498C121.34 61.7382 121.909 61.68 122.529 61.68V60.68V59.68C121.784 59.68 121.073 59.7498 120.4 59.8942L120.609 60.872ZM122.529 60.68V61.68C123.421 61.68 123.91 61.9592 124.212 62.3812L125.025 61.8L125.839 61.2188C125.074 60.1475 123.899 59.68 122.529 59.68V60.68ZM125.025 61.8L124.22 62.3924C124.602 62.9127 124.825 63.5996 124.825 64.52H125.825H126.825C126.825 63.2644 126.515 62.138 125.831 61.2076L125.025 61.8ZM125.825 64.52H124.825C124.825 65.3317 124.546 65.936 123.987 66.4196L124.641 67.176L125.295 67.9324C126.315 67.0507 126.825 65.8843 126.825 64.52H125.825ZM124.641 67.176L123.999 66.4095C123.361 66.9438 122.473 67.3679 121.282 67.6413L121.505 68.616L121.729 69.5907C123.14 69.2668 124.343 68.7309 125.283 67.9425L124.641 67.176ZM121.505 68.616L121.278 67.6422C120.083 67.921 118.763 68.064 117.313 68.064V69.064V70.064C118.893 70.064 120.368 69.9083 121.732 69.5898L121.505 68.616ZM128.453 68.008L127.77 68.7391V68.7391L128.453 68.008ZM128.421 46.472L129.128 47.1791L129.134 47.1731L129.14 47.167L128.421 46.472ZM133.349 46.472L132.618 47.1543L132.623 47.1605L132.629 47.1666L133.349 46.472ZM134.245 54.664H133.245V55.664H134.245V54.664ZM140.197 54.664V55.664H141.197V54.664H140.197ZM141.125 46.472L141.832 47.1791L141.838 47.1731L141.844 47.167L141.125 46.472ZM146.085 46.472L145.354 47.1543L145.359 47.1605L145.365 47.1666L146.085 46.472ZM146.021 68.008L145.338 67.2769L145.332 67.2827L145.326 67.2886L146.021 68.008ZM141.157 68.008L140.474 68.7391L140.48 68.7446L140.486 68.7501L141.157 68.008ZM140.197 59.368H141.197V58.368H140.197V59.368ZM134.245 59.368V58.368H133.245V59.368H134.245ZM133.285 68.008L132.602 67.2769L132.596 67.2827L132.59 67.2886L133.285 68.008ZM130.885 68.904V67.904C130.124 67.904 129.567 67.6801 129.135 67.2769L128.453 68.008L127.77 68.7391C128.618 69.5306 129.683 69.904 130.885 69.904V68.904ZM128.453 68.008L129.135 67.2769C128.708 66.8787 128.493 66.3911 128.493 65.736H127.493H126.493C126.493 66.9156 126.917 67.9426 127.77 68.7391L128.453 68.008ZM127.493 65.736H128.493V48.808H127.493H126.493V65.736H127.493ZM127.493 48.808H128.493C128.493 48.1132 128.711 47.5956 129.128 47.1791L128.421 46.472L127.714 45.7649C126.893 46.5857 126.493 47.6255 126.493 48.808H127.493ZM128.421 46.472L129.14 47.167C129.545 46.7474 130.084 46.512 130.853 46.512V45.512V44.512C129.617 44.512 128.533 44.9166 127.702 45.777L128.421 46.472ZM130.853 45.512V46.512C131.707 46.512 132.25 46.7601 132.618 47.1543L133.349 46.472L134.08 45.7897C133.253 44.9039 132.131 44.512 130.853 44.512V45.512ZM133.349 46.472L132.629 47.1666C133.038 47.5903 133.245 48.0951 133.245 48.744H134.245H135.245C135.245 47.6009 134.854 46.591 134.068 45.7774L133.349 46.472ZM134.245 48.744H133.245V54.664H134.245H135.245V48.744H134.245ZM134.245 54.664V55.664H140.197V54.664V53.664H134.245V54.664ZM140.197 54.664H141.197V48.808H140.197H139.197V54.664H140.197ZM140.197 48.808H141.197C141.197 48.1132 141.415 47.5956 141.832 47.1791L141.125 46.472L140.418 45.7649C139.597 46.5857 139.197 47.6255 139.197 48.808H140.197ZM141.125 46.472L141.844 47.167C142.241 46.7559 142.795 46.512 143.621 46.512V45.512V44.512C142.356 44.512 141.246 44.9081 140.406 45.777L141.125 46.472ZM143.621 45.512V46.512C144.447 46.512 144.982 46.756 145.354 47.1543L146.085 46.472L146.816 45.7897C145.993 44.908 144.885 44.512 143.621 44.512V45.512ZM146.085 46.472L145.365 47.1666C145.774 47.5903 145.981 48.0951 145.981 48.744H146.981H147.981C147.981 47.6009 147.59 46.591 146.804 45.7774L146.085 46.472ZM146.981 48.744H145.981V65.736H146.981H147.981V48.744H146.981ZM146.981 65.736H145.981C145.981 66.3911 145.765 66.8787 145.338 67.2769L146.021 68.008L146.703 68.7391C147.556 67.9426 147.981 66.9156 147.981 65.736H146.981ZM146.021 68.008L145.326 67.2886C144.912 67.6887 144.39 67.904 143.685 67.904V68.904V69.904C144.857 69.904 145.892 69.522 146.715 68.7274L146.021 68.008ZM143.685 68.904V67.904C142.869 67.904 142.277 67.6726 141.827 67.2659L141.157 68.008L140.486 68.7501C141.359 69.5381 142.453 69.904 143.685 69.904V68.904ZM141.157 68.008L141.839 67.2769C141.412 66.8787 141.197 66.3911 141.197 65.736H140.197H139.197C139.197 66.9156 139.621 67.9426 140.474 68.7391L141.157 68.008ZM140.197 65.736H141.197V59.368H140.197H139.197V65.736H140.197ZM140.197 59.368V58.368H134.245V59.368V60.368H140.197V59.368ZM134.245 59.368H133.245V65.736H134.245H135.245V59.368H134.245ZM134.245 65.736H133.245C133.245 66.3911 133.029 66.8787 132.602 67.2769L133.285 68.008L133.967 68.7391C134.82 67.9426 135.245 66.9156 135.245 65.736H134.245ZM133.285 68.008L132.59 67.2886C132.185 67.6802 131.646 67.904 130.885 67.904V68.904V69.904C132.086 69.904 133.148 69.5304 133.979 68.7274L133.285 68.008Z" fill="#9B8AFA" mask="url(#path-4-outside-2_214_6)"/>
</g>
<defs>
<linearGradient id="paint0_linear_214_6" x1="28" y1="-28" x2="28" y2="55.5" gradientUnits="userSpaceOnUse">
<stop offset="0.870002" stop-color="white"/>
<stop offset="1" stop-color="#9B8AFA"/>
</linearGradient>
<clipPath id="clip0_214_6">
<rect width="174" height="80" fill="white"/>
</clipPath>
</defs>
</svg>
