<svg width="145" height="52" viewBox="0 0 145 52" fill="none" xmlns="http://www.w3.org/2000/svg">
<g clip-path="url(#clip0_214_6)">
<path d="M4.25 40.625C4.25 40.2917 4.35417 39.9375 4.5625 39.5625C4.77083 39.1875 5.04167 38.8333 5.375 38.5C5.70833 38.1667 6.0625 37.8958 6.4375 37.6875C6.8125 37.4792 7.16667 37.375 7.5 37.375C7.58333 37.375 7.70833 37.375 7.875 37.375C8.08333 37.375 8.22917 37.3958 8.3125 37.4375C7.8125 37.9792 7.52083 38.5208 7.4375 39.0625C7.39583 39.6042 7.375 40.1875 7.375 40.8125C7.375 41.7708 7.58333 42.5625 8 43.1875C8.45833 43.7708 9.02083 44.25 9.6875 44.625C10.3542 44.9583 11.0833 45.1875 11.875 45.3125C12.7083 45.4792 13.5 45.5625 14.25 45.5625C17.375 45.5625 20.25 45.1458 22.875 44.3125C25.5 43.4375 27.8958 42.2708 30.0625 40.8125C32.2708 39.3125 34.2708 37.5625 36.0625 35.5625C37.8542 33.5208 39.5 31.3333 41 29C42.5417 26.625 43.9375 24.1667 45.1875 21.625C46.4792 19.0833 47.6875 16.5208 48.8125 13.9375H48.625H48.5C48.4583 13.9375 48.4375 13.9167 48.4375 13.875C47.1875 13.875 45.9792 14.2292 44.8125 14.9375C43.6458 15.6042 42.4792 16.375 41.3125 17.25C40.1458 18.0833 38.9583 18.8542 37.75 19.5625C36.5417 20.2292 35.2917 20.5625 34 20.5625C34 20.2292 34.4792 19.6042 35.4375 18.6875C36.4375 17.7708 37.6875 16.7083 39.1875 15.5C40.6875 14.2917 42.2917 13.0208 44 11.6875C45.75 10.3542 47.3542 9.14583 48.8125 8.0625C50.3125 6.9375 51.5625 6.02083 52.5625 5.3125C53.5625 4.5625 54.0625 4.1875 54.0625 4.1875C54.8542 4.1875 55.4167 4.52083 55.75 5.1875C56.0833 5.8125 56.25 6.45833 56.25 7.125C56.25 7.25 56.2292 7.45833 56.1875 7.75C56.1875 8.04167 56.1667 8.20833 56.125 8.25C54.2917 12.2083 52.7708 15.5 51.5625 18.125C50.3542 20.75 49.375 22.8542 48.625 24.4375C47.875 26.0208 47.3125 27.2083 46.9375 28C46.6042 28.75 46.375 29.25 46.25 29.5C46.1667 29.75 46.1458 29.8542 46.1875 29.8125C46.2708 29.7292 46.375 29.6667 46.5 29.625C46.9167 29.4583 47.7292 29.25 48.9375 29C50.1875 28.7083 51.5 28.4167 52.875 28.125C54.2917 27.8333 55.6042 27.5833 56.8125 27.375C58.0625 27.125 58.9167 26.9583 59.375 26.875L60.125 26.125C61.9583 22.2917 63.8333 18.5 65.75 14.75C67.7083 10.9583 69.625 7.16667 71.5 3.375C72.2917 2.70833 72.8125 2.5625 73.0625 2.9375C73.3125 3.27083 73.4167 3.83333 73.375 4.625C73.375 5.41667 73.25 6.27083 73 7.1875C72.75 8.0625 72.5208 8.70833 72.3125 9.125L56.9375 43.0625C56.5625 43.8958 56.1667 44.3958 55.75 44.5625C55.3333 44.7292 54.8125 44.8125 54.1875 44.8125C53.8125 44.8125 53.3958 44.7917 52.9375 44.75C52.4792 44.7083 52.1875 44.4375 52.0625 43.9375C52.8542 43.2292 53.5833 42.3333 54.25 41.25C54.9583 40.125 55.5625 38.9792 56.0625 37.8125C56.5625 36.6042 56.9375 35.4167 57.1875 34.25C57.4792 33.0417 57.625 31.9792 57.625 31.0625C57.5417 31.0625 57.4167 31.0417 57.25 31C57.125 30.9583 57.0208 30.9583 56.9375 31C55.6458 31.4167 54.2708 31.75 52.8125 32C51.3542 32.2083 49.8958 32.4583 48.4375 32.75C46.9792 33 45.5833 33.3542 44.25 33.8125C42.9167 34.2708 41.75 34.9375 40.75 35.8125C38.3333 37.8542 36.25 39.6875 34.5 41.3125C32.75 42.8958 30.9583 44.25 29.125 45.375C27.2917 46.5 25.2292 47.3542 22.9375 47.9375C20.6458 48.5208 17.7917 48.8125 14.375 48.8125C13 48.8125 11.7083 48.6667 10.5 48.375C9.29167 48.125 8.20833 47.6875 7.25 47.0625C6.33333 46.4375 5.60417 45.6042 5.0625 44.5625C4.52083 43.5208 4.25 42.2083 4.25 40.625Z" fill="url(#paint0_linear_214_6)"/>
<path d="M84.6523 20H80.3984L74.0938 3.125H78.8398L83.5156 16.707L87.7461 3.125H90.6289L84.6523 20ZM97.3203 20H92.668V3.125H97.3203V20ZM116.691 15.418C116.691 15.8945 116.613 16.3398 116.457 16.7539C116.301 17.168 116.086 17.5469 115.812 17.8906C115.539 18.2266 115.219 18.5273 114.852 18.793C114.492 19.0586 114.102 19.2812 113.68 19.4609C113.266 19.6406 112.836 19.7773 112.391 19.8711C111.945 19.957 111.508 20 111.078 20H101.152V3.125H110.223C110.621 3.125 111.039 3.15625 111.477 3.21875C111.914 3.27344 112.34 3.36328 112.754 3.48828C113.176 3.61328 113.574 3.77734 113.949 3.98047C114.332 4.18359 114.664 4.43359 114.945 4.73047C115.234 5.01953 115.461 5.35547 115.625 5.73828C115.797 6.12109 115.883 6.55859 115.883 7.05078C115.883 7.51953 115.789 7.94531 115.602 8.32812C115.414 8.71094 115.16 9.05469 114.84 9.35938C114.527 9.65625 114.164 9.92188 113.75 10.1562C113.344 10.3828 112.914 10.582 112.461 10.7539C113.031 10.9102 113.57 11.1172 114.078 11.375C114.594 11.6328 115.043 11.9492 115.426 12.3242C115.816 12.6992 116.125 13.1445 116.352 13.6602C116.578 14.168 116.691 14.7539 116.691 15.418ZM111.16 7.46094C111.16 6.50781 110.906 5.8125 110.398 5.375C109.898 4.9375 109.184 4.71875 108.254 4.71875H105.805V10.1914H107.855C108.277 10.1914 108.688 10.1406 109.086 10.0391C109.484 9.92969 109.836 9.76562 110.141 9.54688C110.453 9.32031 110.699 9.03516 110.879 8.69141C111.066 8.34766 111.16 7.9375 111.16 7.46094ZM111.98 15.125C111.98 14.6641 111.922 14.2344 111.805 13.8359C111.688 13.4297 111.508 13.082 111.266 12.793C111.023 12.4961 110.719 12.2656 110.352 12.1016C109.992 11.9297 109.566 11.8438 109.074 11.8438H105.805V18.3594H108.664C109.141 18.3594 109.582 18.2812 109.988 18.125C110.395 17.9688 110.746 17.75 111.043 17.4688C111.34 17.1875 111.57 16.8477 111.734 16.4492C111.898 16.0508 111.98 15.6094 111.98 15.125ZM131.598 20H119.48V3.125H131.598V5.28125H124.133V10.4961H129.898V12.6406H124.133V17.8438H131.598V20Z" fill="url(#paint1_linear_214_6)"/>
<path d="M83.7148 44H79.0625V29.2812H74.4688V27.125H88.3086V29.2812H83.7148V44ZM102.816 44H90.6992V27.125H102.816V29.2812H95.3516V34.4961H101.117V36.6406H95.3516V41.8438H102.816V44ZM120.629 31.3086L118.625 32.1523C118.469 31.6445 118.258 31.1797 117.992 30.7578C117.734 30.3359 117.422 29.9766 117.055 29.6797C116.695 29.375 116.285 29.1406 115.824 28.9766C115.363 28.8047 114.859 28.7188 114.312 28.7188C113.727 28.7188 113.188 28.8164 112.695 29.0117C112.211 29.1992 111.773 29.4609 111.383 29.7969C111 30.1328 110.664 30.5234 110.375 30.9688C110.086 31.4141 109.844 31.8906 109.648 32.3984C109.453 32.8984 109.309 33.418 109.215 33.957C109.121 34.4961 109.074 35.0234 109.074 35.5391C109.074 36.3594 109.168 37.1758 109.355 37.9883C109.551 38.8008 109.855 39.5312 110.27 40.1797C110.691 40.8281 111.234 41.3555 111.898 41.7617C112.562 42.1602 113.367 42.3594 114.312 42.3594C114.812 42.3594 115.285 42.2773 115.73 42.1133C116.176 41.9414 116.578 41.7109 116.938 41.4219C117.305 41.125 117.625 40.7773 117.898 40.3789C118.172 39.9805 118.391 39.5508 118.555 39.0898L120.582 39.8984C120.285 40.6406 119.879 41.293 119.363 41.8555C118.848 42.4102 118.258 42.8711 117.594 43.2383C116.938 43.6055 116.23 43.8789 115.473 44.0586C114.723 44.2461 113.965 44.3398 113.199 44.3398C112.371 44.3398 111.574 44.2383 110.809 44.0352C110.051 43.832 109.344 43.543 108.688 43.168C108.031 42.793 107.434 42.3398 106.895 41.8086C106.363 41.2773 105.906 40.6875 105.523 40.0391C105.148 39.3906 104.855 38.6875 104.645 37.9297C104.441 37.1641 104.34 36.3672 104.34 35.5391C104.34 34.7109 104.441 33.918 104.645 33.1602C104.855 32.3945 105.148 31.6875 105.523 31.0391C105.906 30.3828 106.363 29.7891 106.895 29.2578C107.434 28.7266 108.031 28.2734 108.688 27.8984C109.344 27.5234 110.051 27.2344 110.809 27.0312C111.574 26.8281 112.371 26.7266 113.199 26.7266C113.996 26.7266 114.773 26.8203 115.531 27.0078C116.297 27.1953 117.008 27.4805 117.664 27.8633C118.32 28.2383 118.902 28.7148 119.41 29.293C119.926 29.8633 120.332 30.5352 120.629 31.3086ZM128 44H123.348V27.125H128V34.4961H134.164V27.125H138.816V44H134.164V36.6406H128V44Z" fill="url(#paint2_linear_214_6)"/>
</g>
<defs>
<linearGradient id="paint0_linear_214_6" x1="66" y1="2.5" x2="32" y2="7" gradientUnits="userSpaceOnUse">
<stop stop-color="#2745B7"/>
<stop offset="0.325569" stop-color="#10D6DE" stop-opacity="0.6"/>
</linearGradient>
<linearGradient id="paint1_linear_214_6" x1="73" y1="5.5" x2="148" y2="16" gradientUnits="userSpaceOnUse">
<stop offset="0.110961" stop-color="#2745B7"/>
<stop offset="0.448496" stop-color="#2745B7"/>
</linearGradient>
<linearGradient id="paint2_linear_214_6" x1="71" y1="31" x2="148" y2="32.5" gradientUnits="userSpaceOnUse">
<stop stop-color="#10D6DE"/>
<stop offset="0.467406" stop-color="#2745B7"/>
</linearGradient>
<clipPath id="clip0_214_6">
<rect width="145" height="52" fill="white"/>
</clipPath>
</defs>
</svg>
