<svg width="250" height="51" viewBox="0 0 250 51" fill="none" xmlns="http://www.w3.org/2000/svg">
<g clip-path="url(#clip0_38_22)">
<path d="M250 -53H0V108H250V-53Z" fill="#111827"/>
<path d="M209.974 10.9509L218.071 20.2772L209.974 29.6036H40.0265L32.0267 20.2772L40.0265 10.9509H209.974ZM212.12 8.1875H37.8802L27.4414 20.2772L37.8802 32.367H212.12L222.559 20.2772L212.12 8.1875Z" fill="url(#paint0_linear_38_22)"/>
<path d="M81.0521 18.2901V18.5679H83.8888V18.2901C83.8888 16.3176 82.0239 14.8164 79.5737 14.8164H76.4518C74.0016 14.8164 72.1367 16.3176 72.1367 18.2901V22.7605C72.1367 24.7329 74.0016 26.2341 76.4518 26.2341H79.5737C82.0239 26.2341 83.8888 24.7329 83.8888 22.7605V22.4675H81.0521V22.7605C81.0521 23.6244 80.6468 23.9506 79.5737 23.9506H76.4518C75.3787 23.9506 74.9734 23.6244 74.9734 22.7605V18.2901C74.9734 17.4262 75.3787 17.1 76.4518 17.1H79.5737C80.6468 17.1 81.0521 17.4262 81.0521 18.2901ZM85.5097 18.2901V21.667H88.3465V18.2901C88.3465 17.4262 88.7517 17.1 89.8248 17.1H92.9467C94.0199 17.1 94.4251 17.4262 94.4251 18.2901V22.7605C94.4251 23.6244 94.0199 23.9506 92.9467 23.9506H89.8248C88.7517 23.9506 88.3465 23.6244 88.3465 22.7605V22.4826H85.5097V22.7605C85.5097 24.7329 87.3746 26.2341 89.8248 26.2341H92.9467C95.3969 26.2341 97.2618 24.7329 97.2618 22.7605V18.2901C97.2618 16.3176 95.3969 14.8164 92.9467 14.8164H89.8248C87.3746 14.8164 85.5097 16.3176 85.5097 18.2901ZM101.719 22.4826H98.8828V26.2341H106.32C108.77 26.2341 110.635 24.7329 110.635 22.7605V18.2901C110.635 16.3176 108.77 14.8164 106.32 14.8164H98.8828V21.667H101.719V17.1H106.32C107.393 17.1 107.798 17.4262 107.798 18.2901V22.7605C107.798 23.6244 107.393 23.9506 106.32 23.9506H101.719V22.4826ZM116.571 26.2492H124.008V23.9657H116.571C115.498 23.9657 115.093 23.6395 115.093 22.7756V22.4826H112.256V22.7756C112.256 24.751 114.121 26.2492 116.571 26.2492ZM112.256 14.8164V21.667H122.59V19.3835H115.093V17.1H124.008V14.8164H112.256ZM134.544 26.2341H137.381V18.2901C137.381 16.3176 135.516 14.8164 133.066 14.8164H129.944C127.494 14.8164 125.629 16.3176 125.629 18.2901V26.2341H128.466V18.2901C128.466 17.4262 128.871 17.1 129.944 17.1H133.066C134.139 17.1 134.544 17.4262 134.544 18.2901V19.3835H129.479V21.667H134.544V26.2341ZM141.839 22.7605V22.4675H139.002V22.7605C139.002 24.7329 140.867 26.2341 143.317 26.2341H146.439C148.889 26.2341 150.754 24.7329 150.754 22.7605V14.8164H147.917V22.7605C147.917 23.6244 147.512 23.9506 146.439 23.9506H143.317C142.244 23.9506 141.839 23.6244 141.839 22.7605ZM139.002 14.8164V21.6519H141.839V14.8164H139.002ZM159.812 14.8164H152.375V21.667H159.812C160.885 21.667 161.29 21.9933 161.29 22.8571V26.2341H164.127V22.8571C164.127 21.96 163.74 21.1445 163.073 20.5404C163.74 19.9544 164.127 19.1721 164.127 18.2901C164.127 16.3176 162.262 14.8164 159.812 14.8164ZM152.375 22.4826V26.2341H155.212V22.4826H152.375ZM159.812 19.3835H155.212V17.1H159.812C160.885 17.1 161.29 17.4262 161.29 18.2901C161.29 19.0905 160.904 19.3835 159.812 19.3835ZM174.663 26.2341H177.5V18.2901C177.5 16.3176 175.635 14.8164 173.185 14.8164H170.063C167.613 14.8164 165.748 16.3176 165.748 18.2901V26.2341H168.585V18.2901C168.585 17.4262 168.99 17.1 170.063 17.1H173.185C174.258 17.1 174.663 17.4262 174.663 18.2901V19.3835H169.598V21.667H174.663V26.2341Z" fill="url(#paint1_linear_38_22)"/>
<path d="M19.5342 44.9765H21.1627V42.8228H19.5342V44.9765ZM19.5342 40.4154V42.3546H21.1627V40.4154C21.1627 39.9201 21.3953 39.7328 22.0107 39.7328H22.641C23.2564 39.7328 23.4891 39.9201 23.4891 40.4154V44.9765H25.1175V40.4154C25.1175 39.9201 25.3502 39.7328 25.9655 39.7328H26.5959C27.2113 39.7328 27.4439 39.9201 27.4439 40.4154V44.9765H29.0724V40.4154C29.0724 39.2827 28.003 38.4219 26.5959 38.4219H25.9655C25.3164 38.4219 24.7348 38.6092 24.3033 38.9172C23.8718 38.6092 23.2902 38.4219 22.641 38.4219H22.0107C20.6036 38.4219 19.5342 39.2827 19.5342 40.4154ZM32.1305 40.4154V42.3546H33.759V40.4154C33.759 39.9201 33.9916 39.7328 34.6107 39.7328H36.4006C37.0159 39.7328 37.2486 39.9201 37.2486 40.4154V42.9829C37.2486 43.4783 37.0159 43.6656 36.4006 43.6656H34.6107C33.9916 43.6656 33.759 43.4783 33.759 42.9829V42.8228H32.1305V42.9829C32.1305 44.1156 33.1999 44.9765 34.6107 44.9765H36.4006C37.8077 44.9765 38.877 44.1156 38.877 42.9829V40.4154C38.877 39.2827 37.8077 38.4219 36.4006 38.4219H34.6107C33.1999 38.4219 32.1305 39.2827 32.1305 40.4154ZM43.5674 42.8228H41.9389V44.9765H46.2052C47.6123 44.9765 48.6854 44.1156 48.6854 42.9829V40.4154C48.6854 39.2827 47.6123 38.4219 46.2052 38.4219H41.9389V42.3546H43.5674V39.7328H46.2052C46.8243 39.7328 47.057 39.9201 47.057 40.4154V42.9829C47.057 43.4783 46.8243 43.6656 46.2052 43.6656H43.5674V42.8228ZM54.22 44.9856H58.4901V43.6746H54.22C53.6046 43.6746 53.372 43.4874 53.372 42.992V42.8228H51.7435V42.992C51.7435 44.1247 52.8129 44.9856 54.22 44.9856ZM51.7435 38.4219V42.3546H57.6758V41.0437H53.372V39.7328H58.4901V38.4219H51.7435ZM65.8182 38.4219H61.5482V42.3546H65.8182C66.4336 42.3546 66.6662 42.5419 66.6662 43.0373V44.9765H68.2947V43.0373C68.2947 42.5238 68.0733 42.0556 67.6906 41.7082C68.0733 41.3699 68.2947 40.9229 68.2947 40.4154C68.2947 39.2827 67.2253 38.4219 65.8182 38.4219ZM61.5482 42.8228V44.9765H63.1766V42.8228H61.5482ZM65.8182 41.0437H63.1766V39.7328H65.8182C66.4336 39.7328 66.6662 39.9201 66.6662 40.4154C66.6662 40.8746 66.4449 41.0437 65.8182 41.0437ZM71.3566 44.9765H72.985V42.8228H71.3566V44.9765ZM71.3566 40.4154V42.3546H72.985V40.4154C72.985 39.9201 73.2177 39.7328 73.833 39.7328H75.6229C76.242 39.7328 76.4746 39.9201 76.4746 40.4154V44.9765H78.1031V40.4154C78.1031 39.2827 77.03 38.4219 75.6229 38.4219H73.833C72.4259 38.4219 71.3566 39.2827 71.3566 40.4154ZM85.6151 42.3546H87.2436V38.4219H85.6151V42.3546ZM85.6151 42.8228V42.9829C85.6151 44.1156 86.6845 44.9765 88.0916 44.9765H88.722C89.3711 44.9765 89.9527 44.7892 90.3842 44.4811C90.8157 44.7892 91.3973 44.9765 92.0465 44.9765H92.6769C94.084 44.9765 95.1533 44.1156 95.1533 42.9829V38.4219H93.5249V42.9829C93.5249 43.4783 93.2922 43.6656 92.6769 43.6656H92.0465C91.4311 43.6656 91.1985 43.4783 91.1985 42.9829V38.4219H89.57V42.9829C89.57 43.4783 89.3374 43.6656 88.722 43.6656H88.0916C87.4762 43.6656 87.2436 43.4783 87.2436 42.9829V42.8228H85.6151ZM100.692 44.9856H104.958V43.6746H100.692C100.073 43.6746 99.8399 43.4874 99.8399 42.992V42.8228H98.2114V42.992C98.2114 44.1247 99.2846 44.9856 100.692 44.9856ZM98.2114 38.4219V42.3546H104.144V41.0437H99.8399V39.7328H104.958V38.4219H98.2114ZM111.705 38.4219H108.02V42.3546H112.286C112.905 42.3546 113.138 42.5419 113.138 43.0373C113.138 43.4964 112.917 43.6656 112.286 43.6656H109.648V42.8228H108.02V44.9765H112.286C113.682 44.9765 114.766 44.1519 114.766 43.0373C114.766 42.3818 114.406 41.8109 113.825 41.4545C114.057 41.1555 114.185 40.7991 114.185 40.4154C114.185 39.2827 113.115 38.4219 111.705 38.4219ZM111.705 41.0437H109.648V39.7328H111.705C112.324 39.7328 112.556 39.9201 112.556 40.4154C112.556 40.8746 112.335 41.0437 111.705 41.0437ZM123.907 42.8228H122.278V44.9765H126.548C127.956 44.9765 129.025 44.1156 129.025 42.9829V40.4154C129.025 39.2827 127.956 38.4219 126.548 38.4219H122.278V42.3546H123.907V39.7328H126.548C127.164 39.7328 127.396 39.9201 127.396 40.4154V42.9829C127.396 43.4783 127.164 43.6656 126.548 43.6656H123.907V42.8228ZM134.563 44.9856H138.833V43.6746H134.563C133.948 43.6746 133.715 43.4874 133.715 42.992V42.8228H132.087V42.992C132.087 44.1247 133.156 44.9856 134.563 44.9856ZM132.087 38.4219V42.3546H138.019V41.0437H133.715V39.7328H138.833V38.4219H132.087ZM143.591 38.4219H141.891L144.195 44.3301C144.533 45.2212 146.068 45.2212 146.405 44.3301L148.709 38.4219H147.009L145.298 42.7745L143.591 38.4219ZM154.244 44.9856H158.514V43.6746H154.244C153.628 43.6746 153.396 43.4874 153.396 42.992V42.8228H151.767V42.992C151.767 44.1247 152.837 44.9856 154.244 44.9856ZM151.767 38.4219V42.3546H157.7V41.0437H153.396V39.7328H158.514V38.4219H151.767ZM164.048 44.9765H168.319V43.6656H164.048C163.433 43.6656 163.2 43.4783 163.2 42.9829V38.4219H161.572V42.9829C161.572 44.1156 162.641 44.9765 164.048 44.9765ZM171.377 40.4154V42.3546H173.005V40.4154C173.005 39.9201 173.238 39.7328 173.857 39.7328H175.647C176.262 39.7328 176.495 39.9201 176.495 40.4154V42.9829C176.495 43.4783 176.262 43.6656 175.647 43.6656H173.857C173.238 43.6656 173.005 43.4783 173.005 42.9829V42.8228H171.377V42.9829C171.377 44.1156 172.45 44.9765 173.857 44.9765H175.647C177.054 44.9765 178.123 44.1156 178.123 42.9829V40.4154C178.123 39.2827 177.054 38.4219 175.647 38.4219H173.857C172.45 38.4219 171.377 39.2827 171.377 40.4154ZM185.451 38.4219H181.185V42.3546H185.451C186.847 42.3546 187.932 41.53 187.932 40.4154C187.932 39.2827 186.858 38.4219 185.451 38.4219ZM181.185 42.8228V44.9765H182.814V42.8228H181.185ZM185.451 41.0437H182.814V39.7328H185.451C186.07 39.7328 186.303 39.9201 186.303 40.4154C186.303 40.8746 186.082 41.0437 185.451 41.0437ZM190.99 44.9765H192.618V42.8228H190.99V44.9765ZM190.99 40.4154V42.3546H192.618V40.4154C192.618 39.9201 192.851 39.7328 193.466 39.7328H194.097C194.712 39.7328 194.945 39.9201 194.945 40.4154V44.9765H196.573V40.4154C196.573 39.9201 196.806 39.7328 197.421 39.7328H198.051C198.667 39.7328 198.899 39.9201 198.899 40.4154V44.9765H200.528V40.4154C200.528 39.2827 199.458 38.4219 198.051 38.4219H197.421C196.772 38.4219 196.19 38.6092 195.759 38.9172C195.327 38.6092 194.746 38.4219 194.097 38.4219H193.466C192.059 38.4219 190.99 39.2827 190.99 40.4154ZM206.066 44.9856H210.333V43.6746H206.066C205.447 43.6746 205.214 43.4874 205.214 42.992V42.8228H203.586V42.992C203.586 44.1247 204.655 44.9856 206.066 44.9856ZM203.586 38.4219V42.3546H209.518V41.0437H205.214V39.7328H210.333V38.4219H203.586ZM213.394 44.9765H215.023V42.8228H213.394V44.9765ZM213.394 40.4154V42.3546H215.023V40.4154C215.023 39.9201 215.255 39.7328 215.871 39.7328H217.661C218.28 39.7328 218.512 39.9201 218.512 40.4154V44.9765H220.141V40.4154C220.141 39.2827 219.068 38.4219 217.661 38.4219H215.871C214.464 38.4219 213.394 39.2827 213.394 40.4154ZM227.503 40.201H225.874V44.9765H227.503V40.201ZM223.199 38.4219V39.7328H230.178V38.4219H223.199Z" fill="#9B8AF9"/>
</g>
<defs>
<linearGradient id="paint0_linear_38_22" x1="27.4414" y1="8.1875" x2="27.4414" y2="33.0578" gradientUnits="userSpaceOnUse">
<stop stop-color="#9B8AF9"/>
<stop offset="1" stop-color="#3B82F6"/>
</linearGradient>
<linearGradient id="paint1_linear_38_22" x1="71.3262" y1="11.8944" x2="71.3262" y2="30.3199" gradientUnits="userSpaceOnUse">
<stop stop-color="#3B82F6"/>
<stop offset="1" stop-color="#EEEFF3"/>
</linearGradient>
<clipPath id="clip0_38_22">
<rect width="250" height="51" fill="white"/>
</clipPath>
</defs>
</svg>
