<?xml version="1.0" encoding="UTF-8" standalone="no" ?>
<!DOCTYPE svg PUBLIC "-//W3C//DTD SVG 1.1//EN" "http://www.w3.org/Graphics/SVG/1.1/DTD/svg11.dtd">
<svg xmlns="http://www.w3.org/2000/svg" xmlns:xlink="http://www.w3.org/1999/xlink" version="1.1" width="1280" height="1024" viewBox="0 0 1280 1024" xml:space="preserve">
<desc>Created with Fabric.js 5.3.0</desc>
<defs>
</defs>
<g transform="matrix(1 0 0 1 640 512)" id="background-logo"  >
<rect style="stroke: none; stroke-width: 0; stroke-dasharray: none; stroke-linecap: butt; stroke-dashoffset: 0; stroke-linejoin: miter; stroke-miterlimit: 4; fill: rgb(11,4,40); fill-rule: nonzero; opacity: 1;"  paint-order="stroke"  x="-640" y="-512" rx="0" ry="0" width="1280" height="1024" />
</g>
<g transform="matrix(1.8462595727237359 0 0 1.8462595727237359 640 466.0541241531278)" id="logo-logo"  >
<g style=""  paint-order="stroke"   >
		<g transform="matrix(2.705470061628991 0 0 2.37990681237626 0 0)"  >
<g style=""  paint-order="stroke"   >
		<g transform="matrix(1 0 0 1 0 0)"  >
<linearGradient id="SVGID_2_74975" gradientUnits="userSpaceOnUse" gradientTransform="matrix(1 0 0 1 0 0)"  x1="0" y1="0" x2="0" y2="36">
<stop offset="0%" style="stop-color:rgb(23,234,217);stop-opacity: 1"/>
<stop offset="100%" style="stop-color:rgb(96,120,234);stop-opacity: 1"/>
</linearGradient>
<path style="stroke: none; stroke-width: 1; stroke-dasharray: none; stroke-linecap: butt; stroke-dashoffset: 0; stroke-linejoin: miter; stroke-miterlimit: 4; fill: url(#SVGID_2_74975); fill-rule: nonzero; opacity: 1;"  paint-order="stroke"  transform=" translate(-100, -17.5)" d="M 187.1 4 L 195.4 17.5 L 187.1 31 L 12.9 31 L 4.7 17.5 L 12.9 4 L 187.1 4 M 189.3 0 L 10.7 0 L 0 17.5 L 10.7 35 L 189.29999999999998 35 L 200 17.5 L 189.3 0 L 189.3 0 z" stroke-linecap="round" />
</g>
</g>
</g>
</g>
</g>
<g transform="matrix(1.9211538461538462 0 0 1.9211538461538462 639.069197187044 467.6886763337308)" id="text-logo"  >
<g style=""  paint-order="stroke"   >
		<g transform="matrix(1 0 0 1 0 2.842171e-14)" id="text-logo-path-0"  >
<linearGradient id="SVGID_74976" gradientUnits="userSpaceOnUse" gradientTransform="matrix(1 0 0 1 2.1599999999999966 -37.8)"  x1="-2.1599999999999966" y1="-9.673560000000009" x2="-2.1599999999999966" y2="51.32643999999999">
<stop offset="0%" style="stop-color:rgb(23,234,217);stop-opacity: 1"/>
<stop offset="100%" style="stop-color:rgb(96,120,234);stop-opacity: 1"/>
</linearGradient>
<path style="stroke: none; stroke-width: 0.6526381183461218; stroke-dasharray: none; stroke-linecap: butt; stroke-dashoffset: 0; stroke-linejoin: miter; stroke-miterlimit: 4; fill: url(#SVGID_74976); fill-rule: nonzero; opacity: 1;"  paint-order="stroke"  transform=" translate(-142.55999999999997, 18.875)" d="M 25.92 -26.3 L 25.92 -25.38 L 33.48 -25.38 L 33.48 -26.3 C 33.48 -32.83 28.51 -37.8 21.98 -37.8 L 13.66 -37.8 C 7.13 -37.8 2.16 -32.83 2.16 -26.3 L 2.16 -11.5 C 2.16 -4.97 7.13 0 13.66 0 L 21.98 0 C 28.51 0 33.48 -4.97 33.48 -11.5 L 33.48 -12.47 L 25.92 -12.47 L 25.92 -11.5 C 25.92 -8.64 24.84 -7.56 21.98 -7.56 L 13.66 -7.56 C 10.8 -7.56 9.72 -8.64 9.72 -11.5 L 9.72 -26.3 C 9.72 -29.16 10.8 -30.24 13.66 -30.24 L 21.98 -30.24 C 24.84 -30.24 25.92 -29.16 25.92 -26.3 Z M 37.8 -26.3 L 37.8 -15.12 L 45.36 -15.12 L 45.36 -26.3 C 45.36 -29.16 46.44 -30.24 49.3 -30.24 L 57.62 -30.24 C 60.48 -30.24 61.56 -29.16 61.56 -26.3 L 61.56 -11.5 C 61.56 -8.64 60.48 -7.56 57.62 -7.56 L 49.3 -7.56 C 46.44 -7.56 45.36 -8.64 45.36 -11.5 L 45.36 -12.42 L 37.8 -12.42 L 37.8 -11.5 C 37.8 -4.97 42.77 0 49.3 0 L 57.62 0 C 64.15 0 69.12 -4.97 69.12 -11.5 L 69.12 -26.3 C 69.12 -32.83 64.15 -37.8 57.62 -37.8 L 49.3 -37.8 C 42.77 -37.8 37.8 -32.83 37.8 -26.3 Z M 81 -12.42 L 73.44 -12.42 L 73.44 0 L 93.26 0 C 99.79 0 104.76 -4.97 104.76 -11.5 L 104.76 -26.3 C 104.76 -32.83 99.79 -37.8 93.26 -37.8 L 73.44 -37.8 L 73.44 -15.12 L 81 -15.12 L 81 -30.24 L 93.26 -30.24 C 96.12 -30.24 97.2 -29.16 97.2 -26.3 L 97.2 -11.5 C 97.2 -8.64 96.12 -7.56 93.26 -7.56 L 81 -7.56 Z M 120.58 0.05 L 140.4 0.05 L 140.4 -7.51 L 120.58 -7.51 C 117.72 -7.51 116.64 -8.59 116.64 -11.45 L 116.64 -12.42 L 109.08 -12.42 L 109.08 -11.45 C 109.08 -4.91 114.05 0.05 120.58 0.05 Z M 109.08 -37.8 L 109.08 -15.12 L 136.62 -15.12 L 136.62 -22.68 L 116.64 -22.68 L 116.64 -30.24 L 140.4 -30.24 L 140.4 -37.8 Z M 168.48 0 L 176.04 0 L 176.04 -26.3 C 176.04 -32.83 171.07 -37.8 164.54 -37.8 L 156.22 -37.8 C 149.69 -37.8 144.72 -32.83 144.72 -26.3 L 144.72 0 L 152.28 0 L 152.28 -26.3 C 152.28 -29.16 153.36 -30.24 156.22 -30.24 L 164.54 -30.24 C 167.4 -30.24 168.48 -29.16 168.48 -26.3 L 168.48 -22.68 L 154.98 -22.68 L 154.98 -15.12 L 168.48 -15.12 Z M 187.92 -11.5 L 187.92 -12.47 L 180.36 -12.47 L 180.36 -11.5 C 180.36 -4.97 185.33 0 191.86 0 L 200.18 0 C 206.71 0 211.68 -4.97 211.68 -11.5 L 211.68 -37.8 L 204.12 -37.8 L 204.12 -11.5 C 204.12 -8.64 203.04 -7.56 200.18 -7.56 L 191.86 -7.56 C 189 -7.56 187.92 -8.64 187.92 -11.5 Z M 180.36 -37.8 L 180.36 -15.17 L 187.92 -15.17 L 187.92 -37.8 Z M 235.82 -37.8 L 216 -37.8 L 216 -15.12 L 235.82 -15.12 C 238.68 -15.12 239.76 -14.04 239.76 -11.18 L 239.76 0 L 247.32 0 L 247.32 -11.18 C 247.32 -14.15 246.29 -16.85 244.51 -18.85 C 246.29 -20.79 247.32 -23.38 247.32 -26.3 C 247.32 -32.83 242.35 -37.8 235.82 -37.8 Z M 216 -12.42 L 216 0 L 223.56 0 L 223.56 -12.42 Z M 235.82 -22.68 L 223.56 -22.68 L 223.56 -30.24 L 235.82 -30.24 C 238.68 -30.24 239.76 -29.16 239.76 -26.3 C 239.76 -23.65 238.73 -22.68 235.82 -22.68 Z M 275.4 0 L 282.96 0 L 282.96 -26.3 C 282.96 -32.83 277.99 -37.8 271.46 -37.8 L 263.14 -37.8 C 256.61 -37.8 251.64 -32.83 251.64 -26.3 L 251.64 0 L 259.2 0 L 259.2 -26.3 C 259.2 -29.16 260.28 -30.24 263.14 -30.24 L 271.46 -30.24 C 274.32 -30.24 275.4 -29.16 275.4 -26.3 L 275.4 -22.68 L 261.9 -22.68 L 261.9 -15.12 L 275.4 -15.12 Z" stroke-linecap="round" />
</g>
</g>
</g>
<g transform="matrix(1.9211538461538462 0 0 1.9211538461538462 639.2655489984465 602.3914593839138)" id="tagline-b72074bb-72b3-44de-b0e3-c1fdcb307b46-logo"  >
<g style=""  paint-order="stroke"   >
		<g transform="matrix(1 0 0 1 0 0)" id="tagline-b72074bb-72b3-44de-b0e3-c1fdcb307b46-logo-path-0"  >
<path style="stroke: none; stroke-width: 0; stroke-dasharray: none; stroke-linecap: butt; stroke-dashoffset: 0; stroke-linejoin: miter; stroke-miterlimit: 4; fill: rgb(90,131,233); fill-rule: nonzero; opacity: 1;"  paint-order="stroke"  transform=" translate(-281.93, 10.813749999999999)" d="M 1.24 0 L 5.58 0 L 5.58 -7.13 L 1.24 -7.13 Z M 1.24 -15.1 L 1.24 -8.68 L 5.58 -8.68 L 5.58 -15.1 C 5.58 -16.74 6.2 -17.36 7.84 -17.36 L 9.52 -17.36 C 11.16 -17.36 11.78 -16.74 11.78 -15.1 L 11.78 0 L 16.12 0 L 16.12 -15.1 C 16.12 -16.74 16.74 -17.36 18.38 -17.36 L 20.06 -17.36 C 21.7 -17.36 22.32 -16.74 22.32 -15.1 L 22.32 0 L 26.66 0 L 26.66 -15.1 C 26.66 -18.85 23.81 -21.7 20.06 -21.7 L 18.38 -21.7 C 16.65 -21.7 15.1 -21.08 13.95 -20.06 C 12.8 -21.08 11.25 -21.7 9.52 -21.7 L 7.84 -21.7 C 4.09 -21.7 1.24 -18.85 1.24 -15.1 Z M 34.81 -15.1 L 34.81 -8.68 L 39.15 -8.68 L 39.15 -15.1 C 39.15 -16.74 39.77 -17.36 41.42 -17.36 L 46.19 -17.36 C 47.83 -17.36 48.45 -16.74 48.45 -15.1 L 48.45 -6.6 C 48.45 -4.96 47.83 -4.34 46.19 -4.34 L 41.42 -4.34 C 39.77 -4.34 39.15 -4.96 39.15 -6.6 L 39.15 -7.13 L 34.81 -7.13 L 34.81 -6.6 C 34.81 -2.85 37.66 0 41.42 0 L 46.19 0 C 49.94 0 52.79 -2.85 52.79 -6.6 L 52.79 -15.1 C 52.79 -18.85 49.94 -21.7 46.19 -21.7 L 41.42 -21.7 C 37.66 -21.7 34.81 -18.85 34.81 -15.1 Z M 65.29 -7.13 L 60.95 -7.13 L 60.95 0 L 72.32 0 C 76.07 0 78.93 -2.85 78.93 -6.6 L 78.93 -15.1 C 78.93 -18.85 76.07 -21.7 72.32 -21.7 L 60.95 -21.7 L 60.95 -8.68 L 65.29 -8.68 L 65.29 -17.36 L 72.32 -17.36 C 73.97 -17.36 74.59 -16.74 74.59 -15.1 L 74.59 -6.6 C 74.59 -4.96 73.97 -4.34 72.32 -4.34 L 65.29 -4.34 Z M 93.68 0.03 L 105.06 0.03 L 105.06 -4.31 L 93.68 -4.31 C 92.04 -4.31 91.42 -4.93 91.42 -6.57 L 91.42 -7.13 L 87.08 -7.13 L 87.08 -6.57 C 87.08 -2.82 89.93 0.03 93.68 0.03 Z M 87.08 -21.7 L 87.08 -8.68 L 102.89 -8.68 L 102.89 -13.02 L 91.42 -13.02 L 91.42 -17.36 L 105.06 -17.36 L 105.06 -21.7 Z M 124.59 -21.7 L 113.21 -21.7 L 113.21 -8.68 L 124.59 -8.68 C 126.23 -8.68 126.85 -8.06 126.85 -6.42 L 126.85 0 L 131.19 0 L 131.19 -6.42 C 131.19 -8.12 130.6 -9.67 129.58 -10.82 C 130.6 -11.94 131.19 -13.42 131.19 -15.1 C 131.19 -18.85 128.34 -21.7 124.59 -21.7 Z M 113.21 -7.13 L 113.21 0 L 117.55 0 L 117.55 -7.13 Z M 124.59 -13.02 L 117.55 -13.02 L 117.55 -17.36 L 124.59 -17.36 C 126.23 -17.36 126.85 -16.74 126.85 -15.1 C 126.85 -13.58 126.26 -13.02 124.59 -13.02 Z M 139.35 0 L 143.69 0 L 143.69 -7.13 L 139.35 -7.13 Z M 139.35 -15.1 L 139.35 -8.68 L 143.69 -8.68 L 143.69 -15.1 C 143.69 -16.74 144.31 -17.36 145.95 -17.36 L 150.72 -17.36 C 152.37 -17.36 152.99 -16.74 152.99 -15.1 L 152.99 0 L 157.33 0 L 157.33 -15.1 C 157.33 -18.85 154.47 -21.7 150.72 -21.7 L 145.95 -21.7 C 142.2 -21.7 139.35 -18.85 139.35 -15.1 Z M 177.35 -8.68 L 181.69 -8.68 L 181.69 -21.7 L 177.35 -21.7 Z M 177.35 -7.13 L 177.35 -6.6 C 177.35 -2.85 180.2 0 183.95 0 L 185.63 0 C 187.36 0 188.91 -0.62 190.06 -1.64 C 191.21 -0.62 192.76 0 194.49 0 L 196.17 0 C 199.92 0 202.77 -2.85 202.77 -6.6 L 202.77 -21.7 L 198.43 -21.7 L 198.43 -6.6 C 198.43 -4.96 197.81 -4.34 196.17 -4.34 L 194.49 -4.34 C 192.85 -4.34 192.23 -4.96 192.23 -6.6 L 192.23 -21.7 L 187.89 -21.7 L 187.89 -6.6 C 187.89 -4.96 187.27 -4.34 185.63 -4.34 L 183.95 -4.34 C 182.31 -4.34 181.69 -4.96 181.69 -6.6 L 181.69 -7.13 Z M 217.53 0.03 L 228.9 0.03 L 228.9 -4.31 L 217.53 -4.31 C 215.88 -4.31 215.26 -4.93 215.26 -6.57 L 215.26 -7.13 L 210.92 -7.13 L 210.92 -6.57 C 210.92 -2.82 213.78 0.03 217.53 0.03 Z M 210.92 -21.7 L 210.92 -8.68 L 226.73 -8.68 L 226.73 -13.02 L 215.26 -13.02 L 215.26 -17.36 L 228.9 -17.36 L 228.9 -21.7 Z M 246.88 -21.7 L 237.06 -21.7 L 237.06 -8.68 L 248.43 -8.68 C 250.08 -8.68 250.7 -8.06 250.7 -6.42 C 250.7 -4.9 250.11 -4.34 248.43 -4.34 L 241.4 -4.34 L 241.4 -7.13 L 237.06 -7.13 L 237.06 0 L 248.43 0 C 252.15 0 255.04 -2.73 255.04 -6.42 C 255.04 -8.59 254.08 -10.48 252.53 -11.66 C 253.15 -12.65 253.49 -13.83 253.49 -15.1 C 253.49 -18.85 250.64 -21.7 246.88 -21.7 Z M 246.88 -13.02 L 241.4 -13.02 L 241.4 -17.36 L 246.88 -17.36 C 248.53 -17.36 249.15 -16.74 249.15 -15.1 C 249.15 -13.58 248.56 -13.02 246.88 -13.02 Z M 279.4 -7.13 L 275.06 -7.13 L 275.06 0 L 286.44 0 C 290.19 0 293.04 -2.85 293.04 -6.6 L 293.04 -15.1 C 293.04 -18.85 290.19 -21.7 286.44 -21.7 L 275.06 -21.7 L 275.06 -8.68 L 279.4 -8.68 L 279.4 -17.36 L 286.44 -17.36 C 288.08 -17.36 288.7 -16.74 288.7 -15.1 L 288.7 -6.6 C 288.7 -4.96 288.08 -4.34 286.44 -4.34 L 279.4 -4.34 Z M 307.8 0.03 L 319.18 0.03 L 319.18 -4.31 L 307.8 -4.31 C 306.16 -4.31 305.54 -4.93 305.54 -6.57 L 305.54 -7.13 L 301.2 -7.13 L 301.2 -6.57 C 301.2 -2.82 304.05 0.03 307.8 0.03 Z M 301.2 -21.7 L 301.2 -8.68 L 317.01 -8.68 L 317.01 -13.02 L 305.54 -13.02 L 305.54 -17.36 L 319.18 -17.36 L 319.18 -21.7 Z M 331.86 -21.7 L 327.33 -21.7 L 333.47 -2.14 C 334.37 0.81 338.46 0.81 339.36 -2.14 L 345.5 -21.7 L 340.97 -21.7 L 336.41 -7.29 Z M 360.25 0.03 L 371.63 0.03 L 371.63 -4.31 L 360.25 -4.31 C 358.61 -4.31 357.99 -4.93 357.99 -6.57 L 357.99 -7.13 L 353.65 -7.13 L 353.65 -6.57 C 353.65 -2.82 356.5 0.03 360.25 0.03 Z M 353.65 -21.7 L 353.65 -8.68 L 369.46 -8.68 L 369.46 -13.02 L 357.99 -13.02 L 357.99 -17.36 L 371.63 -17.36 L 371.63 -21.7 Z M 386.38 0 L 397.76 0 L 397.76 -4.34 L 386.38 -4.34 C 384.74 -4.34 384.12 -4.96 384.12 -6.6 L 384.12 -21.7 L 379.78 -21.7 L 379.78 -6.6 C 379.78 -2.85 382.63 0 386.38 0 Z M 405.91 -15.1 L 405.91 -8.68 L 410.25 -8.68 L 410.25 -15.1 C 410.25 -16.74 410.87 -17.36 412.52 -17.36 L 417.29 -17.36 C 418.93 -17.36 419.55 -16.74 419.55 -15.1 L 419.55 -6.6 C 419.55 -4.96 418.93 -4.34 417.29 -4.34 L 412.52 -4.34 C 410.87 -4.34 410.25 -4.96 410.25 -6.6 L 410.25 -7.13 L 405.91 -7.13 L 405.91 -6.6 C 405.91 -2.85 408.77 0 412.52 0 L 417.29 0 C 421.04 0 423.89 -2.85 423.89 -6.6 L 423.89 -15.1 C 423.89 -18.85 421.04 -21.7 417.29 -21.7 L 412.52 -21.7 C 408.77 -21.7 405.91 -18.85 405.91 -15.1 Z M 443.42 -21.7 L 432.05 -21.7 L 432.05 -8.68 L 443.42 -8.68 C 447.14 -8.68 450.03 -11.41 450.03 -15.1 C 450.03 -18.85 447.17 -21.7 443.42 -21.7 Z M 432.05 -7.13 L 432.05 0 L 436.39 0 L 436.39 -7.13 Z M 443.42 -13.02 L 436.39 -13.02 L 436.39 -17.36 L 443.42 -17.36 C 445.07 -17.36 445.69 -16.74 445.69 -15.1 C 445.69 -13.58 445.1 -13.02 443.42 -13.02 Z M 458.18 0 L 462.52 0 L 462.52 -7.13 L 458.18 -7.13 Z M 458.18 -15.1 L 458.18 -8.68 L 462.52 -8.68 L 462.52 -15.1 C 462.52 -16.74 463.14 -17.36 464.78 -17.36 L 466.46 -17.36 C 468.1 -17.36 468.72 -16.74 468.72 -15.1 L 468.72 0 L 473.06 0 L 473.06 -15.1 C 473.06 -16.74 473.68 -17.36 475.32 -17.36 L 477 -17.36 C 478.64 -17.36 479.26 -16.74 479.26 -15.1 L 479.26 0 L 483.6 0 L 483.6 -15.1 C 483.6 -18.85 480.75 -21.7 477 -21.7 L 475.32 -21.7 C 473.59 -21.7 472.04 -21.08 470.89 -20.06 C 469.74 -21.08 468.19 -21.7 466.46 -21.7 L 464.78 -21.7 C 461.03 -21.7 458.18 -18.85 458.18 -15.1 Z M 498.36 0.03 L 509.73 0.03 L 509.73 -4.31 L 498.36 -4.31 C 496.71 -4.31 496.09 -4.93 496.09 -6.57 L 496.09 -7.13 L 491.75 -7.13 L 491.75 -6.57 C 491.75 -2.82 494.6 0.03 498.36 0.03 Z M 491.75 -21.7 L 491.75 -8.68 L 507.56 -8.68 L 507.56 -13.02 L 496.09 -13.02 L 496.09 -17.36 L 509.73 -17.36 L 509.73 -21.7 Z M 517.89 0 L 522.23 0 L 522.23 -7.13 L 517.89 -7.13 Z M 517.89 -15.1 L 517.89 -8.68 L 522.23 -8.68 L 522.23 -15.1 C 522.23 -16.74 522.85 -17.36 524.49 -17.36 L 529.26 -17.36 C 530.91 -17.36 531.53 -16.74 531.53 -15.1 L 531.53 0 L 535.87 0 L 535.87 -15.1 C 535.87 -18.85 533.01 -21.7 529.26 -21.7 L 524.49 -21.7 C 520.74 -21.7 517.89 -18.85 517.89 -15.1 Z M 555.49 -15.81 L 551.15 -15.81 L 551.15 0 L 555.49 0 Z M 544.02 -21.7 L 544.02 -17.36 L 562.62 -17.36 L 562.62 -21.7 Z" stroke-linecap="round" />
</g>
</g>
</g>
</svg>