<svg width="250" height="44" viewBox="0 0 250 44" fill="none" xmlns="http://www.w3.org/2000/svg">
<g clip-path="url(#clip0_38_22)">
<path d="M226.159 3.50882L235.798 14.5996L226.159 25.6904H23.8406L14.317 14.5996L23.8406 3.50882H226.159ZM228.714 0.222656H21.2855L8.8584 14.5996L21.2855 28.9766H228.714L241.141 14.5996L228.714 0.222656Z" fill="url(#paint0_linear_38_22)"/>
<path d="M72.6809 12.2363V12.5668H76.0579V12.2363C76.0579 9.8907 73.8378 8.10547 70.9209 8.10547H67.2044C64.2875 8.10547 62.0674 9.8907 62.0674 12.2363V17.5525C62.0674 19.8981 64.2875 21.6833 67.2044 21.6833H70.9209C73.8378 21.6833 76.0579 19.8981 76.0579 17.5525V17.2041H72.6809V17.5525C72.6809 18.5798 72.1985 18.9677 70.9209 18.9677H67.2044C65.9268 18.9677 65.4444 18.5798 65.4444 17.5525V12.2363C65.4444 11.209 65.9268 10.821 67.2044 10.821H70.9209C72.1985 10.821 72.6809 11.209 72.6809 12.2363ZM77.9877 12.2363V16.2522H81.3647V12.2363C81.3647 11.209 81.8471 10.821 83.1247 10.821H86.8412C88.1187 10.821 88.6012 11.209 88.6012 12.2363V17.5525C88.6012 18.5798 88.1187 18.9677 86.8412 18.9677H83.1247C81.8471 18.9677 81.3647 18.5798 81.3647 17.5525V17.222H77.9877V17.5525C77.9877 19.8981 80.2077 21.6833 83.1247 21.6833H86.8412C89.7581 21.6833 91.9782 19.8981 91.9782 17.5525V12.2363C91.9782 9.8907 89.7581 8.10547 86.8412 8.10547H83.1247C80.2077 8.10547 77.9877 9.8907 77.9877 12.2363ZM97.285 17.222H93.9079V21.6833H102.761C105.678 21.6833 107.898 19.8981 107.898 17.5525V12.2363C107.898 9.8907 105.678 8.10547 102.761 8.10547H93.9079V16.2522H97.285V10.821H102.761C104.039 10.821 104.521 11.209 104.521 12.2363V17.5525C104.521 18.5798 104.039 18.9677 102.761 18.9677H97.285V17.222ZM114.965 21.7013H123.819V18.9857H114.965C113.688 18.9857 113.205 18.5978 113.205 17.5704V17.222H109.828V17.5704C109.828 19.9196 112.048 21.7013 114.965 21.7013ZM109.828 8.10547V16.2522H122.13V13.5366H113.205V10.821H123.819V8.10547H109.828ZM136.362 21.6833H139.739V12.2363C139.739 9.8907 137.519 8.10547 134.602 8.10547H130.885C127.969 8.10547 125.748 9.8907 125.748 12.2363V21.6833H129.126V12.2363C129.126 11.209 129.608 10.821 130.885 10.821H134.602C135.88 10.821 136.362 11.209 136.362 12.2363V13.5366H130.332V16.2522H136.362V21.6833ZM145.046 17.5525V17.2041H141.669V17.5525C141.669 19.8981 143.889 21.6833 146.806 21.6833H150.522C153.439 21.6833 155.659 19.8981 155.659 17.5525V8.10547H152.282V17.5525C152.282 18.5798 151.8 18.9677 150.522 18.9677H146.806C145.528 18.9677 145.046 18.5798 145.046 17.5525ZM141.669 8.10547V16.2342H145.046V8.10547H141.669ZM166.443 8.10547H157.589V16.2522H166.443C167.72 16.2522 168.203 16.6401 168.203 17.6674V21.6833H171.58V17.6674C171.58 16.6006 171.119 15.6308 170.324 14.9124C171.119 14.2155 171.58 13.2852 171.58 12.2363C171.58 9.8907 169.36 8.10547 166.443 8.10547ZM157.589 17.222V21.6833H160.966V17.222H157.589ZM166.443 13.5366H160.966V10.821H166.443C167.72 10.821 168.203 11.209 168.203 12.2363C168.203 13.1882 167.742 13.5366 166.443 13.5366ZM184.123 21.6833H187.5V12.2363C187.5 9.8907 185.28 8.10547 182.363 8.10547H178.646C175.729 8.10547 173.509 9.8907 173.509 12.2363V21.6833H176.886V12.2363C176.886 11.209 177.369 10.821 178.646 10.821H182.363C183.64 10.821 184.123 11.209 184.123 12.2363V13.5366H178.092V16.2522H184.123V21.6833Z" fill="url(#paint1_linear_38_22)"/>
<path d="M-0.554688 43.9705H1.38398V41.4094H-0.554688V43.9705ZM-0.554688 38.5465V40.8526H1.38398V38.5465C1.38398 37.9574 1.66093 37.7347 2.39351 37.7347H3.14396C3.87655 37.7347 4.1535 37.9574 4.1535 38.5465V43.9705H6.09216V38.5465C6.09216 37.9574 6.36911 37.7347 7.1017 37.7347H7.85215C8.58473 37.7347 8.86168 37.9574 8.86168 38.5465V43.9705H10.8003V38.5465C10.8003 37.1995 9.52726 36.1758 7.85215 36.1758H7.1017C6.32891 36.1758 5.63653 36.3985 5.12283 36.7649C4.60913 36.3985 3.91675 36.1758 3.14396 36.1758H2.39351C0.718399 36.1758 -0.554688 37.1995 -0.554688 38.5465ZM14.4409 38.5465V40.8526H16.3796V38.5465C16.3796 37.9574 16.6565 37.7347 17.3936 37.7347H19.5243C20.2569 37.7347 20.5339 37.9574 20.5339 38.5465V41.5997C20.5339 42.1888 20.2569 42.4115 19.5243 42.4115H17.3936C16.6565 42.4115 16.3796 42.1888 16.3796 41.5997V41.4094H14.4409V41.5997C14.4409 42.9467 15.714 43.9705 17.3936 43.9705H19.5243C21.1994 43.9705 22.4725 42.9467 22.4725 41.5997V38.5465C22.4725 37.1995 21.1994 36.1758 19.5243 36.1758H17.3936C15.714 36.1758 14.4409 37.1995 14.4409 38.5465ZM28.0562 41.4094H26.1176V43.9705H31.1965C32.8716 43.9705 34.1492 42.9467 34.1492 41.5997V38.5465C34.1492 37.1995 32.8716 36.1758 31.1965 36.1758H26.1176V40.8526H28.0562V37.7347H31.1965C31.9336 37.7347 32.2105 37.9574 32.2105 38.5465V41.5997C32.2105 42.1888 31.9336 42.4115 31.1965 42.4115H28.0562V41.4094ZM40.738 43.9812H45.8214V42.4223H40.738C40.0054 42.4223 39.7284 42.1996 39.7284 41.6105V41.4094H37.7898V41.6105C37.7898 42.9575 39.0629 43.9812 40.738 43.9812ZM37.7898 36.1758V40.8526H44.8521V39.2937H39.7284V37.7347H45.8214V36.1758H37.7898ZM54.5454 36.1758H49.462V40.8526H54.5454C55.278 40.8526 55.5549 41.0753 55.5549 41.6644V43.9705H57.4936V41.6644C57.4936 41.0537 57.23 40.497 56.7744 40.0839C57.23 39.6816 57.4936 39.15 57.4936 38.5465C57.4936 37.1995 56.2205 36.1758 54.5454 36.1758ZM49.462 41.4094V43.9705H51.4006V41.4094H49.462ZM54.5454 39.2937H51.4006V37.7347H54.5454C55.278 37.7347 55.5549 37.9574 55.5549 38.5465C55.5549 39.0925 55.2914 39.2937 54.5454 39.2937ZM61.1386 43.9705H63.0773V41.4094H61.1386V43.9705ZM61.1386 38.5465V40.8526H63.0773V38.5465C63.0773 37.9574 63.3542 37.7347 64.0868 37.7347H66.2176C66.9546 37.7347 67.2316 37.9574 67.2316 38.5465V43.9705H69.1702V38.5465C69.1702 37.1995 67.8927 36.1758 66.2176 36.1758H64.0868C62.4117 36.1758 61.1386 37.1995 61.1386 38.5465ZM78.1131 40.8526H80.0518V36.1758H78.1131V40.8526ZM78.1131 41.4094V41.5997C78.1131 42.9467 79.3862 43.9705 81.0613 43.9705H81.8117C82.5845 43.9705 83.2769 43.7478 83.7906 43.3814C84.3043 43.7478 84.9967 43.9705 85.7695 43.9705H86.5199C88.195 43.9705 89.4681 42.9467 89.4681 41.5997V36.1758H87.5295V41.5997C87.5295 42.1888 87.2525 42.4115 86.5199 42.4115H85.7695C85.0369 42.4115 84.7599 42.1888 84.7599 41.5997V36.1758H82.8213V41.5997C82.8213 42.1888 82.5443 42.4115 81.8117 42.4115H81.0613C80.3287 42.4115 80.0518 42.1888 80.0518 41.5997V41.4094H78.1131ZM96.0614 43.9812H101.14V42.4223H96.0614C95.3243 42.4223 95.0474 42.1996 95.0474 41.6105V41.4094H93.1087V41.6105C93.1087 42.9575 94.3863 43.9812 96.0614 43.9812ZM93.1087 36.1758V40.8526H100.171V39.2937H95.0474V37.7347H101.14V36.1758H93.1087ZM109.172 36.1758H104.785V40.8526H109.864C110.601 40.8526 110.878 41.0753 110.878 41.6644C110.878 42.2104 110.615 42.4115 109.864 42.4115H106.724V41.4094H104.785V43.9705H109.864C111.526 43.9705 112.817 42.9898 112.817 41.6644C112.817 40.8849 112.388 40.206 111.696 39.7822C111.973 39.4266 112.125 39.0027 112.125 38.5465C112.125 37.1995 110.852 36.1758 109.172 36.1758ZM109.172 39.2937H106.724V37.7347H109.172C109.909 37.7347 110.186 37.9574 110.186 38.5465C110.186 39.0925 109.922 39.2937 109.172 39.2937ZM123.699 41.4094H121.76V43.9705H126.843C128.518 43.9705 129.791 42.9467 129.791 41.5997V38.5465C129.791 37.1995 128.518 36.1758 126.843 36.1758H121.76V40.8526H123.699V37.7347H126.843C127.576 37.7347 127.853 37.9574 127.853 38.5465V41.5997C127.853 42.1888 127.576 42.4115 126.843 42.4115H123.699V41.4094ZM136.385 43.9812H141.468V42.4223H136.385C135.652 42.4223 135.375 42.1996 135.375 41.6105V41.4094H133.437V41.6105C133.437 42.9575 134.71 43.9812 136.385 43.9812ZM133.437 36.1758V40.8526H140.499V39.2937H135.375V37.7347H141.468V36.1758H133.437ZM147.132 36.1758H145.109L147.851 43.2018C148.253 44.2614 150.08 44.2614 150.482 43.2018L153.225 36.1758H151.202L149.165 41.3519L147.132 36.1758ZM159.814 43.9812H164.897V42.4223H159.814C159.081 42.4223 158.804 42.1996 158.804 41.6105V41.4094H156.866V41.6105C156.866 42.9575 158.139 43.9812 159.814 43.9812ZM156.866 36.1758V40.8526H163.928V39.2937H158.804V37.7347H164.897V36.1758H156.866ZM171.486 43.9705H176.57V42.4115H171.486C170.754 42.4115 170.477 42.1888 170.477 41.5997V36.1758H168.538V41.5997C168.538 42.9467 169.811 43.9705 171.486 43.9705ZM180.21 38.5465V40.8526H182.149V38.5465C182.149 37.9574 182.426 37.7347 183.163 37.7347H185.294C186.026 37.7347 186.303 37.9574 186.303 38.5465V41.5997C186.303 42.1888 186.026 42.4115 185.294 42.4115H183.163C182.426 42.4115 182.149 42.1888 182.149 41.5997V41.4094H180.21V41.5997C180.21 42.9467 181.488 43.9705 183.163 43.9705H185.294C186.969 43.9705 188.242 42.9467 188.242 41.5997V38.5465C188.242 37.1995 186.969 36.1758 185.294 36.1758H183.163C181.488 36.1758 180.21 37.1995 180.21 38.5465ZM196.966 36.1758H191.887V40.8526H196.966C198.627 40.8526 199.918 39.872 199.918 38.5465C199.918 37.1995 198.641 36.1758 196.966 36.1758ZM191.887 41.4094V43.9705H193.825V41.4094H191.887ZM196.966 39.2937H193.825V37.7347H196.966C197.703 37.7347 197.98 37.9574 197.98 38.5465C197.98 39.0925 197.716 39.2937 196.966 39.2937ZM203.559 43.9705H205.498V41.4094H203.559V43.9705ZM203.559 38.5465V40.8526H205.498V38.5465C205.498 37.9574 205.775 37.7347 206.507 37.7347H207.258C207.99 37.7347 208.267 37.9574 208.267 38.5465V43.9705H210.206V38.5465C210.206 37.9574 210.483 37.7347 211.215 37.7347H211.966C212.698 37.7347 212.975 37.9574 212.975 38.5465V43.9705H214.914V38.5465C214.914 37.1995 213.641 36.1758 211.966 36.1758H211.215C210.443 36.1758 209.75 36.3985 209.237 36.7649C208.723 36.3985 208.03 36.1758 207.258 36.1758H206.507C204.832 36.1758 203.559 37.1995 203.559 38.5465ZM221.507 43.9812H226.586V42.4223H221.507C220.77 42.4223 220.493 42.1996 220.493 41.6105V41.4094H218.555V41.6105C218.555 42.9575 219.828 43.9812 221.507 43.9812ZM218.555 36.1758V40.8526H225.617V39.2937H220.493V37.7347H226.586V36.1758H218.555ZM230.231 43.9705H232.17V41.4094H230.231V43.9705ZM230.231 38.5465V40.8526H232.17V38.5465C232.17 37.9574 232.447 37.7347 233.179 37.7347H235.31C236.047 37.7347 236.324 37.9574 236.324 38.5465V43.9705H238.263V38.5465C238.263 37.1995 236.985 36.1758 235.31 36.1758H233.179C231.504 36.1758 230.231 37.1995 230.231 38.5465ZM247.027 38.2915H245.088V43.9705H247.027V38.2915ZM241.903 36.1758V37.7347H250.212V36.1758H241.903Z" fill="#9B8AF9"/>
</g>
<defs>
<linearGradient id="paint0_linear_38_22" x1="8.8584" y1="0.222656" x2="8.8584" y2="29.7982" gradientUnits="userSpaceOnUse">
<stop stop-color="#9B8AF9"/>
<stop offset="1" stop-color="#3B82F6"/>
</linearGradient>
<linearGradient id="paint1_linear_38_22" x1="61.1025" y1="4.6307" x2="61.1025" y2="26.542" gradientUnits="userSpaceOnUse">
<stop stop-color="#3B82F6"/>
<stop offset="1" stop-color="#EEEFF3"/>
</linearGradient>
<clipPath id="clip0_38_22">
<rect width="250" height="44" fill="white"/>
</clipPath>
</defs>
</svg>
