<svg viewBox="0 0 400 320" xmlns="http://www.w3.org/2000/svg">
  <defs>
    <linearGradient id="seo-grad-1" x1="0%" y1="0%" x2="100%" y2="100%">
      <stop offset="0%" style="stop-color:#3b82f6;stop-opacity:1" />
      <stop offset="100%" style="stop-color:#a78bfa;stop-opacity:1" />
    </linearGradient>
    <linearGradient id="seo-grad-2" x1="100%" y1="0%" x2="0%" y2="100%">
      <stop offset="0%" style="stop-color:#a78bfa;stop-opacity:1" />
      <stop offset="100%" style="stop-color:#3b82f6;stop-opacity:1" />
    </linearGradient>
    <filter id="seo-glow">
      <feGaussianBlur stdDeviation="1.5" result="coloredBlur"/>
      <feMerge>
        <feMergeNode in="coloredBlur"/>
        <feMergeNode in="SourceGraphic"/>
      </feMerge>
    </filter>
  </defs>
  
  <!-- Left column - Data boxes -->
  <rect x="20" y="45" width="60" height="40" rx="5" fill="url(#seo-grad-1)" opacity="0.8" filter="url(#seo-glow)"/>
  <text x="50" y="68" font-size="11" fill="#e6e6e6" text-anchor="middle" font-weight="600" opacity="0.8">Data</text>
  
  <rect x="20" y="110" width="60" height="40" rx="5" fill="url(#seo-grad-2)" opacity="0.8" filter="url(#seo-glow)"/>
  <text x="50" y="133" font-size="11" fill="#e6e6e6" text-anchor="middle" font-weight="600" opacity="0.8">Schema</text>
  
  <rect x="20" y="175" width="60" height="40" rx="5" fill="url(#seo-grad-1)" opacity="0.8" filter="url(#seo-glow)"/>
  <text x="50" y="198" font-size="11" fill="#e6e6e6" text-anchor="middle" font-weight="600" opacity="0.8">SEO</text>
  
  <!-- Center connectors -->
  <circle cx="110" cy="65" r="8" fill="url(#seo-grad-2)" opacity="0.7" filter="url(#seo-glow)"/>
  <circle cx="110" cy="130" r="8" fill="url(#seo-grad-1)" opacity="0.7" filter="url(#seo-glow)"/>
  <circle cx="110" cy="195" r="8" fill="url(#seo-grad-2)" opacity="0.7" filter="url(#seo-glow)"/>
  
  <!-- Right column - Property boxes -->
  <rect x="150" y="40" width="50" height="30" rx="4" fill="url(#seo-grad-1)" opacity="0.7" filter="url(#seo-glow)"/>
  <text x="175" y="60" font-size="9" fill="#e6e6e6" text-anchor="middle" font-weight="600" opacity="0.75">Type</text>
  
  <rect x="210" y="40" width="50" height="30" rx="4" fill="url(#seo-grad-2)" opacity="0.7" filter="url(#seo-glow)"/>
  <text x="235" y="60" font-size="9" fill="#e6e6e6" text-anchor="middle" font-weight="600" opacity="0.75">Props</text>
  
  <rect x="270" y="40" width="50" height="30" rx="4" fill="url(#seo-grad-1)" opacity="0.7" filter="url(#seo-glow)"/>
  <text x="295" y="60" font-size="9" fill="#e6e6e6" text-anchor="middle" font-weight="600" opacity="0.75">Value</text>
  
  <!-- Middle row -->
  <rect x="150" y="105" width="50" height="30" rx="4" fill="url(#seo-grad-2)" opacity="0.7" filter="url(#seo-glow)"/>
  <text x="175" y="125" font-size="9" fill="#e6e6e6" text-anchor="middle" font-weight="600" opacity="0.75">Tags</text>
  
  <rect x="210" y="105" width="50" height="30" rx="4" fill="url(#seo-grad-1)" opacity="0.7" filter="url(#seo-glow)"/>
  <text x="235" y="125" font-size="9" fill="#e6e6e6" text-anchor="middle" font-weight="600" opacity="0.75">Meta</text>
  
  <rect x="270" y="105" width="50" height="30" rx="4" fill="url(#seo-grad-2)" opacity="0.7" filter="url(#seo-glow)"/>
  <text x="295" y="125" font-size="9" fill="#e6e6e6" text-anchor="middle" font-weight="600" opacity="0.75">Attrs</text>
  
  <!-- Bottom row -->
  <rect x="150" y="170" width="50" height="30" rx="4" fill="url(#seo-grad-1)" opacity="0.7" filter="url(#seo-glow)"/>
  <text x="175" y="190" font-size="9" fill="#e6e6e6" text-anchor="middle" font-weight="600" opacity="0.75">Rich</text>
  
  <rect x="210" y="170" width="50" height="30" rx="4" fill="url(#seo-grad-2)" opacity="0.7" filter="url(#seo-glow)"/>
  <text x="235" y="190" font-size="9" fill="#e6e6e6" text-anchor="middle" font-weight="600" opacity="0.75">Data</text>
  
  <rect x="270" y="170" width="50" height="30" rx="4" fill="url(#seo-grad-1)" opacity="0.7" filter="url(#seo-glow)"/>
  <text x="295" y="190" font-size="9" fill="#e6e6e6" text-anchor="middle" font-weight="600" opacity="0.75">JSON</text>
  
  <!-- Connection lines -->
  <line x1="80" y1="65" x2="102" y2="65" stroke="#3b82f6" stroke-width="1.5" opacity="0.4"/>
  <line x1="80" y1="130" x2="102" y2="130" stroke="#a78bfa" stroke-width="1.5" opacity="0.4"/>
  <line x1="80" y1="195" x2="102" y2="195" stroke="#3b82f6" stroke-width="1.5" opacity="0.4"/>
  
  <line x1="118" y1="65" x2="150" y2="55" stroke="#3b82f6" stroke-width="1.5" opacity="0.3"/>
  <line x1="118" y1="65" x2="210" y2="55" stroke="#a78bfa" stroke-width="1.5" opacity="0.3"/>
  <line x1="118" y1="65" x2="270" y2="55" stroke="#3b82f6" stroke-width="1.5" opacity="0.3"/>
  
  <line x1="118" y1="130" x2="150" y2="120" stroke="#a78bfa" stroke-width="1.5" opacity="0.3"/>
  <line x1="118" y1="130" x2="210" y2="120" stroke="#3b82f6" stroke-width="1.5" opacity="0.3"/>
  <line x1="118" y1="130" x2="270" y2="120" stroke="#a78bfa" stroke-width="1.5" opacity="0.3"/>
  
  <line x1="118" y1="195" x2="150" y2="185" stroke="#3b82f6" stroke-width="1.5" opacity="0.3"/>
  <line x1="118" y1="195" x2="210" y2="185" stroke="#a78bfa" stroke-width="1.5" opacity="0.3"/>
  <line x1="118" y1="195" x2="270" y2="185" stroke="#3b82f6" stroke-width="1.5" opacity="0.3"/>
</svg>
