<svg viewBox="0 0 400 320" xmlns="http://www.w3.org/2000/svg">
  <defs>
    <linearGradient id="seo2-grad-1" x1="0%" y1="0%" x2="100%" y2="100%">
      <stop offset="0%" style="stop-color:#3b82f6;stop-opacity:1" />
      <stop offset="100%" style="stop-color:#a78bfa;stop-opacity:1" />
    </linearGradient>
    <linearGradient id="seo2-grad-2" x1="100%" y1="0%" x2="0%" y2="100%">
      <stop offset="0%" style="stop-color:#a78bfa;stop-opacity:1" />
      <stop offset="100%" style="stop-color:#3b82f6;stop-opacity:1" />
    </linearGradient>
    <filter id="seo2-glow">
      <feGaussianBlur stdDeviation="1.5" result="coloredBlur"/>
      <feMerge>
        <feMergeNode in="coloredBlur"/>
        <feMergeNode in="SourceGraphic"/>
      </feMerge>
    </filter>
  </defs>
  
  <!-- Root element -->
  <rect x="30" y="50" width="80" height="60" rx="5" fill="url(#seo2-grad-1)" opacity="0.8" filter="url(#seo2-glow)"/>
  <text x="70" y="88" font-size="13" fill="#e6e6e6" text-anchor="middle" font-weight="700" opacity="0.9">Schema</text>
  
  <!-- Middle layer connectors -->
  <circle cx="135" cy="80" r="7" fill="url(#seo2-grad-2)" opacity="0.7" filter="url(#seo2-glow)"/>
  <circle cx="265" cy="80" r="7" fill="url(#seo2-grad-1)" opacity="0.7" filter="url(#seo2-glow)"/>
  
  <!-- Connection lines from root -->
  <line x1="110" y1="80" x2="128" y2="80" stroke="#3b82f6" stroke-width="2" opacity="0.4"/>
  <line x1="142" y1="80" x2="258" y2="80" stroke="#a78bfa" stroke-width="2" opacity="0.4"/>
  <line x1="272" y1="80" x2="290" y2="80" stroke="#3b82f6" stroke-width="2" opacity="0.4"/>
  
  <!-- First level properties -->
  <rect x="150" y="50" width="100" height="60" rx="5" fill="url(#seo2-grad-2)" opacity="0.8" filter="url(#seo2-glow)"/>
  <text x="200" y="78" font-size="12" fill="#e6e6e6" text-anchor="middle" font-weight="700" opacity="0.9">Properties</text>
  
  <!-- Second level properties -->
  <rect x="290" y="50" width="80" height="60" rx="5" fill="url(#seo2-grad-1)" opacity="0.8" filter="url(#seo2-glow)"/>
  <text x="330" y="78" font-size="12" fill="#e6e6e6" text-anchor="middle" font-weight="700" opacity="0.9">Values</text>
  
  <!-- Second row of data structure -->
  <!-- Left element -->
  <rect x="30" y="160" width="70" height="50" rx="4" fill="url(#seo2-grad-1)" opacity="0.75" filter="url(#seo2-glow)"/>
  <text x="65" y="188" font-size="11" fill="#e6e6e6" text-anchor="middle" font-weight="600" opacity="0.85">Type</text>
  
  <!-- Center elements -->
  <rect x="120" y="160" width="70" height="50" rx="4" fill="url(#seo2-grad-2)" opacity="0.75" filter="url(#seo2-glow)"/>
  <text x="155" y="188" font-size="11" fill="#e6e6e6" text-anchor="middle" font-weight="600" opacity="0.85">Name</text>
  
  <rect x="210" y="160" width="70" height="50" rx="4" fill="url(#seo2-grad-1)" opacity="0.75" filter="url(#seo2-glow)"/>
  <text x="245" y="188" font-size="11" fill="#e6e6e6" text-anchor="middle" font-weight="600" opacity="0.85">Value</text>
  
  <!-- Right element -->
  <rect x="300" y="160" width="70" height="50" rx="4" fill="url(#seo2-grad-2)" opacity="0.75" filter="url(#seo2-glow)"/>
  <text x="335" y="188" font-size="11" fill="#e6e6e6" text-anchor="middle" font-weight="600" opacity="0.85">Attrs</text>
  
  <!-- Connecting lines from top to second row -->
  <line x1="70" y1="110" x2="65" y2="160" stroke="#3b82f6" stroke-width="1.5" opacity="0.3" stroke-dasharray="3,3"/>
  <line x1="155" y1="110" x2="155" y2="160" stroke="#a78bfa" stroke-width="1.5" opacity="0.3" stroke-dasharray="3,3"/>
  <line x1="245" y1="110" x2="245" y2="160" stroke="#3b82f6" stroke-width="1.5" opacity="0.3" stroke-dasharray="3,3"/>
  <line x1="335" y1="110" x2="335" y2="160" stroke="#a78bfa" stroke-width="1.5" opacity="0.3" stroke-dasharray="3,3"/>
  
  <!-- Bottom indicators -->
  <circle cx="65" cy="245" r="6" fill="url(#seo2-grad-1)" opacity="0.6" filter="url(#seo2-glow)"/>
  <circle cx="155" cy="245" r="6" fill="url(#seo2-grad-2)" opacity="0.6" filter="url(#seo2-glow)"/>
  <circle cx="245" cy="245" r="6" fill="url(#seo2-grad-1)" opacity="0.6" filter="url(#seo2-glow)"/>
  <circle cx="335" cy="245" r="6" fill="url(#seo2-grad-2)" opacity="0.6" filter="url(#seo2-glow)"/>
  
  <!-- Lines to bottom -->
  <line x1="65" y1="210" x2="65" y2="239" stroke="#3b82f6" stroke-width="1.5" opacity="0.3"/>
  <line x1="155" y1="210" x2="155" y2="239" stroke="#a78bfa" stroke-width="1.5" opacity="0.3"/>
  <line x1="245" y1="210" x2="245" y2="239" stroke="#3b82f6" stroke-width="1.5" opacity="0.3"/>
  <line x1="335" y1="210" x2="335" y2="239" stroke="#a78bfa" stroke-width="1.5" opacity="0.3"/>
</svg>
