<svg width="639" height="167" viewBox="0 0 639 167" fill="none" xmlns="http://www.w3.org/2000/svg">
<g clip-path="url(#clip0_43_40)">
<g filter="url(#filter0_f_43_40)">
<ellipse cx="191.497" cy="75.0764" rx="19.0147" ry="17.2861" transform="rotate(-35.1171 191.497 75.0764)" fill="url(#paint0_linear_43_40)"/>
</g>
<g clip-path="url(#clip1_43_40)">
<path d="M276.062 84C276.062 101.031 285.844 115.703 300.125 122.587L279.869 66.6094C277.516 72.0438 276.062 77.8437 276.062 84ZM347.984 81.825C347.984 76.575 345.991 72.7625 344.359 70.05C342.184 66.425 340.194 63.5281 340.194 59.9062C340.194 55.9219 343.275 52.2969 347.444 52.2969H347.987C340.375 45.2313 330.231 41.0625 319 41.0625C311.894 41.1254 304.911 42.9245 298.66 46.303C292.408 49.6815 287.077 54.5371 283.131 60.4469H285.85C290.381 60.4469 297.262 59.9031 297.262 59.9031C299.619 59.7219 299.8 63.1625 297.625 63.5281C297.625 63.5281 295.269 63.8906 292.734 63.8906L308.316 110.266L317.734 82.1844L311.031 63.8875L306.5 63.5312C304.144 63.35 304.506 59.9062 306.681 59.9062C306.681 59.9062 313.744 60.45 317.913 60.45C322.444 60.45 329.325 59.9062 329.325 59.9062C331.681 59.725 331.863 63.1656 329.688 63.5312C329.688 63.5312 327.331 63.8937 324.797 63.8937L340.375 110.094L344.75 95.7813C346.562 89.8031 348.009 85.6375 348.009 81.8312L347.984 81.825ZM319.725 87.8031L306.863 125.125C310.666 126.212 314.831 126.937 319 126.937C324.072 126.937 328.781 126 333.312 124.581C333.131 124.4 333.131 124.219 332.95 124.038L319.725 87.8031ZM356.681 63.5312L357.044 67.9063C357.044 72.2813 356.319 77.1469 353.784 83.3062L340.741 121.169C353.422 113.741 362.116 99.9719 362.116 84.0313C361.934 76.6031 359.941 69.7188 356.678 63.5625L356.681 63.5312ZM319 34C291.462 34 269 56.4625 269 84C269 111.538 291.462 134 319 134C346.538 134 369 111.538 369 84C369 56.4625 346.538 34 319 34ZM319 131.825C292.731 131.825 271.356 110.45 271.356 84C271.376 71.3702 276.402 59.2633 285.333 50.3327C294.263 41.402 306.37 36.3761 319 36.3563C331.63 36.3761 343.737 41.402 352.667 50.3327C361.598 59.2633 366.624 71.3702 366.644 84C366.644 110.45 345.269 131.825 319 131.825Z" fill="url(#paint1_linear_43_40)"/>
</g>
<g filter="url(#filter1_f_43_40)">
<ellipse cx="484.701" cy="8.08051" rx="5.97922" ry="5.43566" transform="rotate(-133.192 484.701 8.08051)" fill="url(#paint2_linear_43_40)"/>
</g>
<g clip-path="url(#clip2_43_40)">
<path d="M440.924 159.046L437.384 151.638C436.744 151.621 436.124 151.552 435.524 151.432C434.924 151.313 434.328 151.169 433.738 151.002L426.794 156.557L415.806 147.394L421.145 140.485C421.01 140.216 420.901 139.951 420.817 139.689L420.295 138.055C420.211 137.792 420.146 137.513 420.1 137.216L411.744 134.683L415.382 120.846L424.26 121.345C424.644 120.866 425.057 120.401 425.499 119.948C425.94 119.496 426.395 119.084 426.862 118.712L425.45 110.625L440.076 105.951L443.615 113.358C444.256 113.376 444.876 113.444 445.476 113.564C446.076 113.684 446.671 113.827 447.262 113.994L454.206 108.44L465.194 117.603L459.855 124.512C459.99 124.78 460.099 125.045 460.183 125.308L460.705 126.942C460.789 127.204 460.831 127.491 460.833 127.802L469.189 130.334L465.551 144.171L456.74 143.652C456.355 144.13 455.942 144.596 455.501 145.048C455.059 145.501 454.605 145.913 454.137 146.285L455.549 154.372L440.924 159.046ZM443.341 140.929C445.911 140.108 447.841 138.58 449.129 136.345C450.418 134.11 450.688 131.822 449.94 129.481C449.192 127.141 447.645 125.434 445.299 124.36C442.954 123.287 440.495 123.161 437.925 123.982C435.31 124.818 433.369 126.35 432.103 128.577C430.837 130.805 430.578 133.09 431.326 135.43C432.073 137.77 433.609 139.481 435.933 140.562C438.257 141.642 440.726 141.765 443.341 140.929Z" fill="#6750A4"/>
</g>
<g clip-path="url(#clip3_43_40)">
<path d="M59.6963 74.9483L57.1708 69.6628C56.7136 69.6502 56.271 69.6013 55.843 69.5159C55.4149 69.4306 54.9901 69.3284 54.5686 69.2092L49.6138 73.1725L41.7735 66.6343L45.5829 61.7042C45.4869 61.5128 45.409 61.3235 45.3492 61.1363L44.9765 59.9702C44.9167 59.7831 44.8704 59.5837 44.8376 59.372L38.8752 57.5647L41.4709 47.6915L47.8059 48.047C48.0801 47.7055 48.3748 47.3733 48.6899 47.0505C49.0049 46.7277 49.3292 46.4336 49.6627 46.1684L48.6551 40.3978L59.0911 37.0628L61.6167 42.3483C62.0738 42.3609 62.5164 42.4098 62.9445 42.4952C63.3725 42.5805 63.7973 42.6827 64.2188 42.8019L69.1736 38.8386L77.0139 45.3768L73.2045 50.3069C73.3005 50.4983 73.3785 50.6876 73.4383 50.8748L73.8109 52.0409C73.8707 52.228 73.9012 52.4325 73.9024 52.6542L79.8648 54.4615L77.2691 64.3348L70.9816 63.9641C70.7073 64.3057 70.4126 64.6378 70.0976 64.9606C69.7825 65.2834 69.4582 65.5775 69.1247 65.8427L70.1323 71.6133L59.6963 74.9483ZM61.4208 62.0216C63.255 61.4354 64.6318 60.3449 65.5511 58.7501C66.4705 57.1553 66.6633 55.5229 66.1297 53.853C65.596 52.183 64.4923 50.965 62.8184 50.1989C61.1446 49.4327 59.3906 49.3427 57.5564 49.9289C55.6905 50.5251 54.3059 51.6182 53.4023 53.2079C52.4988 54.7977 52.3138 56.4276 52.8475 58.0975C53.3812 59.7675 54.477 60.988 56.135 61.7592C57.7931 62.5304 59.555 62.6178 61.4208 62.0216Z" fill="#6750A4"/>
</g>
<g filter="url(#filter2_f_43_40)">
<ellipse cx="618.748" cy="145.406" rx="15.4728" ry="14.0662" transform="rotate(-35.1171 618.748 145.406)" fill="url(#paint3_linear_43_40)"/>
</g>
<g filter="url(#filter3_f_43_40)">
<ellipse cx="16.3839" cy="143.097" rx="12.9641" ry="11.7855" transform="rotate(-35.1171 16.3839 143.097)" fill="url(#paint4_linear_43_40)"/>
</g>
<g clip-path="url(#clip4_43_40)">
<path d="M617.917 36.4887L616.223 32.9438C615.916 32.9353 615.619 32.9025 615.332 32.8453C615.045 32.7881 614.76 32.7195 614.478 32.6396L611.154 35.2977L605.896 30.9126L608.451 27.6061C608.387 27.4778 608.334 27.3508 608.294 27.2253L608.044 26.4432C608.004 26.3177 607.973 26.184 607.951 26.042L603.952 24.8299L605.693 18.2082L609.942 18.4466C610.126 18.2175 610.323 17.9948 610.535 17.7783C610.746 17.5617 610.964 17.3646 611.187 17.1867L610.511 13.3164L617.511 11.0797L619.204 14.6246C619.511 14.6331 619.808 14.6659 620.095 14.7231C620.382 14.7803 620.667 14.8489 620.95 14.9288L624.273 12.2707L629.531 16.6558L626.976 19.9623C627.041 20.0907 627.093 20.2176 627.133 20.3431L627.383 21.1252C627.423 21.2507 627.443 21.3878 627.444 21.5365L631.443 22.7487L629.702 29.3704L625.485 29.1218C625.301 29.3509 625.104 29.5736 624.892 29.7901C624.681 30.0067 624.464 30.2039 624.24 30.3817L624.916 34.252L617.917 36.4887ZM619.073 27.819C620.303 27.4259 621.227 26.6945 621.843 25.6249C622.46 24.5553 622.589 23.4605 622.231 22.3405C621.873 21.2205 621.133 20.4036 620.01 19.8898C618.888 19.376 617.711 19.3156 616.481 19.7087C615.23 20.1086 614.301 20.8417 613.695 21.9079C613.089 22.9741 612.965 24.0672 613.323 25.1872C613.681 26.3072 614.416 27.1258 615.528 27.643C616.64 28.1602 617.822 28.2189 619.073 27.819Z" fill="#6750A4"/>
</g>
</g>
<defs>
<filter id="filter0_f_43_40" x="171.034" y="55.1992" width="40.9258" height="39.7539" filterUnits="userSpaceOnUse" color-interpolation-filters="sRGB">
<feFlood flood-opacity="0" result="BackgroundImageFix"/>
<feBlend mode="normal" in="SourceGraphic" in2="BackgroundImageFix" result="shape"/>
<feGaussianBlur stdDeviation="1" result="effect1_foregroundBlur_43_40"/>
</filter>
<filter id="filter1_f_43_40" x="477.004" y="0.347656" width="15.3936" height="15.4648" filterUnits="userSpaceOnUse" color-interpolation-filters="sRGB">
<feFlood flood-opacity="0" result="BackgroundImageFix"/>
<feBlend mode="normal" in="SourceGraphic" in2="BackgroundImageFix" result="shape"/>
<feGaussianBlur stdDeviation="1" result="effect1_foregroundBlur_43_40"/>
</filter>
<filter id="filter2_f_43_40" x="601.725" y="128.859" width="34.0469" height="33.0938" filterUnits="userSpaceOnUse" color-interpolation-filters="sRGB">
<feFlood flood-opacity="0" result="BackgroundImageFix"/>
<feBlend mode="normal" in="SourceGraphic" in2="BackgroundImageFix" result="shape"/>
<feGaussianBlur stdDeviation="1" result="effect1_foregroundBlur_43_40"/>
</filter>
<filter id="filter3_f_43_40" x="1.7959" y="128.906" width="29.1758" height="28.3789" filterUnits="userSpaceOnUse" color-interpolation-filters="sRGB">
<feFlood flood-opacity="0" result="BackgroundImageFix"/>
<feBlend mode="normal" in="SourceGraphic" in2="BackgroundImageFix" result="shape"/>
<feGaussianBlur stdDeviation="1" result="effect1_foregroundBlur_43_40"/>
</filter>
<linearGradient id="paint0_linear_43_40" x1="191.497" y1="57.7904" x2="191.497" y2="92.3625" gradientUnits="userSpaceOnUse">
<stop stop-color="#A495F7"/>
<stop offset="1" stop-color="white"/>
</linearGradient>
<linearGradient id="paint1_linear_43_40" x1="319" y1="34" x2="319" y2="134" gradientUnits="userSpaceOnUse">
<stop stop-color="#9B8AF9"/>
<stop offset="1" stop-color="#D2CEE8"/>
</linearGradient>
<linearGradient id="paint2_linear_43_40" x1="484.701" y1="2.64485" x2="484.701" y2="13.5162" gradientUnits="userSpaceOnUse">
<stop stop-color="#A495F7"/>
<stop offset="1" stop-color="white"/>
</linearGradient>
<linearGradient id="paint3_linear_43_40" x1="618.748" y1="131.34" x2="618.748" y2="159.472" gradientUnits="userSpaceOnUse">
<stop stop-color="#A495F7"/>
<stop offset="1" stop-color="white"/>
</linearGradient>
<linearGradient id="paint4_linear_43_40" x1="16.3839" y1="131.311" x2="16.3839" y2="154.882" gradientUnits="userSpaceOnUse">
<stop stop-color="#A495F7"/>
<stop offset="1" stop-color="white"/>
</linearGradient>
<clipPath id="clip0_43_40">
<rect width="639" height="167" fill="white"/>
</clipPath>
<clipPath id="clip1_43_40">
<rect width="100" height="100" fill="white" transform="translate(269 34)"/>
</clipPath>
<clipPath id="clip2_43_40">
<rect width="67" height="61" fill="white" transform="translate(399.306 113.645) rotate(-17.7222)"/>
</clipPath>
<clipPath id="clip3_43_40">
<rect width="47.8076" height="43.5263" fill="white" transform="translate(30 42.5508) rotate(-17.7222)"/>
</clipPath>
<clipPath id="clip4_43_40">
<rect width="32.0633" height="29.192" fill="white" transform="translate(598 14.7617) rotate(-17.7222)"/>
</clipPath>
</defs>
</svg>
